{
classes = (
{
code = "A Aacute Abreve Acircumflex Adieresis Agrave Amacron Aogonek Aring Atilde AE B C C.ss01 Cacute Ccaron Ccedilla Cdotaccent D Eth Dcaron Dcroat E Eacute Ecaron Ecircumflex Edieresis Edotaccent Egrave Emacron Eogonek F G Gbreve Gcommaaccent Gdotaccent H Hbar I Iacute Icircumflex Idieresis Idotaccent Igrave Imacron Iogonek J K Kcommaaccent L Lacute Lcaron Lcommaaccent Lslash M N Nacute Ncaron Ncommaaccent Eng Ntilde O Oacute Ocircumflex Odieresis Ograve Ohungarumlaut Omacron Oslash Otilde OE P Thorn Q Q.ss01 Q.ss02 R Racute Rcaron Rcommaaccent S Sacute Scaron Scedilla Scommaaccent Germandbls T Tbar Tcaron Tcedilla Tcommaaccent U Uacute Ucircumflex Udieresis Ugrave Uhungarumlaut Umacron Uogonek Uring V W Wacute Wcircumflex Wdieresis Wgrave X Y Yacute Ycircumflex Ydieresis Ygrave Z Zacute Zcaron Zdotaccent";
name = Uppercase;
}
);
familyName = "League Spartan";
customParameters = (
{
name = glyphOrder;
value = (
A,
Aacute,
Abreve,
Abreveacute,
Abrevedotbelow,
Abrevegrave,
Abrevehookabove,
Abrevetilde,
Acircumflex,
Acircumflexacute,
Acircumflexdotbelow,
Acircumflexgrave,
Acircumflexhookabove,
Acircumflextilde,
Adblgrave,
Adieresis,
Adotbelow,
Agrave,
Ahookabove,
Ainvertedbreve,
Amacron,
Aogonek,
Aring,
Aringacute,
Atilde,
AE,
AEacute,
B,
C,
C.ss01,
Cacute,
Cacute.ss01,
Ccaron,
Ccaron.ss01,
Ccedilla,
Ccedilla.ss01,
Ccircumflex,
Ccircumflex.ss01,
Cdotaccent,
Cdotaccent.ss01,
D,
DZcaron,
Eth,
Dcaron,
Dcroat,
Dzcaron,
E,
Eacute,
Ebreve,
Ecaron,
Ecircumflex,
Ecircumflexacute,
Ecircumflexdotbelow,
Ecircumflexgrave,
Ecircumflexhookabove,
Ecircumflextilde,
Edblgrave,
Edieresis,
Edotaccent,
Edotbelow,
Egrave,
Ehookabove,
Einvertedbreve,
Emacron,
Eogonek,
Etilde,
F,
G,
Gbreve,
Gcaron,
Gcircumflex,
Gcommaaccent,
Gdotaccent,
H,
Hbar,
Hcircumflex,
I,
Iacute,
Ibreve,
Icircumflex,
Idblgrave,
Idieresis,
Idotaccent,
Idotbelow,
Igrave,
Ihookabove,
Iinvertedbreve,
Imacron,
Iogonek,
Itilde,
J,
Jcircumflex,
K,
Kcommaaccent,
L,
LJ,
Lacute,
Lcaron,
Lcommaaccent,
Ldot,

glyphs = (
{
glyphname = A;
layers = (
{
anchors = (
{
name = bottom;
position = "{586, 0}";
},
{
name = ogonek;
position = "{1131, 16}";
},
{
name = top;
position = "{818, 1320}";
}
);
layerId = "CA4C97A8-3BBB-4B31-B9EA-F36625F03808";
name = BlackItalic;
paths = (
{
closed = 1;
nodes = (
"-148.376 0 LINE",
"265.624 0 LINE",
"391.003 229 LINE",
"862.003 229 LINE",
"905.624 0 LINE",
"1318.624 0 LINE",
"1007.376 1320 LINE",
"628.376 1320 LINE"
);
},
{
closed = 1;
nodes = (
"735.56 856 LINE",
"738.56 856 LINE",
"791.249 565 LINE",
"580.249 565 LINE"
);
}
);
width = 1451;
},
{
anchors = (
{
name = bottom;
position = "{431, 0}";
},
{
name = ogonek;
position = "{824, 16}";
},
{
name = top;
position = "{663, 1320}";
}
);
layerId = "B9A1D949-37EE-48C7-AA51-22036F480782";
name = ExtraLightItalic;
paths = (
{
closed = 1;
nodes = (
"-70.376 0 LINE",
"-2.376 0 LINE",
"192.455 362 LINE",
"797.455 362 LINE",
"862.624 0 LINE",
"929.624 0 LINE",
"702.376 1320 LINE",
"625.376 1320 LINE"
);
},
{
closed = 1;
nodes = (
"647.741 1237 LINE",
"650.741 1237 LINE",
"792.739 426 LINE",
"220.739 426 LINE"
);
}
);
width = 1086;
}
);
leftKerningGroup = A;
rightKerningGroup = A;
unicode = 0041;
},
{
glyphname = AE;
layers = (
{
components = (
{
name = E;
transform = "{1, 0, 0, 1, 717, 0}";
alignment = -1;
}
);
layerId = "CA4C97A8-3BBB-4B31-B9EA-F36625F03808";
name = BlackItalic;
paths = (
{
closed = 1;
nodes = (
"-150.376 0 LINE",
"270.624 0 LINE",
"425.003 229 LINE",
"902.003 229 LINE",
"1180.376 1320 LINE",
"780.376 1320 LINE"
);
},
{
closed = 1;
nodes = (
"823.038 802 LINE",
"827.038 802 LINE",
"776.785 517 LINE",
"619.785 517 LINE"
);
}
);
width = 1763;
},
{
components = (
{
name = E;
transform = "{1, 0, 0, 1, 670, 0}";
alignment = -1;
}
);
layerId = "B9A1D949-37EE-48C7-AA51-22036F480782";
name = ExtraLightItalic;
paths = (
{
closed = 1;
nodes = (
"-89.376 0 LINE",
"-22.376 0 LINE",
"248.455 362 LINE",
"814.455 362 LINE",
"969.376 1320 LINE",
"890.376 1320 LINE"
);
},
{
closed = 1;
nodes = (
"916.854 1266 LINE",
"917.033 1250 LINE",
"771.739 426 LINE",
"288.739 426 LINE"
);
}
);
width = 1603;
}
);
leftKerningGroup = A;
rightKerningGroup = E;
unicode = 00C6;
},
{
glyphname = B;
layers = (
{
anchors = (
{
name = bottom;
position = "{425, 0}";
},
{
name = top;
position = "{657, 1320}";
}
);
layerId = "CA4C97A8-3BBB-4B31-B9EA-F36625F03808";
name = BlackItalic;
paths = (
{
closed = 1;
nodes = (
"-38.376 0 LINE",
"512.624 0 LINE SMOOTH",
"785.624 0 OFFCURVE",
"980.426 152 OFFCURVE",
"1020.276 378 CURVE SMOOTH",
"1057.481 589 OFFCURVE",
"964.937 688 OFFCURVE",
"814.816 710 CURVE",
"945.459 742 OFFCURVE",
"1053.268 843 OFFCURVE",
"1079.893 994 CURVE SMOOTH",
"1121.33 1229 OFFCURVE",
"938.376 1320 OFFCURVE",
"706.376 1320 CURVE SMOOTH",
"194.376 1320 LINE"
);
},
{
closed = 1;
nodes = (
"442.196 525 LINE",
"496.196 525 LINE SMOOTH",
"582.196 525 OFFCURVE",
"633.846 506 OFFCURVE",
"618.329 418 CURVE SMOOTH",
"602.812 330 OFFCURVE",
"543.58 306 OFFCURVE",
"457.58 306 CURVE SMOOTH",
"403.58 306 LINE"
);
},
{
closed = 1;
nodes = (
"528.42 1014 LINE",
"580.42 1014 LINE SMOOTH",
"654.42 1014 OFFCURVE",
"696.951 1000 OFFCURVE",
"683.374 923 CURVE SMOOTH",
"669.797 846 OFFCURVE",
"620.918 824 OFFCURVE",
"546.918 824 CURVE SMOOTH",
"494.918 824 LINE"
);
}
);
width = 1154;
},
{
anchors = (
{
name = bottom;
position = "{375, 0}";
},
{
name = top;
position = "{607, 1320}";
}
);
layerId = "B9A1D949-37EE-48C7-AA51-22036F480782";
name = ExtraLightItalic;
paths = (
{
closed = 1;
nodes = (
"9.624 0 LINE",
"397.624 0 LINE SMOOTH",
"670.624 0 OFFCURVE",
"809.955 155 OFFCURVE",
"847.513 368 CURVE SMOOTH",
"885.246 582 OFFCURVE",
"704.174 678 OFFCURVE",
"627.879 682 CURVE",
"705.937 688 OFFCURVE",
"858.799 829 OFFCURVE",
"889.833 1005 CURVE SMOOTH",
"933.738 1254 OFFCURVE",
"745.376 1320 OFFCURVE",
"537.376 1320 CURVE SMOOTH",
"242.376 1320 LINE"
);
},
{
closed = 1;
nodes = (
"184.002 643 LINE",
"519.002 643 LINE SMOOTH",
"725.002 643 OFFCURVE",
"811.785 517 OFFCURVE",
"784.102 360 CURVE SMOOTH",
"759.24 219 OFFCURVE",
"678.556 62 OFFCURVE",
"436.556 62 CURVE SMOOTH",
"81.556 62 LINE"
);
},
{
closed = 1;
nodes = (
"292.444 1258 LINE",
"558.444 1258 LINE SMOOTH",
"747.444 1258 OFFCURVE",
"858.924 1187 OFFCURVE",
"825.422 997 CURVE SMOOTH",
"802.5 867 OFFCURVE",
"689.758 704 OFFCURVE",
"500.758 704 CURVE SMOOTH",
"194.758 704 LINE"
);
}
);
width = 1021;
}
);
leftKerningGroup = H;
rightKerningGroup = B;
unicode = 0042;
},
{
glyphname = C;
layers = (
{
anchors = (
{
name = bottom;
position = "{653, 0}";
},
{
name = top;
position = "{823, 1320}";
}
);
layerId = "CA4C97A8-3BBB-4B31-B9EA-F36625F03808";
name = BlackItalic;
paths = (
{
closed = 1;
nodes = (
"494.986 360 OFFCURVE",
"443.727 523 OFFCURVE",
"468.06 661 CURVE SMOOTH",
"492.041 797 OFFCURVE",
"600.782 960 OFFCURVE",
"853.782 960 CURVE SMOOTH",
"946.782 960 OFFCURVE",
"1036.258 923 OFFCURVE",
"1079.145 894 CURVE",
"1301.98 1222 LINE",
"1247.325 1275 OFFCURVE",
"1097.492 1344 OFFCURVE",
"889.492 1344 CURVE SMOOTH",
"499.492 1344 OFFCURVE",
"117.181 1053 OFFCURVE",
"47.531 658 CURVE SMOOTH",
"-21.941 264 OFFCURVE",
"259.276 -24 OFFCURVE",
"648.276 -24 CURVE SMOOTH",
"856.276 -24 OFFCURVE",
"1030.443 45 OFFCURVE",
"1103.788 98 CURVE",
"996.624 426 LINE",
"943.51 397 OFFCURVE",
"840.986 360 OFFCURVE",
"747.986 360 CURVE SMOOTH"
);
}
);
width = 1306;
},
{
anchors = (
{
name = bottom;
position = "{623, 0}";
},
{
name = top;
position = "{839, 1320}";
}
);
layerId = "B9A1D949-37EE-48C7-AA51-22036F480782";
name = ExtraLightItalic;
paths = (
{
closed = 1;
nodes = (
"294.032 37 OFFCURVE",
"57.409 283 OFFCURVE",
"124.06 661 CURVE SMOOTH",
"190.359 1037 OFFCURVE",
"513.736 1283 OFFCURVE",
"832.736 1283 CURVE SMOOTH",
"1032.736 1283 OFFCURVE",
"1162.922 1216 OFFCURVE",
"1207.106 1166 CURVE",
"1245.98 1222 LINE",
"1197.325 1275 OFFCURVE",
"1057.492 1344 OFFCURVE",
"849.492 1344 CURVE SMOOTH",
"459.492 1344 OFFCURVE",
"123.359 1037 OFFCURVE",
"56.531 658 CURVE SMOOTH",
"-10.12 280 OFFCURVE",
"219.276 -24 OFFCURVE",
"608.276 -24 CURVE SMOOTH",
"816.276 -24 OFFCURVE",
"980.443 45 OFFCURVE",
"1047.788 98 CURVE",
"1028.663 154 LINE",
"966.846 104 OFFCURVE",
"813.032 37 OFFCURVE",
"613.032 37 CURVE SMOOTH"
);
}
);
width = 1242;
}
);
leftKerningGroup = O;
rightKerningGroup = C;
unicode = 0043;
},
{
glyphname = C.ss01;
leftMetricsKey = O;
layers = (
{
anchors = (
{
name = bottom;
position = "{580, 0}";
},
{
name = top;
position = "{812, 1320}";
}
);
layerId = "CA4C97A8-3BBB-4B31-B9EA-F36625F03808";
name = BlackItalic;
paths = (
{
closed = 1;
nodes = (
"1200.028 1296 LINE",
"1134.552 1333 OFFCURVE",
"1027.492 1344 OFFCURVE",
"907.492 1344 CURVE SMOOTH",
"451.492 1344 OFFCURVE",
"103.946 1046 OFFCURVE",
"36.06 661 CURVE SMOOTH",
"-32.002 275 OFFCURVE",
"181.276 -24 OFFCURVE",
"666.276 -24 CURVE SMOOTH",
"775.276 -24 OFFCURVE",
"907.098 -8 OFFCURVE",
"974.682 18 CURVE",
"1043.097 406 LINE",
"1002.336 379 OFFCURVE",
"913.225 333 OFFCURVE",
"729.225 333 CURVE SMOOTH",
"510.225 333 OFFCURVE",
"406.382 470 OFFCURVE",
"440.06 661 CURVE SMOOTH",
"473.563 851 OFFCURVE",
"625.896 989 OFFCURVE",
"844.896 989 CURVE SMOOTH",
"1028.896 989 OFFCURVE",
"1100.903 938 OFFCURVE",
"1131.437 907 CURVE"
);
}
);
width = 1206;
},
{
anchors = (
{
name = bottom;
position = "{512, 0}";
},
{
name = top;
position = "{744, 1320}";
}
);
layerId = "B9A1D949-37EE-48C7-AA51-22036F480782";
name = ExtraLightItalic;
paths = (
{
closed = 1;
nodes = (
"1035.736 1283 LINE",
"988.907 1318 OFFCURVE",
"908.492 1344 OFFCURVE",
"772.492 1344 CURVE SMOOTH",
"407.492 1344 OFFCURVE",
"116.946 1046 OFFCURVE",
"49.06 661 CURVE SMOOTH",
"-19.002 275 OFFCURVE",
"138.276 -24 OFFCURVE",
"531.276 -24 CURVE SMOOTH",
"664.276 -24 OFFCURVE",
"772.977 14 OFFCURVE",
"817.443 45 CURVE",
"829.61 114 LINE",
"790.554 91 OFFCURVE",
"697.209 38 OFFCURVE",
"542.209 38 CURVE SMOOTH",
"254.209 38 OFFCURVE",
"46.469 272 OFFCURVE",
"115.06 661 CURVE SMOOTH",
"183.652 1050 OFFCURVE",
"488.559 1282 OFFCURVE",
"761.559 1282 CURVE SMOOTH",
"921.559 1282 OFFCURVE",
"995.743 1232 OFFCURVE",
"1023.393 1213 CURVE"
);
}
);
width = 1059;
}
);
leftKerningGroup = O;
rightKerningGroup = C;
},
{
glyphname = D;
layers = (
{
anchors = (
{
name = bottom;
position = "{468, 0}";
},
{
name = center;
position = "{370, 661}";
},
{
name = top;
position = "{700, 1320}";
}
);
layerId = "CA4C97A8-3BBB-4B31-B9EA-F36625F03808";
name = BlackItalic;
paths = (
{
closed = 1;
nodes = (
"-44.376 0 LINE",
"411.624 0 LINE SMOOTH",
"832.624 0 OFFCURVE",
"1094.114 275 OFFCURVE",
"1162.176 661 CURVE SMOOTH",
"1229.886 1045 OFFCURVE",
"1065.376 1320 OFFCURVE",
"644.376 1320 CURVE SMOOTH",
"188.376 1320 LINE"
);
},
{
closed = 1;
nodes = (
"549.248 979 LINE SMOOTH",
"715.248 979 OFFCURVE",
"781.386 838 OFFCURVE",
"749.824 659 CURVE SMOOTH",
"718.261 480 OFFCURVE",
"601.752 341 OFFCURVE",
"436.752 341 CURVE SMOOTH",
"402.752 341 LINE",
"515.248 979 LINE"
);
}
);
width = 1243;
},
{
anchors = (
{
name = bottom;
position = "{402, 0}";
},
{
name = center;
position = "{166, 661}";
},
{
name = top;
position = "{634, 1320}";
}
);
layerId = "B9A1D949-37EE-48C7-AA51-22036F480782";
name = ExtraLightItalic;
paths = (
{
closed = 1;
nodes = (
"6.624 0 LINE",
"245.624 0 LINE SMOOTH",
"669.624 0 OFFCURVE",
"900.114 275 OFFCURVE",
"968.176 661 CURVE SMOOTH",
"1035.886 1045 OFFCURVE",
"900.376 1320 OFFCURVE",
"478.376 1320 CURVE SMOOTH",
"239.376 1320 LINE"
);
},
{
closed = 1;
nodes = (
"463.091 1256 LINE SMOOTH",
"849.091 1256 OFFCURVE",
"967.362 1008 OFFCURVE",
"903.824 659 CURVE SMOOTH",
"840.286 310 OFFCURVE",
"635.909 64 OFFCURVE",
"252.909 64 CURVE SMOOTH",
"78.909 64 LINE",
"289.091 1256 LINE"
);
}
);
width = 1088;
}
);
leftKerningGroup = H;
rightKerningGroup = O;
unicode = 0044;
},
{
glyphname = E;
leftMetricsKey = H;
rightMetricsKey = H;
layers = (
{
anchors = (
{
name = bottom;
position = "{356, 0}";
},
{
name = ogonek;
position = "{756, 16}";
},
{
name = top;
position = "{588, 1320}";
},
{
name = topleft;
position = "{124, 1320}";
}
);
layerId = "CA4C97A8-3BBB-4B31-B9EA-F36625F03808";
name = BlackItalic;
paths = (
{
closed = 1;
nodes = (
"-52.376 0 LINE",
"833.624 0 LINE",
"892.87 336 LINE",
"393.87 336 LINE",
"422.611 499 LINE",
"921.611 499 LINE",
"978.918 824 LINE",
"479.918 824 LINE",
"508.13 984 LINE",
"1007.13 984 LINE",
"1066.376 1320 LINE",
"180.376 1320 LINE"
);
}
);
width = 1082;
},
{
anchors = (
{
name = bottom;
position = "{335, 0}";
},
{
name = ogonek;
position = "{728, 16}";
},
{
name = top;
position = "{623, 1320}";
},
{
name = topleft;
position = "{167, 1320}";
}
);
layerId = "B9A1D949-37EE-48C7-AA51-22036F480782";
name = ExtraLightItalic;
paths = (
{
closed = 1;
nodes = (
"17.624 0 LINE",
"745.624 0 LINE",
"756.909 64 LINE",
"89.909 64 LINE",
"189.71 630 LINE",
"837.71 630 LINE",
"848.995 694 LINE",
"200.995 694 LINE",
"300.091 1256 LINE",
"967.091 1256 LINE",
"978.376 1320 LINE",
"250.376 1320 LINE"
);
}
);
width = 1035;
}
);
leftKerningGroup = H;
rightKerningGroup = E;
unicode = 0045;
},
{
glyphname = F;
layers = (
{
anchors = (
{
name = bottom;
position = "{346, 0}";
},
{
name = top;
position = "{578, 1320}";
}
);
layerId = "CA4C97A8-3BBB-4B31-B9EA-F36625F03808";
name = BlackItalic;
paths = (
{
closed = 1;
nodes = (
"-38.376 0 LINE",
"349.624 0 LINE",
"436.73 494 LINE",
"828.73 494 LINE",
"887.799 829 LINE",
"495.799 829 LINE",
"523.13 984 LINE",
"950.13 984 LINE",
"1009.376 1320 LINE",
"194.376 1320 LINE"
);
}
);
width = 995;
},
{
anchors = (
{
name = bottom;
position = "{298, 0}";
},
{
name = top;
position = "{530, 1320}";
}
);
layerId = "B9A1D949-37EE-48C7-AA51-22036F480782";
name = ExtraLightItalic;
paths = (
{
closed = 1;
nodes = (
"9.624 0 LINE",
"70.624 0 LINE",
"181.71 630 LINE",
"709.71 630 LINE",
"720.995 694 LINE",
"192.995 694 LINE",
"292.091 1256 LINE",
"855.091 1256 LINE",
"866.376 1320 LINE",
"242.376 1320 LINE"
);
}
);
width = 867;
}
);
leftKerningGroup = H;
rightKerningGroup = F;
unicode = 0046;
},
{
glyphname = G;
leftMetricsKey = O;
rightMetricsKey = O;
layers = (
{
anchors = (
{
name = bottom;
position = "{647, 0}";
},
{
name = top;
position = "{847, 1320}";
}
);
layerId = "CA4C97A8-3BBB-4B31-B9EA-F36625F03808";
name = BlackItalic;
paths = (
{
closed = 1;
nodes = (
"689.971 462 LINE",
"927.971 462 LINE",
"900.16 378 OFFCURVE",
"811.107 338 OFFCURVE",
"672.107 338 CURVE SMOOTH",
"498.107 338 OFFCURVE",
"408.674 483 OFFCURVE",
"440.06 661 CURVE SMOOTH",
"471.27 838 OFFCURVE",
"612.014 984 OFFCURVE",
"786.014 984 CURVE SMOOTH",
"930.014 984 OFFCURVE",
"982.024 916 OFFCURVE",
"1007.739 852 CURVE",
"1409.362 1020 LINE",
"1360.99 1154 OFFCURVE",
"1234.492 1344 OFFCURVE",
"849.492 1344 CURVE SMOOTH",
"426.492 1344 OFFCURVE",
"103.946 1046 OFFCURVE",
"36.06 661 CURVE SMOOTH",
"-32.002 275 OFFCURVE",
"185.276 -24 OFFCURVE",
"608.276 -24 CURVE SMOOTH",
"1019.276 -24 OFFCURVE",
"1333.998 275 OFFCURVE",
"1402.06 661 CURVE SMOOTH",
"1418.106 752 LINE",
"741.106 752 LINE"
);
}
);
width = 1497;
},
{
anchors = (
{
name = bottom;
position = "{587, 0}";
},
{
name = top;
position = "{799, 1320}";
}
);
layerId = "B9A1D949-37EE-48C7-AA51-22036F480782";
name = ExtraLightItalic;
paths = (
{
closed = 1;
nodes = (
"653.829 637 LINE",
"1250.829 637 LINE",
"1181.522 312 OFFCURVE",
"898.561 40 OFFCURVE",
"573.561 40 CURVE SMOOTH",
"241.561 40 OFFCURVE",
"49.815 325 OFFCURVE",
"109.06 661 CURVE SMOOTH",
"168.306 997 OFFCURVE",
"460.207 1280 OFFCURVE",
"792.207 1280 CURVE SMOOTH",
"976.207 1280 OFFCURVE",
"1117.043 1194 OFFCURVE",
"1195.239 1059 CURVE",
"1248.292 1099 LINE",
"1161.564 1248 OFFCURVE",
"1003.492 1344 OFFCURVE",
"803.492 1344 CURVE SMOOTH",
"440.492 1344 OFFCURVE",
"110.125 1030 OFFCURVE",
"45.06 661 CURVE SMOOTH",
"-20.181 291 OFFCURVE",
"199.276 -24 OFFCURVE",
"562.276 -24 CURVE SMOOTH",
"918.276 -24 OFFCURVE",
"1251.527 278 OFFCURVE",
"1314.829 637 CURVE SMOOTH",
"1325.761 699 LINE",
"664.761 699 LINE"
);
}
);
width = 1404;
}
);
leftKerningGroup = O;
rightKerningGroup = O;
unicode = 0047;
},
{
glyphname = H;
layers = (
{
anchors = (
{
name = bottom;
position = "{449, -298}";
},
{
name = center;
position = "{671, 958}";
},
{
name = top;
position = "{734, 1320}";
},
{
name = topleft;
position = "{116, 1320}";
}
);
layerId = "CA4C97A8-3BBB-4B31-B9EA-F36625F03808";
name = BlackItalic;
paths = (
{
closed = 1;
nodes = (
"667.624 0 LINE",
"1053.624 0 LINE",
"1286.376 1320 LINE",
"900.376 1320 LINE",
"813.799 829 LINE",
"480.799 829 LINE",
"567.376 1320 LINE",
"180.376 1320 LINE",
"-52.376 0 LINE",
"334.624 0 LINE",
"421.73 494 LINE",
"754.73 494 LINE"
);
}
);
width = 1302;
},
{
anchors = (
{
name = bottom;
position = "{441, -165}";
},
{
name = center;
position = "{615, 826}";
},
{
name = top;
position = "{702, 1320}";
},
{
name = topleft;
position = "{234, 1320}";
}
);
layerId = "B9A1D949-37EE-48C7-AA51-22036F480782";
name = ExtraLightItalic;
paths = (
{
closed = 1;
nodes = (
"861.624 0 LINE",
"921.624 0 LINE",
"1154.376 1320 LINE",
"1094.376 1320 LINE",
"983.995 694 LINE",
"200.995 694 LINE",
"311.376 1320 LINE",
"250.376 1320 LINE",
"17.624 0 LINE",
"78.624 0 LINE",
"189.71 630 LINE",
"972.71 630 LINE"
);
}
);
width = 1211;
}
);
leftKerningGroup = H;
rightKerningGroup = H;
unicode = 0048;
},
{
glyphname = Hbar;
layers = (
{
components = (
{
name = H;
alignment = -1;
}
);
layerId = "CA4C97A8-3BBB-4B31-B9EA-F36625F03808";
name = BlackItalic;
paths = (
{
closed = 1;
nodes = (
"17.84 954 LINE",
"1309.84 954 LINE",
"1352.159 1194 LINE",
"60.159 1194 LINE"
);
}
);
width = 1302;
},
{
components = (
{
name = H;
alignment = -1;
}
);
layerId = "B9A1D949-37EE-48C7-AA51-22036F480782";
name = ExtraLightItalic;
paths = (
{
closed = 1;
nodes = (
"140.009 1006 LINE",
"1159.009 1006 LINE",
"1170.118 1069 LINE",
"151.118 1069 LINE"
);
}
);
width = 1211;
}
);
leftKerningGroup = H;
rightKerningGroup = H;
unicode = 0126;
},
{
glyphname = I;
layers = (
{
anchors = (
{
name = bottom;
position = "{150, 0}";
},
{
name = ogonek;
position = "{377, 16}";
},
{
name = top;
position = "{382, 1320}";
},
{
name = topleft;
position = "{132, 1320}";
}
);
layerId = "CA4C97A8-3BBB-4B31-B9EA-F36625F03808";
name = BlackItalic;
paths = (
{
closed = 1;
nodes = (
"-44.376 0 LINE",
"342.624 0 LINE",
"575.376 1320 LINE",
"188.376 1320 LINE"
);
}
);
width = 592;
},
{
anchors = (
{
name = bottom;
position = "{66, 0}";
},
{
name = ogonek;
position = "{185, 16}";
},
{
name = top;
position = "{298, 1320}";
},
{
name = topleft;
position = "{183, 1320}";
}
);
layerId = "B9A1D949-37EE-48C7-AA51-22036F480782";
name = ExtraLightItalic;
paths = (
{
closed = 1;
nodes = (
"35.624 0 LINE",
"99.624 0 LINE",
"332.376 1320 LINE",
"268.376 1320 LINE"
);
}
);
width = 405;
}
);
leftKerningGroup = H;
rightKerningGroup = H;
unicode = 0049;
},
{
glyphname = J;
layers = (
{
anchors = (
{
name = bottom;
position = "{300, 0}";
},
{
name = top;
position = "{660, 1320}";
}
);
layerId = "CA4C97A8-3BBB-4B31-B9EA-F36625F03808";
name = BlackItalic;
paths = (
{
closed = 1;
nodes = (
"846.376 1320 LINE",
"458.376 1320 LINE",
"312.553 493 LINE SMOOTH",
"289.102 360 OFFCURVE",
"211.339 350 OFFCURVE",
"164.339 350 CURVE SMOOTH",
"118.339 350 OFFCURVE",
"69.863 387 OFFCURVE",
"50.505 419 CURVE",
"-146.917 82 LINE",
"-132.149 58 OFFCURVE",
"-19.608 -24 OFFCURVE",
"159.392 -24 CURVE SMOOTH",
"423.392 -24 OFFCURVE",
"637.252 134 OFFCURVE",
"685.918 410 CURVE SMOOTH"
);
}
);
width = 850;
},
{
anchors = (
{
name = bottom;
position = "{252, 0}";
},
{
name = top;
position = "{698, 1320}";
}
);
layerId = "B9A1D949-37EE-48C7-AA51-22036F480782";
name = ExtraLightItalic;
paths = (
{
closed = 1;
nodes = (
"730.376 1320 LINE",
"668.376 1320 LINE",
"503.686 386 LINE SMOOTH",
"471.419 203 OFFCURVE",
"386.325 38 OFFCURVE",
"180.325 38 CURVE SMOOTH",
"7.325 38 OFFCURVE",
"-37.277 131 OFFCURVE",
"-49.4 170 CURVE",
"-101.569 118 LINE",
"-91.741 83 OFFCURVE",
"-27.608 -24 OFFCURVE",
"169.392 -24 CURVE SMOOTH",
"401.392 -24 OFFCURVE",
"521.957 138 OFFCURVE",
"567.626 397 CURVE SMOOTH"
);
}
);
width = 742;
}
);
leftKerningGroup = J;
rightKerningGroup = J;
unicode = 004A;
},
{
glyphname = K;
layers = (
{
anchors = (
{
name = bottom;
position = "{502, 0}";
},
{
name = top;
position = "{734, 1320}";
}
);
layerId = "CA4C97A8-3BBB-4B31-B9EA-F36625F03808";
name = BlackItalic;
paths = (
{
closed = 1;
nodes = (
"1281.376 1320 LINE",
"846.376 1320 LINE",
"444.918 824 LINE",
"532.376 1320 LINE",
"145.376 1320 LINE",
"-87.376 0 LINE",
"299.624 0 LINE",
"397.486 555 LINE",
"646.624 0 LINE",
"1107.624 0 LINE",
"754.819 693 LINE"
);
}
);
width = 1258;
},
{
anchors = (
{
name = bottom;
position = "{342, 0}";
},
{
name = top;
position = "{574, 1320}";
}
);
layerId = "B9A1D949-37EE-48C7-AA51-22036F480782";
name = ExtraLightItalic;
paths = (
{
closed = 1;
nodes = (
"940.376 1320 LINE",
"863.376 1320 LINE",
"214.176 661 LINE",
"330.376 1320 LINE",
"266.376 1320 LINE",
"33.624 0 LINE",
"97.624 0 LINE",
"209.944 637 LINE",
"661.624 0 LINE",
"739.624 0 LINE",
"283.942 654 LINE"
);
}
);
width = 890;
}
);
leftKerningGroup = H;
rightKerningGroup = K;
unicode = 004B;
},
{
glyphname = L;
layers = (
{
anchors = (
{
name = bottom;
position = "{382, 0}";
},
{
name = center;
position = "{288, 958}";
},
{
name = top;
position = "{577, 1320}";
},
{
name = topright;
position = "{1022, 1320}";
}
);
layerId = "CA4C97A8-3BBB-4B31-B9EA-F36625F03808";
name = BlackItalic;
paths = (
{
closed = 1;
nodes = (
"-38.376 0 LINE",
"800.624 0 LINE",
"859.87 336 LINE",
"408.87 336 LINE",
"582.376 1320 LINE",
"194.376 1320 LINE"
);
}
);
width = 1024;
},
{
anchors = (
{
name = bottom;
position = "{318, 0}";
},
{
name = center;
position = "{160, 826}";
},
{
name = top;
position = "{529, 1320}";
},
{
name = topright;
position = "{879, 1320}";
}
);
layerId = "B9A1D949-37EE-48C7-AA51-22036F480782";
name = ExtraLightItalic;
paths = (
{
closed = 1;
nodes = (
"9.624 0 LINE",
"625.624 0 LINE",
"636.909 64 LINE",
"83.909 64 LINE",
"305.376 1320 LINE",
"242.376 1320 LINE"
);
}
);
width = 864;
}
);
leftKerningGroup = H;
rightKerningGroup = L;
unicode = 004C;
},
{
glyphname = Lslash;
layers = (
{
layerId = "CA4C97A8-3BBB-4B31-B9EA-F36625F03808";
name = BlackItalic;
paths = (
{
closed = 1;
nodes = (
"819.624 0 LINE",
"878.87 336 LINE",
"460.87 336 LINE",
"532.282 741 LINE",
"744.203 888 LINE",
"796.395 1184 LINE",
"584.123 1035 LINE",
"634.376 1320 LINE",
"247.376 1320 LINE",
"143.519 731 LINE",
"16.355 645 LINE",
"-35.661 350 LINE",
"91.326 435 LINE",
"14.624 0 LINE"
);
}
);
width = 1050;
},
{
layerId = "B9A1D949-37EE-48C7-AA51-22036F480782";
name = ExtraLightItalic;
paths = (
{
closed = 1;
nodes = (
"707.624 0 LINE",
"718.909 64 LINE",
"164.909 64 LINE",
"278.111 706 LINE",
"410.157 797 LINE",
"428.495 901 LINE",
"296.449 810 LINE",
"386.376 1320 LINE",
"326.376 1320 LINE",
"228.162 763 LINE",
"56.355 645 LINE",
"38.017 541 LINE",
"209.824 659 LINE",
"93.624 0 LINE"
);
}
);
width = 944;
}
);
leftKerningGroup = H;
rightKerningGroup = L;
unicode = 0141;
},
{
glyphname = M;
layers = (
{
anchors = (
{
name = bottom;
position = "{732, 0}";
},
{
name = top;
position = "{964, 1320}";
}
);
layerId = "CA4C97A8-3BBB-4B31-B9EA-F36625F03808";
name = BlackItalic;
paths = (
{
closed = 1;
nodes = (
"1178.376 1320 LINE",
"842.075 547 LINE",
"796.976 416 LINE",
"798.075 547 LINE",
"734.376 1320 LINE",
"180.376 1320 LINE",
"-52.376 0 LINE",
"334.624 0 LINE",
"450.295 656 LINE",
"482.256 928 LINE",
"487.36 611 LINE",
"556.194 128 LINE",
"935.194 128 LINE",
"1175.36 611 LINE",
"1292.256 928 LINE",
"1228.295 656 LINE",
"1112.624 0 LINE",
"1499.624 0 LINE",
"1732.376 1320 LINE"
);
}
);
width = 1760;
},
{
anchors = (
{
name = bottom;
position = "{530, 0}";
},
{
name = top;
position = "{762, 1320}";
}
);
layerId = "B9A1D949-37EE-48C7-AA51-22036F480782";
name = ExtraLightItalic;
paths = (
{
closed = 1;
nodes = (
"1204.376 1320 LINE",
"556.426 152 LINE",
"542.254 117 LINE",
"540.426 152 LINE",
"306.376 1320 LINE",
"242.376 1320 LINE",
"9.624 0 LINE",
"72.624 0 LINE",
"266.76 1101 LINE",
"276.395 1184 LINE",
"283.76 1101 LINE",
"498.088 48 LINE",
"562.088 48 LINE",
"1147.76 1101 LINE",
"1185.395 1184 LINE",
"1165.76 1101 LINE",
"971.624 0 LINE",
"1033.624 0 LINE",
"1266.376 1320 LINE"
);
}
);
width = 1333;
}
);
leftKerningGroup = M;
rightKerningGroup = M;
unicode = 004D;
},
{
glyphname = N;
leftMetricsKey = H;
rightMetricsKey = H;
layers = (
{
anchors = (
{
name = bottom;
position = "{604, 0}";
},
{
name = top;
position = "{836, 1320}";
}
);
layerId = "CA4C97A8-3BBB-4B31-B9EA-F36625F03808";
name = BlackItalic;
paths = (
{
closed = 1;
nodes = (
"733.624 0 LINE",
"1259.624 0 LINE",
"1492.376 1320 LINE",
"1105.376 1320 LINE",
"935.044 354 LINE",
"965.102 360 LINE",
"703.376 1320 LINE",
"180.376 1320 LINE",
"-52.376 0 LINE",
"334.624 0 LINE",
"504.427 963 LINE",
"476.309 968 LINE"
);
}
);
width = 1508;
},
{
anchors = (
{
name = bottom;
position = "{545, 0}";
},
{
name = top;
position = "{777, 1320}";
}
);
layerId = "B9A1D949-37EE-48C7-AA51-22036F480782";
name = ExtraLightItalic;
paths = (
{
closed = 1;
nodes = (
"889.624 0 LINE",
"990.624 0 LINE",
"1223.376 1320 LINE",
"1161.376 1320 LINE",
"940.438 67 LINE",
"941.438 67 LINE",
"351.376 1320 LINE",
"250.376 1320 LINE",
"17.624 0 LINE",
"80.624 0 LINE",
"301.562 1253 LINE",
"299.562 1253 LINE"
);
}
);
width = 1280;
}
);
leftKerningGroup = H;
rightKerningGroup = H;
unicode = 004E;
},
{
glyphname = Eng;
layers = (
{
components = (
{
name = N;
alignment = -1;
}
);
layerId = "CA4C97A8-3BBB-4B31-B9EA-F36625F03808";
name = BlackItalic;
paths = (
{
closed = 1;
nodes = (
"1255.392 -24 LINE SMOOTH",
"1220.48 -222 OFFCURVE",
"1084.04 -440 OFFCURVE",
"825.04 -440 CURVE SMOOTH",
"667.04 -440 OFFCURVE",
"591.212 -405 OFFCURVE",
"541.444 -381 CURVE",
"715.518 -80 LINE",
"732.107 -88 OFFCURVE",
"760.344 -98 OFFCURVE",
"778.344 -98 CURVE SMOOTH",
"808.344 -98 OFFCURVE",
"842.871 -78 OFFCURVE",
"849.571 -40 CURVE SMOOTH",
"856.624 0 LINE",
"1259.624 0 LINE"
);
}
);
width = 1509;
},
{
components = (
{
name = N;
alignment = -1;
}
);
layerId = "B9A1D949-37EE-48C7-AA51-22036F480782";
name = ExtraLightItalic;
paths = (
{
closed = 1;
nodes = (
"982.513 -46 LINE SMOOTH",
"940.9 -282 OFFCURVE",
"837.862 -424 OFFCURVE",
"685.862 -424 CURVE SMOOTH",
"616.862 -424 OFFCURVE",
"546.033 -389 OFFCURVE",
"538.267 -382 CURVE",
"587.789 -328 LINE",
"604.32 -342 OFFCURVE",
"646.146 -360 OFFCURVE",
"700.146 -360 CURVE SMOOTH",
"818.146 -360 OFFCURVE",
"886.777 -243 OFFCURVE",
"922.571 -40 CURVE SMOOTH",
"929.624 0 LINE",
"990.624 0 LINE"
);
}
);
width = 1280;
}
);
leftKerningGroup = Eng;
rightKerningGroup = Eng;
unicode = 014A;
},
{
glyphname = O;
layers = (
{
anchors = (
{
name = bottom;
position = "{560, -298}";
},
{
name = center;
position = "{781, 958}";
},
{
name = ogonek;
position = "{905, 16}";
},
{
name = top;
position = "{845, 1320}";
},
{
name = topleft;
position = "{154, 1320}";
},
{
name = topright;
position = "{1231, 1197}";
}
);
layerId = "CA4C97A8-3BBB-4B31-B9EA-F36625F03808";
name = BlackItalic;
paths = (
{
closed = 1;
nodes = (
"471.27 838 OFFCURVE",
"612.014 984 OFFCURVE",
"786.014 984 CURVE SMOOTH",
"961.014 984 OFFCURVE",
"1050.27 838 OFFCURVE",
"1019.06 661 CURVE SMOOTH",
"987.674 483 OFFCURVE",
"847.107 338 OFFCURVE",
"672.107 338 CURVE SMOOTH",
"498.107 338 OFFCURVE",
"408.674 483 OFFCURVE",
"440.06 661 CURVE SMOOTH"
);
},
{
closed = 1;
nodes = (
"-32.002 275 OFFCURVE",
"187.276 -24 OFFCURVE",
"608.276 -24 CURVE SMOOTH",
"1019.276 -24 OFFCURVE",
"1353.998 275 OFFCURVE",
"1422.06 661 CURVE SMOOTH",
"1489.946 1046 OFFCURVE",
"1248.492 1344 OFFCURVE",
"849.492 1344 CURVE SMOOTH",
"456.492 1344 OFFCURVE",
"103.946 1046 OFFCURVE",
"36.06 661 CURVE SMOOTH"
);
}
);
width = 1512;
},
{
anchors = (
{
name = bottom;
position = "{538, -165}";
},
{
name = center;
position = "{713, 826}";
},
{
name = ogonek;
position = "{905, 16}";
},
{
name = top;
position = "{800, 1320}";
},
{
name = topleft;
position = "{189, 1320}";
},
{
name = topright;
position = "{1168, 1202}";
}
);
layerId = "B9A1D949-37EE-48C7-AA51-22036F480782";
name = ExtraLightItalic;
paths = (
{
closed = 1;
nodes = (
"172.128 1013 OFFCURVE",
"461.207 1280 OFFCURVE",
"793.207 1280 CURVE SMOOTH",
"1126.207 1280 OFFCURVE",
"1318.128 1013 OFFCURVE",
"1256.06 661 CURVE SMOOTH",
"1193.993 309 OFFCURVE",
"907.561 40 OFFCURVE",
"574.561 40 CURVE SMOOTH",
"242.561 40 OFFCURVE",
"47.993 309 OFFCURVE",
"110.06 661 CURVE SMOOTH"
);
},
{
closed = 1;
nodes = (
"-22.002 275 OFFCURVE",
"200.276 -24 OFFCURVE",
"563.276 -24 CURVE SMOOTH",
"927.276 -24 OFFCURVE",
"1251.998 275 OFFCURVE",
"1320.06 661 CURVE SMOOTH",
"1387.946 1046 OFFCURVE",
"1168.492 1344 OFFCURVE",
"804.492 1344 CURVE SMOOTH",
"441.492 1344 OFFCURVE",
"113.946 1046 OFFCURVE",
"46.06 661 CURVE SMOOTH"
);
}
);
width = 1411;
}
);
leftKerningGroup = O;
rightKerningGroup = O;
unicode = 004F;
},
{
glyphname = Oslash;
layers = (
{
components = (
{
name = O;
alignment = -1;
}
);
layerId = "CA4C97A8-3BBB-4B31-B9EA-F36625F03808";
name = BlackItalic;
paths = (
{
closed = 1;
nodes = (
"-128.051 29 LINE",
"-20.152 -85 LINE",
"1532.063 1283 LINE",
"1424.164 1397 LINE"
);
}
);
width = 1491;
},
{
components = (
{
name = O;
alignment = -1;
}
);
layerId = "B9A1D949-37EE-48C7-AA51-22036F480782";
name = ExtraLightItalic;
paths = (
{
closed = 1;
nodes = (
"-90.789 21 LINE",
"-53.195 -21 LINE",
"1442.738 1266 LINE",
"1404.968 1307 LINE"
);
}
);
width = 1379;
}
);
leftKerningGroup = O;
rightKerningGroup = O;
unicode = 00D8;
},
{
glyphname = OE;
layers = (
{
anchors = (
{
name = bottom;
position = "{700, 0}";
},
{
name = top;
position = "{932, 1320}";
}
);
layerId = "CA4C97A8-3BBB-4B31-B9EA-F36625F03808";
name = BlackItalic;
paths = (
{
closed = 1;
nodes = (
"1464.624 0 LINE",
"1523.87 336 LINE",
"1118.87 336 LINE",
"1146.73 494 LINE",
"1532.73 494 LINE",
"1591.799 829 LINE",
"1205.799 829 LINE",
"1233.13 984 LINE",
"1638.13 984 LINE",
"1697.376 1320 LINE",
"817.376 1320 LINE SMOOTH",
"454.376 1320 OFFCURVE",
"80.886 1045 OFFCURVE",
"12.824 659 CURVE SMOOTH",
"-55.062 274 OFFCURVE",
"232.624 0 OFFCURVE",
"584.624 0 CURVE SMOOTH"
);
},
{
closed = 1;
nodes = (
"694.633 346 LINE SMOOTH",
"517.633 346 OFFCURVE",
"400.261 480 OFFCURVE",
"432.176 661 CURVE SMOOTH",
"463.386 838 OFFCURVE",
"621.367 974 OFFCURVE",
"805.367 974 CURVE SMOOTH",
"844.367 974 LINE",
"733.633 346 LINE"
);
}
);
width = 1704;
},
{
anchors = (
{
name = bottom;
position = "{636, 0}";
},
{
name = top;
position = "{868, 1320}";
}
);
layerId = "B9A1D949-37EE-48C7-AA51-22036F480782";
name = ExtraLightItalic;
paths = (
{
closed = 1;
nodes = (
"1273.624 0 LINE",
"1284.909 64 LINE",
"691.909 64 LINE",
"791.71 630 LINE",
"1365.71 630 LINE",
"1376.995 694 LINE",
"802.995 694 LINE",
"902.091 1256 LINE",
"1495.091 1256 LINE",
"1506.376 1320 LINE",
"793.376 1320 LINE SMOOTH",
"430.376 1320 OFFCURVE",
"138.062 1046 OFFCURVE",
"70.176 661 CURVE SMOOTH",
"2.114 275 OFFCURVE",
"163.624 0 OFFCURVE",
"560.624 0 CURVE SMOOTH"
);
},
{
closed = 1;
nodes = (
"560.851 58 LINE SMOOTH",
"208.851 58 OFFCURVE",
"77.812 330 OFFCURVE",
"136.176 661 CURVE SMOOTH",
"194.541 992 OFFCURVE",
"439.854 1266 OFFCURVE",
"773.854 1266 CURVE SMOOTH",
"842.854 1266 LINE",
"629.851 58 LINE"
);
}
);
width = 1542;
}
);
leftKerningGroup = O;
rightKerningGroup = E;
unicode = 0152;
},
{
glyphname = P;
layers = (
{
anchors = (
{
name = bottom;
position = "{425, 0}";
},
{
name = top;
position = "{657, 1320}";
}
);
layerId = "CA4C97A8-3BBB-4B31-B9EA-F36625F03808";
name = BlackItalic;
paths = (
{
closed = 1;
nodes = (
"-55.376 0 LINE",
"331.624 0 LINE",
"414.322 469 LINE",
"580.322 469 LINE SMOOTH",
"838.322 469 OFFCURVE",
"1069.415 634 OFFCURVE",
"1117.024 904 CURVE SMOOTH",
"1164.632 1174 OFFCURVE",
"988.376 1320 OFFCURVE",
"730.376 1320 CURVE SMOOTH",
"177.376 1320 LINE"
);
},
{
closed = 1;
nodes = (
"511.301 1019 LINE",
"569.301 1019 LINE SMOOTH",
"657.301 1019 OFFCURVE",
"715.777 982 OFFCURVE",
"700.261 894 CURVE SMOOTH",
"684.744 806 OFFCURVE",
"613.396 770 OFFCURVE",
"525.396 770 CURVE SMOOTH",
"467.396 770 LINE"
);
}
);
width = 1154;
},
{
anchors = (
{
name = bottom;
position = "{353, 0}";
},
{
name = top;
position = "{585, 1320}";
}
);
layerId = "B9A1D949-37EE-48C7-AA51-22036F480782";
name = ExtraLightItalic;
paths = (
{
closed = 1;
nodes = (
"33.624 0 LINE",
"96.624 0 LINE",
"193.604 550 LINE",
"414.604 550 LINE SMOOTH",
"655.604 550 OFFCURVE",
"867.058 666 OFFCURVE",
"915.724 942 CURVE SMOOTH",
"964.567 1219 OFFCURVE",
"791.376 1320 OFFCURVE",
"550.376 1320 CURVE SMOOTH",
"266.376 1320 LINE"
);
},
{
closed = 1;
nodes = (
"318.091 1256 LINE",
"523.091 1256 LINE SMOOTH",
"732.091 1256 OFFCURVE",
"894.924 1187 OFFCURVE",
"851.724 942 CURVE SMOOTH",
"808.7 698 OFFCURVE",
"618.889 614 OFFCURVE",
"409.889 614 CURVE SMOOTH",
"204.889 614 LINE"
);
}
);
width = 978;
}
);
leftKerningGroup = H;
rightKerningGroup = P;
unicode = 0050;
},
{
glyphname = Thorn;
layers = (
{
layerId = "CA4C97A8-3BBB-4B31-B9EA-F36625F03808";
name = BlackItalic;
paths = (
{
closed = 1;
nodes = (
"-52.376 0 LINE",
"334.624 0 LINE",
"377.824 245 LINE",
"536.824 245 LINE SMOOTH",
"793.824 245 OFFCURVE",
"1030.626 397 OFFCURVE",
"1078.587 669 CURVE SMOOTH",
"1126.724 942 OFFCURVE",
"940.176 1075 OFFCURVE",
"683.176 1075 CURVE SMOOTH",
"524.176 1075 LINE",
"567.376 1320 LINE",
"180.376 1320 LINE"
);
},
{
closed = 1;
nodes = (
"471.101 774 LINE",
"548.101 774 LINE SMOOTH",
"620.101 774 OFFCURVE",
"664.93 739 OFFCURVE",
"651.353 662 CURVE SMOOTH",
"637.952 586 OFFCURVE",
"579.899 546 OFFCURVE",
"507.899 546 CURVE SMOOTH",
"430.899 546 LINE"
);
}
);
width = 1154;
},
{
layerId = "B9A1D949-37EE-48C7-AA51-22036F480782";
name = ExtraLightItalic;
paths = (
{
closed = 1;
nodes = (
"17.624 0 LINE",
"78.624 0 LINE",
"121.824 245 LINE",
"411.824 245 LINE SMOOTH",
"635.824 245 OFFCURVE",
"817.626 397 OFFCURVE",
"865.587 669 CURVE SMOOTH",
"913.724 942 OFFCURVE",
"782.176 1075 OFFCURVE",
"558.176 1075 CURVE SMOOTH",
"268.176 1075 LINE",
"311.376 1320 LINE",
"250.376 1320 LINE"
);
},
{
closed = 1;
nodes = (
"257.243 1013 LINE",
"542.243 1013 LINE SMOOTH",
"740.243 1013 OFFCURVE",
"846.376 906 OFFCURVE",
"805.116 672 CURVE SMOOTH",
"763.855 438 OFFCURVE",
"615.757 307 OFFCURVE",
"417.757 307 CURVE SMOOTH",
"132.757 307 LINE"
);
}
);
width = 962;
}
);
leftKerningGroup = H;
rightKerningGroup = Thorn;
unicode = 00DE;
},
{
glyphname = Q;
layers = (
{
components = (
{
name = O;
alignment = -1;
}
);
layerId = "CA4C97A8-3BBB-4B31-B9EA-F36625F03808";
name = BlackItalic;
paths = (
{
closed = 1;
nodes = (
"831.629 -22 OFFCURVE",
"762.503 34 OFFCURVE",
"588.503 34 CURVE SMOOTH",
"393.503 34 OFFCURVE",
"215.926 -43 OFFCURVE",
"117.588 -147 CURVE",
"235.202 -325 LINE",
"239.436 -318 OFFCURVE",
"327.721 -254 OFFCURVE",
"452.721 -254 CURVE SMOOTH",
"670.721 -254 OFFCURVE",
"690.562 -374 OFFCURVE",
"895.562 -374 CURVE SMOOTH",
"1061.562 -374 OFFCURVE",
"1198.373 -290 OFFCURVE",
"1258.185 -206 CURVE",
"1179.914 42 LINE",
"1169.622 29 OFFCURVE",
"1063.629 -22 OFFCURVE",
"952.629 -22 CURVE SMOOTH"
);
}
);
width = 1491;
},
{
components = (
{
name = O;
alignment = -1;
}
);
layerId = "B9A1D949-37EE-48C7-AA51-22036F480782";
name = ExtraLightItalic;
paths = (
{
closed = 1;
nodes = (
"783.639 -90 OFFCURVE",
"703.508 0 OFFCURVE",
"556.508 0 CURVE SMOOTH",
"439.508 0 OFFCURVE",
"358.926 -43 OFFCURVE",
"259.289 -109 CURVE",
"300.414 -165 LINE",
"307.649 -158 OFFCURVE",
"420.223 -64 OFFCURVE",
"542.223 -64 CURVE SMOOTH",
"689.223 -64 OFFCURVE",
"736.825 -157 OFFCURVE",
"912.825 -157 CURVE SMOOTH",
"1050.825 -157 OFFCURVE",
"1131.112 -110 OFFCURVE",
"1161.11 -93 CURVE",
"1125.513 -34 LINE",
"1119.455 -40 OFFCURVE",
"1044.639 -90 OFFCURVE",
"929.639 -90 CURVE SMOOTH"
);
}
);
width = 1379;
}
);
leftKerningGroup = O;
rightKerningGroup = O;
unicode = 0051;
},
{
glyphname = Q.ss01;
layers = (
{
anchors = (
{
name = bottom;
position = "{592, 0}";
},
{
name = top;
position = "{824, 1320}";
}
);
components = (
{
name = O;
alignment = -1;
}
);
layerId = "CA4C97A8-3BBB-4B31-B9EA-F36625F03808";
name = BlackItalic;
paths = (
{
closed = 1;
nodes = (
"876.238 -166 LINE",
"1290.238 -166 LINE",
"1034.795 461 LINE",
"620.795 461 LINE"
);
}
);
width = 1488;
},
{
anchors = (
{
name = bottom;
position = "{551, 0}";
},
{
name = top;
position = "{783, 1320}";
}
);
components = (
{
name = O;
alignment = -1;
}
);
layerId = "B9A1D949-37EE-48C7-AA51-22036F480782";
name = ExtraLightItalic;
paths = (
{
closed = 1;
nodes = (
"970.238 -166 LINE",
"1046.238 -166 LINE",
"789.795 461 LINE",
"714.795 461 LINE"
);
}
);
width = 1376;
}
);
leftKerningGroup = O;
rightKerningGroup = O;
},
{
glyphname = Q.ss02;
layers = (
{
anchors = (
{
name = bottom;
position = "{589, 0}";
},
{
name = top;
position = "{821, 1320}";
}
);
layerId = "CA4C97A8-3BBB-4B31-B9EA-F36625F03808";
name = BlackItalic;
paths = (
{
closed = 1;
nodes = (
"698.276 -24 OFFCURVE",
"820.861 2 OFFCURVE",
"931.383 56 CURVE",
"972.682 18 OFFCURVE",
"1045.513 -34 OFFCURVE",
"1152.049 -82 CURVE",
"1382.059 264 LINE",
"1262.583 301 OFFCURVE",
"1252.993 309 OFFCURVE",
"1228.404 317 CURVE",
"1300.86 416 OFFCURVE",
"1354.491 533 OFFCURVE",
"1377.06 661 CURVE SMOOTH",
"1444.946 1046 OFFCURVE",
"1188.492 1344 OFFCURVE",
"822.492 1344 CURVE SMOOTH",
"460.492 1344 OFFCURVE",
"94.946 1046 OFFCURVE",
"27.06 661 CURVE SMOOTH",
"-41.002 275 OFFCURVE",
"192.276 -24 OFFCURVE",
"581.276 -24 CURVE SMOOTH"
);
},
{
closed = 1;
nodes = (
"441.278 373 OFFCURVE",
"420.317 515 OFFCURVE",
"446.06 661 CURVE SMOOTH",
"471.628 806 OFFCURVE",
"557.843 949 OFFCURVE",
"752.843 949 CURVE SMOOTH",
"950.843 949 OFFCURVE",
"983.628 806 OFFCURVE",
"958.06 661 CURVE SMOOTH",
"948.715 608 OFFCURVE",
"934.37 555 OFFCURVE",
"908.906 507 CURVE",
"773.773 614 OFFCURVE",
"705.874 728 OFFCURVE",
"733.879 694 CURVE",
"538.614 494 LINE",
"544.264 475 OFFCURVE",
"578.921 405 OFFCURVE",
"632.344 328 CURVE",
"630.104 355 OFFCURVE",
"640.278 373 OFFCURVE",
"651.278 373 CURVE"
);
}
);
width = 1490;
},
{
anchors = (
{
name = bottom;
position = "{565, 0}";
},
{
name = top;
position = "{797, 1320}";
}
);
layerId = "B9A1D949-37EE-48C7-AA51-22036F480782";
name = ExtraLightItalic;
paths = (
{
closed = 1;
nodes = (
"731.276 -24 OFFCURVE",
"895.972 48 OFFCURVE",
"1024.779 166 CURVE",
"1107.786 115 OFFCURVE",
"1186.143 83 OFFCURVE",
"1240.851 70 CURVE",
"1281.196 123 LINE",
"1243.431 130 OFFCURVE",
"1161.131 168 OFFCURVE",
"1069.124 219 CURVE",
"1165.872 331 OFFCURVE",
"1242.027 485 OFFCURVE",
"1273.06 661 CURVE SMOOTH",
"1340.946 1046 OFFCURVE",
"1152.492 1344 OFFCURVE",
"787.492 1344 CURVE SMOOTH",
"424.492 1344 OFFCURVE",
"126.946 1046 OFFCURVE",
"59.06 661 CURVE SMOOTH",
"-9.002 275 OFFCURVE",
"155.276 -24 OFFCURVE",
"546.276 -24 CURVE SMOOTH"
);
},
{
closed = 1;
nodes = (
"210.561 40 OFFCURVE",
"64.815 325 OFFCURVE",
"124.06 661 CURVE SMOOTH",
"183.306 997 OFFCURVE",
"443.207 1280 OFFCURVE",
"776.207 1280 CURVE SMOOTH",
"1109.207 1280 OFFCURVE",
"1267.306 997 OFFCURVE",
"1208.06 661 CURVE SMOOTH",
"1180.377 504 OFFCURVE",
"1110.986 360 OFFCURVE",
"1017.119 253 CURVE",
"944.23 299 OFFCURVE",
"859.986 360 OFFCURVE",
"785.561 454 CURVE",
"736.921 405 LINE",
"801.933 320 OFFCURVE",
"881.295 254 OFFCURVE",
"968.892 195 CURVE",
"852.554 91 OFFCURVE",
"701.561 40 OFFCURVE",
"557.561 40 CURVE SMOOTH"
);
}
);
width = 1405;
}
);
leftKerningGroup = Q.ss02;
rightKerningGroup = Q.ss02;
},
{
glyphname = R;
layers = (
{
anchors = (
{
name = bottom;
position = "{465, 0}";
},
{
name = top;
position = "{697, 1320}";
}
);
layerId = "CA4C97A8-3BBB-4B31-B9EA-F36625F03808";
name = BlackItalic;
paths = (
{
closed = 1;
nodes = (
"-62.376 0 LINE",
"325.624 0 LINE",
"413.964 501 LINE",
"387.964 501 LINE",
"571.624 0 LINE",
"1005.624 0 LINE",
"783.254 531 LINE",
"884.957 552 OFFCURVE",
"1052.237 650 OFFCURVE",
"1097.024 904 CURVE SMOOTH",
"1142.163 1160 OFFCURVE",
"1002.376 1320 OFFCURVE",
"762.376 1320 CURVE SMOOTH",
"170.376 1320 LINE"
);
},
{
closed = 1;
nodes = (
"505.301 1019 LINE",
"572.301 1019 LINE SMOOTH",
"642.301 1019 OFFCURVE",
"715.07 995 OFFCURVE",
"696.732 891 CURVE SMOOTH",
"678.394 787 OFFCURVE",
"594.162 763 OFFCURVE",
"524.162 763 CURVE SMOOTH",
"460.162 763 LINE"
);
}
);
width = 1234;
},
{
anchors = (
{
name = bottom;
position = "{364, 0}";
},
{
name = top;
position = "{596, 1320}";
}
);
layerId = "B9A1D949-37EE-48C7-AA51-22036F480782";
name = ExtraLightItalic;
paths = (
{
closed = 1;
nodes = (
"21.624 0 LINE",
"83.624 0 LINE",
"186.952 586 LINE",
"519.952 586 LINE",
"739.624 0 LINE",
"813.624 0 LINE",
"584.657 590 LINE",
"709.657 590 OFFCURVE",
"919.522 714 OFFCURVE",
"961.84 954 CURVE SMOOTH",
"1004.159 1194 OFFCURVE",
"850.376 1320 OFFCURVE",
"650.376 1320 CURVE SMOOTH",
"254.376 1320 LINE"
);
},
{
closed = 1;
nodes = (
"305.091 1256 LINE",
"619.091 1256 LINE SMOOTH",
"819.091 1256 OFFCURVE",
"934.516 1162 OFFCURVE",
"897.84 954 CURVE SMOOTH",
"861.164 746 OFFCURVE",
"711.531 646 OFFCURVE",
"511.531 646 CURVE SMOOTH",
"197.531 646 LINE"
);
}
);
width = 1046;
}
);
leftKerningGroup = H;
rightKerningGroup = R;
unicode = 0052;
},
{
glyphname = S;
layers = (
{
anchors = (
{
name = bottom;
position = "{428, 0}";
},
{
name = top;
position = "{660, 1320}";
}
);
layerId = "CA4C97A8-3BBB-4B31-B9EA-F36625F03808";
name = BlackItalic;
paths = (
{
closed = 1;
nodes = (
"468.492 1344 OFFCURVE",
"210.748 1198 OFFCURVE",
"167.901 955 CURVE SMOOTH",
"125.406 714 OFFCURVE",
"270.186 605 OFFCURVE",
"427.43 544 CURVE SMOOTH",
"590.498 482 OFFCURVE",
"629.503 448 OFFCURVE",
"621.039 400 CURVE SMOOTH",
"613.104 355 OFFCURVE",
"569.696 330 OFFCURVE",
"485.696 330 CURVE SMOOTH",
"360.696 330 OFFCURVE",
"187.329 430 OFFCURVE",
"163.561 454 CURVE",
"-82.393 131 LINE",
"-56.035 99 OFFCURVE",
"128.276 -24 OFFCURVE",
"423.276 -24 CURVE SMOOTH",
"679.276 -24 OFFCURVE",
"969.025 88 OFFCURVE",
"1020.865 382 CURVE SMOOTH",
"1059.833 603 OFFCURVE",
"936.403 731 OFFCURVE",
"744.217 798 CURVE SMOOTH",
"594.563 851 OFFCURVE",
"551.205 883 OFFCURVE",
"559.669 931 CURVE SMOOTH",
"567.956 978 OFFCURVE",
"622.954 995 OFFCURVE",
"693.954 995 CURVE SMOOTH",
"782.954 995 OFFCURVE",
"888.492 930 OFFCURVE",
"916.261 906 CURVE",
"1153.922 1216 LINE",
"1128.801 1238 OFFCURVE",
"968.492 1344 OFFCURVE",
"712.492 1344 CURVE SMOOTH"
);
}
);
width = 1163;
},
{
anchors = (
{
name = bottom;
position = "{364, 0}";
},
{
name = top;
position = "{596, 1320}";
}
);
layerId = "B9A1D949-37EE-48C7-AA51-22036F480782";
name = ExtraLightItalic;
paths = (
{
closed = 1;
nodes = (
"390.492 1344 OFFCURVE",
"211.451 1219 OFFCURVE",
"182.181 1053 CURVE SMOOTH",
"151.676 880 OFFCURVE",
"279.807 790 OFFCURVE",
"450.761 699 CURVE SMOOTH",
"610.773 614 OFFCURVE",
"791.669 517 OFFCURVE",
"757.991 326 CURVE SMOOTH",
"729.073 162 OFFCURVE",
"586.561 40 OFFCURVE",
"360.561 40 CURVE SMOOTH",
"157.561 40 OFFCURVE",
"51.607 131 OFFCURVE",
"21.368 158 CURVE",
"-34.035 99 LINE",
"-25.622 90 OFFCURVE",
"127.276 -24 OFFCURVE",
"344.276 -24 CURVE SMOOTH",
"600.276 -24 OFFCURVE",
"791.725 126 OFFCURVE",
"826.286 322 CURVE SMOOTH",
"867.722 557 OFFCURVE",
"668.589 664 OFFCURVE",
"511.048 746 CURVE SMOOTH",
"352.331 827 OFFCURVE",
"225.437 907 OFFCURVE",
"250.828 1051 CURVE SMOOTH",
"276.043 1194 OFFCURVE",
"406.207 1280 OFFCURVE",
"595.207 1280 CURVE SMOOTH",
"771.207 1280 OFFCURVE",
"850.101 1200 OFFCURVE",
"875.34 1173 CURVE",
"925.214 1229 LINE",
"915.035 1245 OFFCURVE",
"816.492 1344 OFFCURVE",
"603.492 1344 CURVE SMOOTH"
);
}
);
width = 1003;
}
);
leftKerningGroup = S;
rightKerningGroup = S;
unicode = 0053;
},
{
glyphname = Germandbls;
leftMetricsKey = B;
rightMetricsKey = B;
layers = (
{
anchors = (
{
name = bottom;
position = "{508, 0}";
},
{
name = top;
position = "{741, 1320}";
}
);
layerId = "CA4C97A8-3BBB-4B31-B9EA-F36625F03808";
name = BlackItalic;
paths = (
{
closed = 1;
nodes = (
"413.216 -10 LINE",
"487.747 -24 OFFCURVE",
"550.689 -30 OFFCURVE",
"622.689 -30 CURVE SMOOTH",
"880.689 -30 OFFCURVE",
"1135.378 93 OFFCURVE",
"1184.22 370 CURVE SMOOTH",
"1241.174 693 OFFCURVE",
"1056.048 749 OFFCURVE",
"891.988 760 CURVE",
"1152.603 979 LINE",
"1206.207 1283 LINE",
"1090.26 1323 OFFCURVE",
"909.021 1350 OFFCURVE",
"788.021 1350 CURVE SMOOTH",
"431.021 1350 OFFCURVE",
"177.451 1222 OFFCURVE",
"127.374 938 CURVE SMOOTH",
"-38.021 0 LINE",
"341.979 0 LINE",
"478.28 773 LINE SMOOTH",
"502.261 909 OFFCURVE",
"541.478 1035 OFFCURVE",
"690.478 1035 CURVE SMOOTH",
"704.478 1035 OFFCURVE",
"754.301 1034 OFFCURVE",
"782.596 1030 CURVE",
"563.623 843 LINE",
"505.788 515 LINE",
"703.962 533 OFFCURVE",
"813.087 477 OFFCURVE",
"798.981 397 CURVE SMOOTH",
"786.286 325 OFFCURVE",
"702.232 285 OFFCURVE",
"630.232 285 CURVE SMOOTH",
"571.232 285 OFFCURVE",
"524.29 291 OFFCURVE",
"469.464 309 CURVE"
);
}
);
width = 1275;
},
{
anchors = (
{
name = bottom;
position = "{465, 0}";
},
{
name = top;
position = "{698, 1320}";
}
);
layerId = "B9A1D949-37EE-48C7-AA51-22036F480782";
name = ExtraLightItalic;
paths = (
{
closed = 1;
nodes = (
"296.387 26 LINE",
"360.45 -2 OFFCURVE",
"454.629 -18 OFFCURVE",
"552.629 -18 CURVE SMOOTH",
"778.629 -18 OFFCURVE",
"979.491 123 OFFCURVE",
"1026.923 392 CURVE SMOOTH",
"1079.116 688 OFFCURVE",
"858.34 763 OFFCURVE",
"627.58 736 CURVE",
"1052.506 1246 LINE",
"1068.615 1309 LINE",
"935.376 1336 OFFCURVE",
"823.197 1352 OFFCURVE",
"722.197 1352 CURVE SMOOTH",
"424.197 1352 OFFCURVE",
"224.746 1219 OFFCURVE",
"165.323 882 CURVE SMOOTH",
"9.803 0 LINE",
"73.803 0 LINE",
"223.857 851 LINE SMOOTH",
"280.106 1170 OFFCURVE",
"425.441 1291 OFFCURVE",
"722.441 1291 CURVE SMOOTH",
"802.441 1291 OFFCURVE",
"906.501 1280 OFFCURVE",
"991.622 1258 CURVE",
"558.99 744 LINE",
"545.942 670 LINE",
"886.287 723 OFFCURVE",
"998.657 606 OFFCURVE",
"958.984 381 CURVE SMOOTH",
"925.129 189 OFFCURVE",
"795.914 46 OFFCURVE",
"558.914 46 CURVE SMOOTH",
"472.914 46 OFFCURVE",
"375.441 66 OFFCURVE",
"308.201 93 CURVE"
);
}
);
width = 1193;
}
);
leftKerningGroup = Germandbls;
rightKerningGroup = Germandbls;
unicode = 1E9E;
},
{
glyphname = Schwa;
leftMetricsKey = O;
rightMetricsKey = O;
layers = (
{
layerId = "CA4C97A8-3BBB-4B31-B9EA-F36625F03808";
name = BlackItalic;
paths = (
{
closed = 1;
nodes = (
"939.924 -26 OFFCURVE",
"1244.358 226 OFFCURVE",
"1321.06 661 CURVE SMOOTH",
"1400.584 1112 OFFCURVE",
"1141.492 1344 OFFCURVE",
"783.492 1344 CURVE SMOOTH",
"487.492 1344 OFFCURVE",
"256.043 1194 OFFCURVE",
"180.405 1128 CURVE",
"423.618 874 LINE",
"477.787 926 OFFCURVE",
"572.483 998 OFFCURVE",
"724.483 998 CURVE SMOOTH",
"885.483 998 OFFCURVE",
"973.85 898 OFFCURVE",
"952.867 779 CURVE",
"61.867 779 LINE",
"56.28 770 OFFCURVE",
"40.411 680 OFFCURVE",
"38.471 669 CURVE SMOOTH",
"-33.823 259 OFFCURVE",
"155.924 -26 OFFCURVE",
"547.924 -26 CURVE SMOOTH"
);
},
{
closed = 1;
nodes = (
"427.819 291 OFFCURVE",
"382.389 419 OFFCURVE",
"400.551 522 CURVE",
"899.551 522 LINE",
"880.331 413 OFFCURVE",
"781.819 291 OFFCURVE",
"607.819 291 CURVE SMOOTH"
);
}
);
width = 1414;
},
{
layerId = "B9A1D949-37EE-48C7-AA51-22036F480782";
name = ExtraLightItalic;
paths = (
{
closed = 1;
nodes = (
"882.216 -13 OFFCURVE",
"1161.348 294 OFFCURVE",
"1230.469 686 CURVE SMOOTH",
"1304.526 1106 OFFCURVE",
"1106.492 1344 OFFCURVE",
"751.492 1344 CURVE SMOOTH",
"469.492 1344 OFFCURVE",
"231.929 1165 OFFCURVE",
"161.652 1050 CURVE",
"214.599 1010 LINE",
"252.883 1074 OFFCURVE",
"444.559 1282 OFFCURVE",
"737.559 1282 CURVE SMOOTH",
"1060.559 1282 OFFCURVE",
"1227.591 1061 OFFCURVE",
"1162.35 691 CURVE",
"54.35 691 LINE",
"52.763 682 OFFCURVE",
"48.471 669 OFFCURVE",
"46.531 658 CURVE SMOOTH",
"-17.828 293 OFFCURVE",
"154.216 -13 OFFCURVE",
"504.216 -13 CURVE SMOOTH"
);
},
{
closed = 1;
nodes = (
"195.501 51 OFFCURVE",
"61.517 346 OFFCURVE",
"111.065 627 CURVE",
"1147.065 627 LINE",
"1096.283 339 OFFCURVE",
"859.501 51 OFFCURVE",
"515.501 51 CURVE SMOOTH"
);
}
);
width = 1324;
}
);
leftKerningGroup = O;
rightKerningGroup = O;
unicode = 018F;
},
{
glyphname = T;
layers = (
{
anchors = (
{
name = bottom;
position = "{369, 0}";
},
{
name = center;
position = "{485, 661}";
},
{
name = top;
position = "{601, 1320}";
}
);
layerId = "CA4C97A8-3BBB-4B31-B9EA-F36625F03808";
name = BlackItalic;
paths = (
{
closed = 1;
nodes = (
"174.624 0 LINE",
"561.624 0 LINE",
"735.13 984 LINE",
"1020.13 984 LINE",
"1079.376 1320 LINE",
"122.376 1320 LINE",
"63.13 984 LINE",
"348.13 984 LINE"
);
}
);
width = 1042;
},
{
anchors = (
{
name = bottom;
position = "{345, 0}";
},
{
name = center;
position = "{461, 661}";
},
{
name = top;
position = "{577, 1320}";
}
);
layerId = "B9A1D949-37EE-48C7-AA51-22036F480782";
name = ExtraLightItalic;
paths = (
{
closed = 1;
nodes = (
"312.624 0 LINE",
"376.624 0 LINE",
"598.091 1256 LINE",
"990.091 1256 LINE",
"1001.376 1320 LINE",
"153.376 1320 LINE",
"142.091 1256 LINE",
"534.091 1256 LINE"
);
}
);
width = 962;
}
);
leftKerningGroup = T;
rightKerningGroup = T;
unicode = 0054;
},
{
glyphname = Tbar;
layers = (
{
components = (
{
name = T;
alignment = -1;
}
);
layerId = "CA4C97A8-3BBB-4B31-B9EA-F36625F03808";
name = BlackItalic;
paths = (
{
closed = 1;
nodes = (
"-18.157 523 LINE",
"935.843 523 LINE",
"984.333 798 LINE",
"30.333 798 LINE"
);
}
);
width = 1042;
},
{
components = (
{
name = T;
alignment = -1;
}
);
layerId = "B9A1D949-37EE-48C7-AA51-22036F480782";
name = ExtraLightItalic;
paths = (
{
closed = 1;
nodes = (
"60.229 701 LINE",
"869.229 701 LINE",
"880.514 765 LINE",
"71.514 765 LINE"
);
}
);
width = 962;
}
);
leftKerningGroup = T;
rightKerningGroup = T;
unicode = 0166;
},
{
glyphname = U;
layers = (
{
anchors = (
{
name = bottom;
position = "{505, 0}";
},
{
name = ogonek;
position = "{1006, 16}";
},
{
name = top;
position = "{737, 1320}";
},
{
name = topright;
position = "{1287, 1320}";
}
);
layerId = "CA4C97A8-3BBB-4B31-B9EA-F36625F03808";
name = BlackItalic;
paths = (
{
closed = 1;
nodes = (
"762.135 536 LINE SMOOTH",
"736.215 389 OFFCURVE",
"672.107 326 OFFCURVE",
"562.107 326 CURVE SMOOTH",
"450.107 326 OFFCURVE",
"408.215 389 OFFCURVE",
"434.135 536 CURVE SMOOTH",
"572.376 1320 LINE",
"185.376 1320 LINE",
"43.433 515 LINE SMOOTH",
"-14.05 189 OFFCURVE",
"141.392 -24 OFFCURVE",
"500.392 -24 CURVE SMOOTH",
"858.392 -24 OFFCURVE",
"1087.95 189 OFFCURVE",
"1145.433 515 CURVE SMOOTH",
"1287.376 1320 LINE",
"900.376 1320 LINE"
);
}
);
width = 1294;
},
{
anchors = (
{
name = bottom;
position = "{478, 0}";
},
{
name = ogonek;
position = "{892, 16}";
},
{
name = top;
position = "{710, 1320}";
},
{
name = topright;
position = "{1190, 1320}";
}
);
layerId = "B9A1D949-37EE-48C7-AA51-22036F480782";
name = ExtraLightItalic;
paths = (
{
closed = 1;
nodes = (
"982.082 496 LINE SMOOTH",
"933.769 222 OFFCURVE",
"714.677 40 OFFCURVE",
"484.677 40 CURVE SMOOTH",
"253.677 40 OFFCURVE",
"96.769 222 OFFCURVE",
"145.082 496 CURVE SMOOTH",
"290.376 1320 LINE",
"228.376 1320 LINE",
"82.553 493 LINE SMOOTH",
"24.894 166 OFFCURVE",
"212.392 -24 OFFCURVE",
"473.392 -24 CURVE SMOOTH",
"733.392 -24 OFFCURVE",
"986.894 166 OFFCURVE",
"1044.553 493 CURVE SMOOTH",
"1190.376 1320 LINE",
"1127.376 1320 LINE"
);
}
);
width = 1218;
}
);
leftKerningGroup = U;
rightKerningGroup = U;
unicode = 0055;
},
{
glyphname = V;
layers = (
{
anchors = (
{
name = bottom;
position = "{561, 0}";
},
{
name = top;
position = "{793, 1320}";
}
);
layerId = "CA4C97A8-3BBB-4B31-B9EA-F36625F03808";
name = BlackItalic;
paths = (
{
closed = 1;
nodes = (
"1470.376 1320 LINE",
"1033.376 1320 LINE",
"648.964 501 LINE",
"553.376 1320 LINE",
"116.376 1320 LINE",
"344.624 0 LINE",
"776.624 0 LINE"
);
}
);
width = 1418;
},
{
anchors = (
{
name = bottom;
position = "{447, 0}";
},
{
name = top;
position = "{679, 1320}";
}
);
layerId = "B9A1D949-37EE-48C7-AA51-22036F480782";
name = ExtraLightItalic;
paths = (
{
closed = 1;
nodes = (
"1218.376 1320 LINE",
"1148.376 1320 LINE",
"457.38 61 LINE",
"212.376 1320 LINE",
"142.376 1320 LINE",
"403.624 0 LINE",
"489.624 0 LINE"
);
}
);
width = 1166;
}
);
leftKerningGroup = V;
rightKerningGroup = V;
unicode = 0056;
},
{
glyphname = W;
layers = (
{
anchors = (
{
name = bottom;
position = "{836, 0}";
},
{
name = top;
position = "{1068, 1320}";
}
);
layerId = "CA4C97A8-3BBB-4B31-B9EA-F36625F03808";
name = BlackItalic;
paths = (
{
closed = 1;
nodes = (
"1986.376 1320 LINE",
"1540.376 1320 LINE",
"1267.904 512 LINE",
"1272.904 512 LINE",
"1193.376 1320 LINE",
"919.376 1320 LINE",
"554.904 512 LINE",
"559.904 512 LINE",
"572.376 1320 LINE",
"126.376 1320 LINE",
"211.624 0 LINE",
"672.624 0 LINE",
"995.512 782 LINE",
"928.512 782 LINE",
"974.624 0 LINE",
"1433.624 0 LINE"
);
}
);
width = 1957;
},
{
anchors = (
{
name = bottom;
position = "{610, 0}";
},
{
name = top;
position = "{842, 1320}";
}
);
layerId = "B9A1D949-37EE-48C7-AA51-22036F480782";
name = ExtraLightItalic;
paths = (
{
closed = 1;
nodes = (
"1502.376 1320 LINE",
"1433.376 1320 LINE",
"977.378 78 LINE",
"979.378 78 LINE",
"879.376 1320 LINE",
"783.376 1320 LINE",
"246.378 78 LINE",
"247.378 78 LINE",
"230.376 1320 LINE",
"161.376 1320 LINE",
"185.624 0 LINE",
"278.624 0 LINE",
"834.086 1290 LINE",
"818.086 1290 LINE",
"918.624 0 LINE",
"1011.624 0 LINE"
);
}
);
width = 1493;
}
);
leftKerningGroup = W;
rightKerningGroup = W;
unicode = 0057;
},
{
glyphname = X;
layers = (
{
anchors = (
{
name = bottom;
position = "{610, 0}";
},
{
name = top;
position = "{842, 1320}";
}
);
layerId = "CA4C97A8-3BBB-4B31-B9EA-F36625F03808";
name = BlackItalic;
paths = (
{
closed = 1;
nodes = (
"1502.376 1320 LINE",
"1031.376 1320 LINE",
"791.362 1008 LINE",
"660.376 1320 LINE",
"166.376 1320 LINE",
"483.816 710 LINE",
"-108.376 0 LINE",
"358.624 0 LINE",
"665.686 386 LINE",
"851.624 0 LINE",
"1358.624 0 LINE",
"978.816 710 LINE"
);
}
);
width = 1531;
},
{
anchors = (
{
name = bottom;
position = "{412, 0}";
},
{
name = top;
position = "{644, 1320}";
}
);
layerId = "B9A1D949-37EE-48C7-AA51-22036F480782";
name = ExtraLightItalic;
paths = (
{
closed = 1;
nodes = (
"1116.376 1320 LINE",
"1039.376 1320 LINE",
"548.633 760 LINE",
"250.376 1320 LINE",
"174.376 1320 LINE",
"491.816 710 LINE",
"-106.376 0 LINE",
"-30.376 0 LINE",
"531.176 661 LINE",
"854.624 0 LINE",
"931.624 0 LINE",
"587.816 710 LINE"
);
}
);
width = 1096;
}
);
leftKerningGroup = X;
rightKerningGroup = X;
unicode = 0058;
},
{
glyphname = Y;
layers = (
{
anchors = (
{
name = bottom;
position = "{482, 0}";
},
{
name = top;
position = "{714, 1320}";
},
{
name = topleft;
position = "{106, 1320}";
}
);
layerId = "CA4C97A8-3BBB-4B31-B9EA-F36625F03808";
name = BlackItalic;
paths = (
{
closed = 1;
nodes = (
"288.624 0 LINE",
"675.624 0 LINE",
"759.38 475 LINE",
"1369.376 1320 LINE",
"900.376 1320 LINE",
"642.963 915 LINE",
"529.376 1320 LINE",
"58.376 1320 LINE",
"372.38 475 LINE"
);
}
);
width = 1266;
},
{
anchors = (
{
name = bottom;
position = "{377, 0}";
},
{
name = top;
position = "{609, 1320}";
},
{
name = topleft;
position = "{191, 1320}";
}
);
layerId = "B9A1D949-37EE-48C7-AA51-22036F480782";
name = ExtraLightItalic;
paths = (
{
closed = 1;
nodes = (
"344.624 0 LINE",
"408.624 0 LINE",
"492.38 475 LINE",
"1073.376 1320 LINE",
"999.376 1320 LINE",
"474.309 554 LINE",
"217.376 1320 LINE",
"143.376 1320 LINE",
"428.38 475 LINE"
);
}
);
width = 1026;
}
);
leftKerningGroup = Y;
rightKerningGroup = Y;
unicode = 0059;
},
{
glyphname = Z;
layers = (
{
anchors = (
{
name = bottom;
position = "{508, 0}";
},
{
name = top;
position = "{740, 1320}";
}
);
layerId = "CA4C97A8-3BBB-4B31-B9EA-F36625F03808";
name = BlackItalic;
paths = (
{
closed = 1;
nodes = (
"140.13 984 LINE",
"638.13 984 LINE",
"-126.376 0 LINE",
"1096.624 0 LINE",
"1155.87 336 LINE",
"603.87 336 LINE",
"1372.376 1320 LINE",
"199.376 1320 LINE"
);
}
);
width = 1318;
},
{
anchors = (
{
name = bottom;
position = "{418, 0}";
},
{
name = top;
position = "{650, 1320}";
}
);
layerId = "B9A1D949-37EE-48C7-AA51-22036F480782";
name = ExtraLightItalic;
paths = (
{
closed = 1;
nodes = (
"262.091 1256 LINE",
"991.091 1256 LINE",
"-52.376 0 LINE",
"843.624 0 LINE",
"854.909 64 LINE",
"81.909 64 LINE",
"1119.376 1320 LINE",
"273.376 1320 LINE"
);
}
);
width = 1107;
}
);
leftKerningGroup = Z;
rightKerningGroup = Z;
unicode = 005A;
},
{
glyphname = a;
leftMetricsKey = o;
layers = (
{
anchors = (
{
name = bottom;
position = "{497, 0}";
},
{
name = ogonek;
position = "{958, 16}";
},
{
name = top;
position = "{641, 821}";
}
);
layerId = "CA4C97A8-3BBB-4B31-B9EA-F36625F03808";
name = BlackItalic;
paths = (
{
closed = 1;
nodes = (
"1004.502 0 LINE",
"1149.266 821 LINE",
"757.266 821 LINE",
"740.339 725 LINE",
"714.332 776 OFFCURVE",
"641.498 845 OFFCURVE",
"501.498 845 CURVE SMOOTH",
"254.498 845 OFFCURVE",
"70.469 635 OFFCURVE",
"30.796 410 CURVE SMOOTH",
"-9.054 184 OFFCURVE",
"101.27 -24 OFFCURVE",
"348.27 -24 CURVE SMOOTH",
"495.27 -24 OFFCURVE",
"609.255 78 OFFCURVE",
"636.779 115 CURVE",
"616.502 0 LINE"
);
},
{
closed = 1;
nodes = (
"428.786 478 OFFCURVE",
"493.895 541 OFFCURVE",
"573.895 541 CURVE SMOOTH",
"653.895 541 OFFCURVE",
"696.786 478 OFFCURVE",
"684.796 410 CURVE SMOOTH",
"672.629 341 OFFCURVE",
"607.873 280 OFFCURVE",
"527.873 280 CURVE SMOOTH",
"447.873 280 OFFCURVE",
"404.629 341 OFFCURVE",
"416.796 410 CURVE SMOOTH"
);
}
);
width = 1175;
},
{
anchors = (
{
name = bottom;
position = "{419, 0}";
},
{
name = ogonek;
position = "{797, 16}";
},
{
name = top;
position = "{563, 821}";
}
);
layerId = "B9A1D949-37EE-48C7-AA51-22036F480782";
name = ExtraLightItalic;
paths = (
{
closed = 1;
nodes = (
"789.502 0 LINE",
"934.266 821 LINE",
"872.266 821 LINE",
"839.998 638 LINE",
"844.107 701 OFFCURVE",
"743.498 845 OFFCURVE",
"546.498 845 CURVE SMOOTH",
"327.498 845 OFFCURVE",
"105.167 690 OFFCURVE",
"55.796 410 CURVE SMOOTH",
"6.424 130 OFFCURVE",
"174.27 -24 OFFCURVE",
"393.27 -24 CURVE SMOOTH",
"591.27 -24 OFFCURVE",
"737.543 125 OFFCURVE",
"759.593 182 CURVE",
"727.502 0 LINE"
);
},
{
closed = 1;
nodes = (
"160.704 642 OFFCURVE",
"357.213 781 OFFCURVE",
"529.213 781 CURVE SMOOTH",
"719.213 781 OFFCURVE",
"835.822 637 OFFCURVE",
"795.796 410 CURVE SMOOTH",
"755.593 182 OFFCURVE",
"588.555 40 OFFCURVE",
"398.555 40 CURVE SMOOTH",
"226.555 40 OFFCURVE",
"78.888 178 OFFCURVE",
"119.796 410 CURVE SMOOTH"
);
}
);
width = 1008;
}
);
leftKerningGroup = o;
rightKerningGroup = n;
unicode = 0061;
},
{
glyphname = a.ss01;
leftMetricsKey = o;
rightMetricsKey = n;
layers = (
{
anchors = (
{
name = bottom;
position = "{458, 0}";
},
{
name = ogonek;
position = "{1043, 16}";
},
{
name = top;
position = "{474, 821}";
}
);
layerId = "2901095D-0D1F-452E-9740-FD36640ECB41";
name = ":wt=500";
paths = (
{
closed = 1;
nodes = (
"552 -24 OFFCURVE",
"673 47 OFFCURVE",
"704 114 CURVE",
"686 138 LINE",
"686 0 LINE",
"889 0 LINE",
"889 470 LINE SMOOTH",
"889 741 OFFCURVE",
"666 845 OFFCURVE",
"437 845 CURVE SMOOTH",
"226 845 OFFCURVE",
"85 753 OFFCURVE",
"55 717 CURVE",
"166 591 LINE",
"208 633 OFFCURVE",
"287 685 OFFCURVE",
"430 685 CURVE SMOOTH",
"584 685 OFFCURVE",
"686 608 OFFCURVE",
"686 462 CURVE SMOOTH",
"686 397 LINE",
"698 422 LINE",
"670 474 OFFCURVE",
"548 523 OFFCURVE",
"396 523 CURVE SMOOTH",
"233 523 OFFCURVE",
"47 462 OFFCURVE",
"47 255 CURVE SMOOTH",
"47 64 OFFCURVE",
"207 -24 OFFCURVE",
"372 -24 CURVE SMOOTH"
);
},
{
closed = 1;
nodes = (
"343 127 OFFCURVE",
"253 159 OFFCURVE",
"253 254 CURVE SMOOTH",
"253 349 OFFCURVE",
"335 389 OFFCURVE",
"435 389 CURVE SMOOTH",
"543 389 OFFCURVE",
"658 328 OFFCURVE",
"686 268 CURVE",
"686 253 LINE",
"658 189 OFFCURVE",
"539 127 OFFCURVE",
"436 127 CURVE SMOOTH"
);
}
);
width = 1005;
},
{
anchors = (
{
name = bottom;
position = "{449, 0}";
},
{
name = ogonek;
position = "{1063, 17}";
},
{
name = top;
position = "{605, 821}";
}
);
layerId = "CA4C97A8-3BBB-4B31-B9EA-F36625F03808";
name = BlackItalic;
paths = (
{
closed = 1;
nodes = (
"457.27 -24 OFFCURVE",
"559.139 66 OFFCURVE",
"587.306 135 CURVE",
"565.717 143 LINE",
"540.502 0 LINE",
"925.502 0 LINE",
"1001.851 433 LINE SMOOTH",
"1058.981 757 OFFCURVE",
"786.498 845 OFFCURVE",
"528.498 845 CURVE SMOOTH",
"303.498 845 OFFCURVE",
"138.8 790 OFFCURVE",
"115.684 778 CURVE",
"217.723 506 LINE",
"266.837 535 OFFCURVE",
"350.716 557 OFFCURVE",
"444.716 557 CURVE SMOOTH",
"569.716 557 OFFCURVE",
"628.842 501 OFFCURVE",
"617.557 437 CURVE SMOOTH",
"610.151 395 LINE",
"631.914 405 LINE",
"623.023 468 OFFCURVE",
"518.781 512 OFFCURVE",
"400.781 512 CURVE SMOOTH",
"266.781 512 OFFCURVE",
"63.083 457 OFFCURVE",
"27.465 255 CURVE SMOOTH",
"-2.158 87 OFFCURVE",
"110.27 -24 OFFCURVE",
"270.27 -24 CURVE SMOOTH"
);
},
{
closed = 1;
nodes = (
"440.767 200 OFFCURVE",
"414.294 220 OFFCURVE",
"419.936 252 CURVE SMOOTH",
"425.579 284 OFFCURVE",
"459.458 306 OFFCURVE",
"498.458 306 CURVE SMOOTH",
"540.458 306 OFFCURVE",
"584.286 271 OFFCURVE",
"578.412 215 CURVE",
"592.695 296 LINE",
"578.586 233 OFFCURVE",
"521.767 200 OFFCURVE",
"479.767 200 CURVE SMOOTH"
);
}
);
width = 1062;
},
{
anchors = (
{
name = bottom;
position = "{379, 0}";
},
{
name = ogonek;
position = "{945, 16}";
},
{
name = top;
position = "{542, 821}";
}
);
layerId = "B9A1D949-37EE-48C7-AA51-22036F480782";
name = ExtraLightItalic;
paths = (
{
closed = 1;
nodes = (
"528.27 -24 OFFCURVE",
"689.318 50 OFFCURVE",
"742.956 116 CURVE",
"732.13 134 LINE",
"708.502 0 LINE",
"774.502 0 LINE",
"862.136 497 LINE SMOOTH",
"903.044 729 OFFCURVE",
"749.498 845 OFFCURVE",
"541.498 845 CURVE SMOOTH",
"323.498 845 OFFCURVE",
"189.339 725 OFFCURVE",
"140.82 654 CURVE",
"198.825 620 LINE",
"250.991 689 OFFCURVE",
"346.213 781 OFFCURVE",
"526.213 781 CURVE SMOOTH",
"702.213 781 OFFCURVE",
"829.991 689 OFFCURVE",
"793.315 481 CURVE SMOOTH",
"778.68 398 LINE",
"788.207 418 LINE",
"761.847 467 OFFCURVE",
"644.308 532 OFFCURVE",
"467.308 532 CURVE SMOOTH",
"281.308 532 OFFCURVE",
"89.494 465 OFFCURVE",
"52.465 255 CURVE SMOOTH",
"15.789 47 OFFCURVE",
"184.27 -24 OFFCURVE",
"354.27 -24 CURVE SMOOTH"
);
},
{
closed = 1;
nodes = (
"233.026 37 OFFCURVE",
"87.432 79 OFFCURVE",
"118.465 255 CURVE SMOOTH",
"149.851 433 OFFCURVE",
"312.023 468 OFFCURVE",
"458.023 468 CURVE SMOOTH",
"616.023 468 OFFCURVE",
"734.267 407 OFFCURVE",
"769.158 344 CURVE",
"739.888 178 LINE",
"680.603 114 OFFCURVE",
"533.026 37 OFFCURVE",
"367.026 37 CURVE SMOOTH"
);
}
);
width = 993;
}
);
leftKerningGroup = o;
rightKerningGroup = n;
},
{
glyphname = ae;
leftMetricsKey = a;
rightMetricsKey = e;
layers = (
{
anchors = (
{
name = bottom;
position = "{749, 0}";
},
{
name = top;
position = "{893, 821}";
}
);
layerId = "CA4C97A8-3BBB-4B31-B9EA-F36625F03808";
name = BlackItalic;
paths = (
{
closed = 1;
nodes = (
"498.27 -24 OFFCURVE",
"644.434 62 OFFCURVE",
"697.719 126 CURVE",
"762.026 37 OFFCURVE",
"877.27 -24 OFFCURVE",
"1018.27 -24 CURVE SMOOTH",
"1212.27 -24 OFFCURVE",
"1356.205 21 OFFCURVE",
"1472.487 102 CURVE",
"1308.455 323 LINE",
"1246.992 275 OFFCURVE",
"1155.642 256 OFFCURVE",
"1088.642 256 CURVE SMOOTH",
"1069.642 256 OFFCURVE",
"940.815 274 OFFCURVE",
"956.509 363 CURVE",
"1545.509 363 LINE",
"1547.272 373 OFFCURVE",
"1553.68 398 OFFCURVE",
"1555.796 410 CURVE SMOOTH",
"1609.399 714 OFFCURVE",
"1435.498 845 OFFCURVE",
"1171.498 845 CURVE SMOOTH",
"1030.498 845 OFFCURVE",
"904.742 784 OFFCURVE",
"823.986 723 CURVE",
"791.682 795 OFFCURVE",
"661.498 845 OFFCURVE",
"510.498 845 CURVE SMOOTH",
"305.498 845 OFFCURVE",
"143.445 805 OFFCURVE",
"78.979 774 CURVE",
"188.484 533 LINE",
"229.834 552 OFFCURVE",
"324.595 579 OFFCURVE",
"431.595 579 CURVE SMOOTH",
"591.595 579 OFFCURVE",
"618.429 510 OFFCURVE",
"612.786 478 CURVE SMOOTH",
"610.67 466 LINE",
"590.139 480 OFFCURVE",
"543.134 514 OFFCURVE",
"417.134 514 CURVE SMOOTH",
"212.134 514 OFFCURVE",
"51.975 394 OFFCURVE",
"27.994 258 CURVE SMOOTH",
"-2.334 86 OFFCURVE",
"106.27 -24 OFFCURVE",
"290.27 -24 CURVE SMOOTH"
);
},
{
closed = 1;
nodes = (
"371.004 190 OFFCURVE",
"344.646 222 OFFCURVE",
"351.523 261 CURVE SMOOTH",
"358.224 299 OFFCURVE",
"395.866 331 OFFCURVE",
"434.866 331 CURVE SMOOTH",
"472.866 331 OFFCURVE",
"499.224 299 OFFCURVE",
"492.523 261 CURVE SMOOTH",
"485.646 222 OFFCURVE",
"448.004 190 OFFCURVE",
"410.004 190 CURVE SMOOTH"
);
},
{
closed = 1;
nodes = (
"997.482 550 LINE",
"1011.829 586 OFFCURVE",
"1078.53 624 OFFCURVE",
"1142.53 624 CURVE SMOOTH",
"1214.53 624 OFFCURVE",
"1233.595 579 OFFCURVE",
"1239.482 550 CURVE"
);
}
);
width = 1625;
},
{
anchors = (
{
name = bottom;
position = "{637, 0}";
},
{
name = top;
position = "{781, 821}";
}
);
layerId = "B9A1D949-37EE-48C7-AA51-22036F480782";
name = ExtraLightItalic;
paths = (
{
closed = 1;
nodes = (
"471.27 -24 OFFCURVE",
"605.782 98 OFFCURVE",
"637.362 158 CURVE",
"655.434 62 OFFCURVE",
"772.27 -24 OFFCURVE",
"919.27 -24 CURVE SMOOTH",
"1088.27 -24 OFFCURVE",
"1227.487 102 OFFCURVE",
"1279.654 171 CURVE",
"1229.178 208 LINE",
"1202.125 168 OFFCURVE",
"1087.555 40 OFFCURVE",
"936.555 40 CURVE SMOOTH",
"735.555 40 OFFCURVE",
"675.596 165 OFFCURVE",
"715.622 392 CURVE",
"1331.622 392 LINE",
"1333.385 402 OFFCURVE",
"1334.68 398 OFFCURVE",
"1336.796 410 CURVE SMOOTH",
"1387.578 698 OFFCURVE",
"1281.498 845 OFFCURVE",
"1072.498 845 CURVE SMOOTH",
"921.498 845 OFFCURVE",
"776.457 720 OFFCURVE",
"737.53 624 CURVE",
"723.81 722 OFFCURVE",
"661.498 845 OFFCURVE",
"481.498 845 CURVE SMOOTH",
"344.498 845 OFFCURVE",
"230.742 784 OFFCURVE",
"182.807 739 CURVE",
"221.875 677 LINE",
"264.81 722 OFFCURVE",
"363.213 781 OFFCURVE",
"470.213 781 CURVE SMOOTH",
"552.213 781 OFFCURVE",
"704.868 728 OFFCURVE",
"660.786 478 CURVE SMOOTH",
"651.793 427 LINE",
"637.849 450 OFFCURVE",
"556.663 517 OFFCURVE",
"414.663 517 CURVE SMOOTH",
"246.663 517 OFFCURVE",
"81.325 413 OFFCURVE",
"52.584 250 CURVE SMOOTH",
"18.905 59 OFFCURVE",
"149.27 -24 OFFCURVE",
"312.27 -24 CURVE SMOOTH"
);
},
{
closed = 1;
nodes = (
"181.908 42 OFFCURVE",
"96.072 128 OFFCURVE",
"117.231 248 CURVE SMOOTH",
"140.859 382 OFFCURVE",
"291.378 453 OFFCURVE",
"411.378 453 CURVE SMOOTH",
"548.378 453 OFFCURVE",
"643.33 379 OFFCURVE",
"622.171 259 CURVE SMOOTH",
"603.656 154 OFFCURVE",
"469.202 38 OFFCURVE",
"314.555 40 CURVE SMOOTH"
);
},
{
closed = 1;
nodes = (
"734.378 453 LINE",
"782.643 653 OFFCURVE",
"899.213 781 OFFCURVE",
"1067.213 781 CURVE SMOOTH",
"1296.213 781 OFFCURVE",
"1283.542 539 OFFCURVE",
"1270.378 453 CURVE"
);
}
);
width = 1442;
}
);
leftKerningGroup = a;
rightKerningGroup = e;
unicode = 00E6;
},
{
glyphname = b;
layers = (
{
anchors = (
{
name = bottom;
position = "{466, 0}";
},
{
name = top;
position = "{720, 1440}";
}
);
layerId = "CA4C97A8-3BBB-4B31-B9EA-F36625F03808";
name = BlackItalic;
paths = (
{
closed = 1;
nodes = (
"331.687 0 LINE",
"351.965 115 LINE",
"390.682 34 OFFCURVE",
"487.455 -24 OFFCURVE",
"594.455 -24 CURVE SMOOTH",
"840.455 -24 OFFCURVE",
"1021.131 184 OFFCURVE",
"1060.981 410 CURVE SMOOTH",
"1100.655 635 OFFCURVE",
"993.683 845 OFFCURVE",
"747.683 845 CURVE SMOOTH",
"606.683 845 OFFCURVE",
"493.517 776 OFFCURVE",
"462.524 725 CURVE",
"577.313 1376 LINE",
"185.313 1376 LINE",
"-57.313 0 LINE"
);
},
{
closed = 1;
nodes = (
"663.815 341 OFFCURVE",
"598.059 280 OFFCURVE",
"518.059 280 CURVE SMOOTH",
"438.059 280 OFFCURVE",
"394.815 341 OFFCURVE",
"406.981 410 CURVE SMOOTH",
"418.971 478 OFFCURVE",
"484.08 541 OFFCURVE",
"564.08 541 CURVE SMOOTH",
"644.08 541 OFFCURVE",
"687.971 478 OFFCURVE",
"675.981 410 CURVE SMOOTH"
);
}
);
width = 1165;
},
{
anchors = (
{
name = bottom;
position = "{354, 0}";
},
{
name = top;
position = "{608, 1440}";
}
);
layerId = "B9A1D949-37EE-48C7-AA51-22036F480782";
name = ExtraLightItalic;
paths = (
{
closed = 1;
nodes = (
"62.687 0 LINE",
"94.779 182 LINE",
"90.199 122 OFFCURVE",
"202.455 -24 OFFCURVE",
"404.455 -24 CURVE SMOOTH",
"623.455 -24 OFFCURVE",
"829.61 130 OFFCURVE",
"878.981 410 CURVE SMOOTH",
"928.353 690 OFFCURVE",
"776.683 845 OFFCURVE",
"557.683 845 CURVE SMOOTH",
"357.683 845 OFFCURVE",
"197.174 706 OFFCURVE",
"178.184 638 CURVE",
"308.313 1376 LINE",
"241.313 1376 LINE",
"-1.313 0 LINE"
);
},
{
closed = 1;
nodes = (
"772.073 178 OFFCURVE",
"592.74 40 OFFCURVE",
"421.74 40 CURVE SMOOTH",
"231.74 40 OFFCURVE",
"97.779 182 OFFCURVE",
"137.981 410 CURVE SMOOTH",
"178.007 637 OFFCURVE",
"362.398 781 OFFCURVE",
"552.398 781 CURVE SMOOTH",
"723.398 781 OFFCURVE",
"853.889 642 OFFCURVE",
"812.981 410 CURVE SMOOTH"
);
}
);
width = 989;
}
);
leftKerningGroup = h;
rightKerningGroup = o;
unicode = 0062;
},
{
glyphname = c;
layers = (
{
anchors = (
{
name = bottom;
position = "{356, 0}";
},
{
name = top;
position = "{500, 821}";
}
);
layerId = "CA4C97A8-3BBB-4B31-B9EA-F36625F03808";
name = BlackItalic;
paths = (
{
closed = 1;
nodes = (
"451.873 280 OFFCURVE",
"408.158 344 OFFCURVE",
"419.972 411 CURVE SMOOTH",
"431.61 477 OFFCURVE",
"497.895 541 OFFCURVE",
"575.895 541 CURVE SMOOTH",
"636.895 541 OFFCURVE",
"671.429 510 OFFCURVE",
"682.489 499 CURVE",
"910.039 763 LINE",
"876.682 795 OFFCURVE",
"773.498 845 OFFCURVE",
"628.498 845 CURVE SMOOTH",
"304.498 845 OFFCURVE",
"88.936 666 OFFCURVE",
"43.972 411 CURVE SMOOTH",
"-0.815 157 OFFCURVE",
"151.27 -24 OFFCURVE",
"475.27 -24 CURVE SMOOTH",
"625.27 -24 OFFCURVE",
"736.615 29 OFFCURVE",
"782.434 62 CURVE",
"651.808 325 LINE",
"630.634 307 OFFCURVE",
"585.873 280 OFFCURVE",
"529.873 280 CURVE SMOOTH"
);
}
);
width = 867;
},
{
anchors = (
{
name = bottom;
position = "{312, 0}";
},
{
name = top;
position = "{456, 821}";
}
);
layerId = "B9A1D949-37EE-48C7-AA51-22036F480782";
name = ExtraLightItalic;
paths = (
{
closed = 1;
nodes = (
"238.555 40 OFFCURVE",
"88.654 171 OFFCURVE",
"130.972 411 CURVE SMOOTH",
"173.291 651 OFFCURVE",
"369.213 781 OFFCURVE",
"524.213 781 CURVE SMOOTH",
"652.213 781 OFFCURVE",
"710.576 715 OFFCURVE",
"725.578 698 CURVE",
"773.452 754 LINE",
"759.45 771 OFFCURVE",
"674.498 845 OFFCURVE",
"527.498 845 CURVE SMOOTH",
"351.498 845 OFFCURVE",
"118.636 704 OFFCURVE",
"66.972 411 CURVE SMOOTH",
"15.308 118 OFFCURVE",
"198.27 -24 OFFCURVE",
"374.27 -24 CURVE SMOOTH",
"521.27 -24 OFFCURVE",
"642.908 42 OFFCURVE",
"656.847 53 CURVE",
"627.721 109 LINE",
"609.429 96 OFFCURVE",
"521.555 40 OFFCURVE",
"393.555 40 CURVE SMOOTH"
);
}
);
width = 811;
}
);
leftKerningGroup = o;
rightKerningGroup = c;
unicode = 0063;
},
{
glyphname = eth;
layers = (
{
layerId = "CA4C97A8-3BBB-4B31-B9EA-F36625F03808";
name = BlackItalic;
paths = (
{
closed = 1;
nodes = (
"-46.537 157 OFFCURVE",
"134.548 -24 OFFCURVE",
"438.548 -24 CURVE SMOOTH",
"719.548 -24 OFFCURVE",
"980.64 158 OFFCURVE",
"1034.596 464 CURVE SMOOTH",
"1094.723 805 OFFCURVE",
"990.745 1066 OFFCURVE",
"825.901 1203 CURVE",
"901.715 1270 LINE",
"789.341 1421 LINE",
"663.532 1320 LINE",
"523.58 1394 OFFCURVE",
"403.633 1434 OFFCURVE",
"354.22 1443 CURVE",
"219.617 1139 LINE",
"246.559 1133 OFFCURVE",
"308.503 1110 OFFCURVE",
"377.861 1078 CURVE",
"278.049 994 LINE",
"397.953 846 LINE",
"571.815 987 LINE",
"618.291 950 OFFCURVE",
"664.658 850 OFFCURVE",
"672.194 802 CURVE",
"652.602 827 OFFCURVE",
"626.776 845 OFFCURVE",
"523.776 845 CURVE SMOOTH",
"335.776 845 OFFCURVE",
"50.972 710 OFFCURVE",
"-1.926 410 CURVE SMOOTH"
);
},
{
closed = 1;
nodes = (
"397.417 480 OFFCURVE",
"457.82 539 OFFCURVE",
"533.82 539 CURVE SMOOTH",
"610.82 539 OFFCURVE",
"650.946 483 OFFCURVE",
"638.074 410 CURVE SMOOTH",
"625.555 339 OFFCURVE",
"565.681 283 OFFCURVE",
"488.681 283 CURVE SMOOTH",
"412.681 283 OFFCURVE",
"372.908 341 OFFCURVE",
"385.074 410 CURVE SMOOTH"
);
}
);
width = 1134;
},
{
layerId = "B9A1D949-37EE-48C7-AA51-22036F480782";
name = ExtraLightItalic;
paths = (
{
closed = 1;
nodes = (
"1.839 155 OFFCURVE",
"128.276 -24 OFFCURVE",
"405.276 -24 CURVE SMOOTH",
"687.276 -24 OFFCURVE",
"869.013 173 OFFCURVE",
"913.624 426 CURVE SMOOTH",
"985.741 835 OFFCURVE",
"829.478 1032 OFFCURVE",
"617.4 1162 CURVE",
"778.617 1288 LINE",
"716.492 1344 LINE",
"553.219 1195 LINE",
"524.04 1211 OFFCURVE",
"416.446 1253 OFFCURVE",
"341.149 1274 CURVE",
"303.922 1216 LINE",
"348.159 1206 OFFCURVE",
"455.458 1168 OFFCURVE",
"497.226 1144 CURVE",
"329.835 1000 LINE",
"378.961 944 LINE",
"565.937 1114 LINE",
"709.125 1030 OFFCURVE",
"836.855 864 OFFCURVE",
"854.993 723 CURVE",
"835.577 749 OFFCURVE",
"752.505 845 OFFCURVE",
"545.505 845 CURVE SMOOTH",
"316.505 845 OFFCURVE",
"94.411 680 OFFCURVE",
"46.802 410 CURVE SMOOTH"
);
},
{
closed = 1;
nodes = (
"151.358 640 OFFCURVE",
"323.22 781 OFFCURVE",
"545.22 781 CURVE SMOOTH",
"784.22 781 OFFCURVE",
"891.237 662 OFFCURVE",
"846.802 410 CURVE SMOOTH",
"809.774 200 OFFCURVE",
"664.209 38 OFFCURVE",
"414.209 38 CURVE SMOOTH",
"186.209 38 OFFCURVE",
"73.245 197 OFFCURVE",
"110.802 410 CURVE SMOOTH"
);
}
);
width = 1070;
}
);
leftKerningGroup = eth;
rightKerningGroup = eth;
unicode = 00F0;
},
{
glyphname = dcroat;
layers = (
{
components = (
{
name = d;
alignment = -1;
}
);
layerId = "CA4C97A8-3BBB-4B31-B9EA-F36625F03808";
name = BlackItalic;
paths = (
{
closed = 1;
nodes = (
"1223.251 990 LINE",
"1263.101 1216 LINE",
"626.101 1216 LINE",
"586.251 990 LINE"
);
}
);
width = 1165;
},
{
components = (
{
name = d;
alignment = -1;
}
);
layerId = "B9A1D949-37EE-48C7-AA51-22036F480782";
name = ExtraLightItalic;
paths = (
{
closed = 1;
nodes = (
"1054.949 1045 LINE",
"1065.881 1107 LINE",
"646.881 1107 LINE",
"635.949 1045 LINE"
);
}
);
width = 989;
}
);
leftKerningGroup = o;
rightKerningGroup = l;
unicode = 0111;
},
{
glyphname = e;
leftMetricsKey = o;
rightMetricsKey = o;
layers = (
{
anchors = (
{
name = bottom;
position = "{471, 0}";
},
{
name = ogonek;
position = "{834, 16}";
},
{
name = top;
position = "{471, 821}";
}
);
layerId = "2901095D-0D1F-452E-9740-FD36640ECB41";
name = ":wt=500";
paths = (
{
closed = 1;
nodes = (
"879 360 LINE",
"881 370 OFFCURVE",
"882 415 OFFCURVE",
"882 426 CURVE SMOOTH",
"882 689 OFFCURVE",
"722 845 OFFCURVE",
"472 845 CURVE SMOOTH",
"203 845 OFFCURVE",
"47 660 OFFCURVE",
"47 420 CURVE SMOOTH",
"47 151 OFFCURVE",
"220 -24 OFFCURVE",
"488 -24 CURVE SMOOTH",
"691 -24 OFFCURVE",
"791 36 OFFCURVE",
"854 121 CURVE",
"759 250 LINE",
"726 202 OFFCURVE",
"642 132 OFFCURVE",
"501 132 CURVE SMOOTH",
"336 132 OFFCURVE",
"249 229 OFFCURVE",
"246 360 CURVE"
);
},
{
closed = 1;
nodes = (
"252 516 LINE",
"259 585 OFFCURVE",
"320 691 OFFCURVE",
"475 691 CURVE SMOOTH",
"625 691 OFFCURVE",
"679 579 OFFCURVE",
"682 516 CURVE"
);
}
);
width = 965;
},
{
anchors = (
{
name = bottom;
position = "{430, 0}";
},
{
name = ogonek;
position = "{826, 16}";
},
{
name = top;
position = "{574, 821}";
}
);
layerId = "CA4C97A8-3BBB-4B31-B9EA-F36625F03808";
name = BlackItalic;
paths = (
{
closed = 1;
nodes = (
"944.219 333 LINE",
"948.806 342 OFFCURVE",
"956.211 384 OFFCURVE",
"958.151 395 CURVE SMOOTH",
"1012.636 704 OFFCURVE",
"858.498 845 OFFCURVE",
"572.498 845 CURVE SMOOTH",
"276.498 845 OFFCURVE",
"73.525 658 OFFCURVE",
"31.383 419 CURVE SMOOTH",
"-22.397 114 OFFCURVE",
"172.27 -24 OFFCURVE",
"451.27 -24 CURVE SMOOTH",
"699.27 -24 OFFCURVE",
"808.263 27 OFFCURVE",
"851.495 51 CURVE",
"754.047 298 LINE",
"705.934 269 OFFCURVE",
"615.994 258 OFFCURVE",
"527.994 258 CURVE SMOOTH",
"445.994 258 OFFCURVE",
"389.755 285 OFFCURVE",
"389.219 333 CURVE"
);
},
{
closed = 1;
nodes = (
"425.607 494 LINE",
"439.303 566 OFFCURVE",
"487.887 592 OFFCURVE",
"533.887 592 CURVE SMOOTH",
"584.887 592 OFFCURVE",
"613.245 560 OFFCURVE",
"604.607 494 CURVE"
);
}
);
width = 1029;
},
{
anchors = (
{
name = bottom;
position = "{371, 0}";
},
{
name = ogonek;
position = "{713, 16}";
},
{
name = top;
position = "{515, 821}";
}
);
layerId = "B9A1D949-37EE-48C7-AA51-22036F480782";
name = ExtraLightItalic;
paths = (
{
closed = 1;
nodes = (
"816.854 416 LINE",
"818.617 426 OFFCURVE",
"822.733 438 OFFCURVE",
"824.849 450 CURVE SMOOTH",
"865.052 678 OFFCURVE",
"748.498 845 OFFCURVE",
"526.498 845 CURVE SMOOTH",
"276.498 845 OFFCURVE",
"99.054 661 OFFCURVE",
"56.736 421 CURVE SMOOTH",
"13.888 178 OFFCURVE",
"117.27 -24 OFFCURVE",
"376.27 -24 CURVE SMOOTH",
"546.27 -24 OFFCURVE",
"657.084 43 OFFCURVE",
"761.183 174 CURVE",
"709.236 214 LINE",
"671.304 152 OFFCURVE",
"571.202 38 OFFCURVE",
"390.202 38 CURVE SMOOTH",
"163.202 38 OFFCURVE",
"89.646 222 OFFCURVE",
"123.854 416 CURVE"
);
},
{
closed = 1;
nodes = (
"140.139 480 LINE",
"175.119 616 OFFCURVE",
"278.39 782 OFFCURVE",
"515.39 782 CURVE SMOOTH",
"739.39 782 OFFCURVE",
"778.061 610 OFFCURVE",
"759.139 480 CURVE"
);
}
);
width = 925;
}
);
leftKerningGroup = o;
rightKerningGroup = o;
unicode = 0065;
},
{
glyphname = f;
layers = (
{
anchors = (
{
name = bottom;
position = "{231, 0}";
},
{
name = top;
position = "{484, 1440}";
}
);
layerId = "CA4C97A8-3BBB-4B31-B9EA-F36625F03808";
name = BlackItalic;
paths = (
{
closed = 1;
nodes = (
"-19.089 501 LINE",
"94.911 501 LINE",
"6.571 0 LINE",
"399.571 0 LINE",
"487.911 501 LINE",
"670.911 501 LINE",
"727.336 821 LINE",
"544.336 821 LINE",
"575.016 995 LINE SMOOTH",
"584.714 1050 OFFCURVE",
"619.065 1069 OFFCURVE",
"647.065 1069 CURVE SMOOTH",
"678.065 1069 OFFCURVE",
"695.48 1043 OFFCURVE",
"700.541 1032 CURVE",
"898.794 1317 LINE",
"879.026 1341 OFFCURVE",
"809.429 1400 OFFCURVE",
"645.429 1400 CURVE SMOOTH",
"446.429 1400 OFFCURVE",
"228.567 1259 OFFCURVE",
"187.659 1027 CURVE SMOOTH",
"151.336 821 LINE",
"37.336 821 LINE"
);
}
);
width = 742;
},
{
anchors = (
{
name = bottom;
position = "{162, 0}";
},
{
name = top;
position = "{415, 1440}";
}
);
layerId = "B9A1D949-37EE-48C7-AA51-22036F480782";
name = ExtraLightItalic;
paths = (
{
closed = 1;
nodes = (
"44.227 758 LINE",
"239.227 758 LINE",
"105.571 0 LINE",
"167.571 0 LINE",
"301.227 758 LINE",
"560.227 758 LINE",
"571.336 821 LINE",
"312.336 821 LINE",
"353.42 1054 LINE SMOOTH",
"396.444 1298 OFFCURVE",
"494.673 1339 OFFCURVE",
"578.673 1339 CURVE SMOOTH",
"654.673 1339 OFFCURVE",
"689.03 1307 OFFCURVE",
"695.973 1301 CURVE",
"736.847 1357 LINE",
"730.728 1362 OFFCURVE",
"686.429 1400 OFFCURVE",
"595.429 1400 CURVE SMOOTH",
"480.429 1400 OFFCURVE",
"339.381 1326 OFFCURVE",
"293.712 1067 CURVE SMOOTH",
"250.336 821 LINE",
"55.336 821 LINE"
);
}
);
width = 610;
}
);
leftKerningGroup = f;
rightKerningGroup = f;
unicode = 0066;
},
{
glyphname = g;
layers = (
{
anchors = (
{
name = bottom;
position = "{418, -416}";
},
{
name = top;
position = "{636, 821}";
}
);
components = (
{
name = a;
transform = "{1, 0, 0, 1, 10.588, 0}";
alignment = -1;
}
);
layerId = "CA4C97A8-3BBB-4B31-B9EA-F36625F03808";
name = BlackItalic;
paths = (
{
closed = 1;
nodes = (
"684.918 -440 OFFCURVE",
"950.78 -299 OFFCURVE",
"999.623 -22 CURVE SMOOTH",
"1006.323 16 LINE",
"618.323 16 LINE",
"615.502 0 LINE SMOOTH",
"597.164 -104 OFFCURVE",
"512.169 -138 OFFCURVE",
"410.169 -138 CURVE SMOOTH",
"296.169 -138 OFFCURVE",
"227.632 -90 OFFCURVE",
"186.507 -34 CURVE",
"-77.459 -272 LINE",
"17.15 -416 OFFCURVE",
"217.918 -440 OFFCURVE",
"375.918 -440 CURVE SMOOTH"
);
}
);
width = 1174;
},
{
anchors = (
{
name = bottom;
position = "{375, -416}";
},
{
name = top;
position = "{593, 821}";
}
);
components = (
{
name = a;
transform = "{1, 0, 0, 1, 10.25, 0}";
alignment = -1;
}
);
layerId = "B9A1D949-37EE-48C7-AA51-22036F480782";
name = ExtraLightItalic;
paths = (
{
closed = 1;
nodes = (
"541.271 -438 OFFCURVE",
"737.838 -293 OFFCURVE",
"785.27 -24 CURVE SMOOTH",
"791.97 14 LINE",
"729.97 14 LINE",
"724.328 -18 LINE SMOOTH",
"691.178 -206 OFFCURVE",
"552.732 -373 OFFCURVE",
"341.732 -373 CURVE SMOOTH",
"129.732 -373 OFFCURVE",
"81.072 -286 OFFCURVE",
"58.065 -235 CURVE",
"-9.87 -280 LINE",
"22.906 -355 OFFCURVE",
"118.271 -438 OFFCURVE",
"330.271 -438 CURVE SMOOTH"
);
}
);
width = 1018;
}
);
leftKerningGroup = g;
rightKerningGroup = g;
unicode = 0067;
},
{
glyphname = h;
layers = (
{
anchors = (
{
name = bottom;
position = "{444, 0}";
},
{
name = center;
position = "{571, 720}";
},
{
name = top;
position = "{698, 1440}";
}
);
layerId = "CA4C97A8-3BBB-4B31-B9EA-F36625F03808";
name = BlackItalic;
paths = (
{
closed = 1;
nodes = (
"613.683 845 OFFCURVE",
"491.398 781 OFFCURVE",
"455.29 718 CURVE",
"571.313 1376 LINE",
"177.313 1376 LINE",
"-65.313 0 LINE",
"328.687 0 LINE",
"404.86 432 LINE SMOOTH",
"419.848 517 OFFCURVE",
"494.37 571 OFFCURVE",
"565.37 571 CURVE SMOOTH",
"635.37 571 OFFCURVE",
"663.848 517 OFFCURVE",
"648.86 432 CURVE SMOOTH",
"572.687 0 LINE",
"966.687 0 LINE",
"1053.616 493 LINE SMOOTH",
"1097.874 744 OFFCURVE",
"923.683 845 OFFCURVE",
"742.683 845 CURVE SMOOTH"
);
}
);
width = 1160;
},
{
anchors = (
{
name = bottom;
position = "{329, 0}";
},
{
name = center;
position = "{456, 720}";
},
{
name = top;
position = "{583, 1440}";
}
);
layerId = "B9A1D949-37EE-48C7-AA51-22036F480782";
name = ExtraLightItalic;
paths = (
{
closed = 1;
nodes = (
"369.683 845 OFFCURVE",
"220.524 725 OFFCURVE",
"196.829 653 CURVE",
"324.313 1376 LINE",
"257.313 1376 LINE",
"14.687 0 LINE",
"81.687 0 LINE",
"163.503 464 LINE SMOOTH",
"194.889 642 OFFCURVE",
"368.398 781 OFFCURVE",
"512.398 781 CURVE SMOOTH",
"656.398 781 OFFCURVE",
"746.469 702 OFFCURVE",
"711.027 501 CURVE SMOOTH",
"622.687 0 LINE",
"688.687 0 LINE",
"780.73 522 LINE SMOOTH",
"820.932 750 OFFCURVE",
"675.683 845 OFFCURVE",
"525.683 845 CURVE SMOOTH"
);
}
);
width = 970;
}
);
leftKerningGroup = h;
rightKerningGroup = n;
unicode = 0068;
},
{
glyphname = hbar;
layers = (
{
components = (
{
name = h;
alignment = -1;
}
);
layerId = "CA4C97A8-3BBB-4B31-B9EA-F36625F03808";
name = BlackItalic;
paths = (
{
closed = 1;
nodes = (
"650.251 990 LINE",
"690.101 1216 LINE",
"53.101 1216 LINE",
"13.251 990 LINE"
);
}
);
width = 1160;
},
{
components = (
{
name = h;
alignment = -1;
}
);
layerId = "B9A1D949-37EE-48C7-AA51-22036F480782";
name = ExtraLightItalic;
paths = (
{
closed = 1;
nodes = (
"504.949 1045 LINE",
"515.881 1107 LINE",
"95.881 1107 LINE",
"84.949 1045 LINE"
);
}
);
width = 970;
}
);
leftKerningGroup = h;
rightKerningGroup = n;
unicode = 0127;
},
{
glyphname = i;
layers = (
{
anchors = (
{
name = bottom;
position = "{157, 0}";
}
);
layerId = "CA4C97A8-3BBB-4B31-B9EA-F36625F03808";
name = BlackItalic;
paths = (
{
closed = 1;
nodes = (
"349.214 0 LINE",
"493.978 821 LINE",
"100.978 821 LINE",
"-43.786 0 LINE"
);
},
{
closed = 1;
nodes = (
"435.024 912 OFFCURVE",
"547.951 1008 OFFCURVE",
"568.229 1123 CURVE SMOOTH",
"588.859 1240 OFFCURVE",
"507.786 1336 OFFCURVE",
"392.786 1336 CURVE SMOOTH",
"275.786 1336 OFFCURVE",
"164.506 1238 OFFCURVE",
"144.229 1123 CURVE SMOOTH",
"123.951 1008 OFFCURVE",
"201.024 912 OFFCURVE",
"318.024 912 CURVE SMOOTH"
);
}
);
width = 568;
},
{
anchors = (
{
name = bottom;
position = "{65, 0}";
}
);
layerId = "B9A1D949-37EE-48C7-AA51-22036F480782";
name = ExtraLightItalic;
paths = (
{
closed = 1;
nodes = (
"95.919 0 LINE",
"240.683 821 LINE",
"176.683 821 LINE",
"31.919 0 LINE"
);
},
{
closed = 1;
nodes = (
"312.982 1197 OFFCURVE",
"349.096 1226 OFFCURVE",
"355.444 1262 CURVE SMOOTH",
"361.968 1299 OFFCURVE",
"335.081 1328 OFFCURVE",
"299.081 1328 CURVE SMOOTH",
"264.081 1328 OFFCURVE",
"228.968 1299 OFFCURVE",
"222.444 1262 CURVE SMOOTH",
"216.096 1226 OFFCURVE",
"239.982 1197 OFFCURVE",
"275.982 1197 CURVE SMOOTH"
);
}
);
width = 405;
}
);
leftKerningGroup = i;
rightKerningGroup = i;
unicode = 0069;
},
{
glyphname = idotless;
layers = (
{
anchors = (
{
name = bottom;
position = "{152, 0}";
},
{
name = ogonek;
position = "{354, 16}";
},
{
name = top;
position = "{296, 821}";
}
);
layerId = "CA4C97A8-3BBB-4B31-B9EA-F36625F03808";
name = BlackItalic;
paths = (
{
closed = 1;
nodes = (
"332.618 0 LINE",
"477.382 821 LINE",
"114.382 821 LINE",
"-30.382 0 LINE"
);
}
);
width = 470;
},
{
anchors = (
{
name = bottom;
position = "{78, 0}";
},
{
name = ogonek;
position = "{170, 16}";
},
{
name = top;
position = "{222, 821}";
}
);
layerId = "B9A1D949-37EE-48C7-AA51-22036F480782";
name = ExtraLightItalic;
paths = (
{
closed = 1;
nodes = (
"109.618 0 LINE",
"254.382 821 LINE",
"190.382 821 LINE",
"45.618 0 LINE"
);
}
);
width = 339;
}
);
leftKerningGroup = idotless;
rightKerningGroup = idotless;
unicode = 0131;
},
{
glyphname = j;
layers = (
{
layerId = "CA4C97A8-3BBB-4B31-B9EA-F36625F03808";
name = BlackItalic;
paths = (
{
closed = 1;
nodes = (
"164.63 -440 OFFCURVE",
"306.489 -282 OFFCURVE",
"340.168 -91 CURVE SMOOTH",
"500.978 821 LINE",
"106.978 821 LINE",
"-44.84 -40 LINE SMOOTH",
"-54.361 -94 OFFCURVE",
"-91.888 -114 OFFCURVE",
"-121.888 -114 CURVE SMOOTH",
"-142.888 -114 OFFCURVE",
"-167.006 -109 OFFCURVE",
"-187.832 -91 CURVE",
"-352.967 -381 LINE",
"-309.728 -408 OFFCURVE",
"-227.37 -440 OFFCURVE",
"-86.37 -440 CURVE SMOOTH"
);
},
{
closed = 1;
nodes = (
"438.024 912 OFFCURVE",
"550.951 1008 OFFCURVE",
"571.229 1123 CURVE SMOOTH",
"591.859 1240 OFFCURVE",
"511.786 1336 OFFCURVE",
"395.786 1336 CURVE SMOOTH",
"279.786 1336 OFFCURVE",
"167.506 1238 OFFCURVE",
"147.229 1123 CURVE SMOOTH",
"126.951 1008 OFFCURVE",
"205.024 912 OFFCURVE",
"321.024 912 CURVE SMOOTH"
);
}
);
width = 579;
},
{
layerId = "B9A1D949-37EE-48C7-AA51-22036F480782";
name = ExtraLightItalic;
paths = (
{
closed = 1;
nodes = (
"8.335 -440 OFFCURVE",
"71.965 -323 OFFCURVE",
"106.702 -126 CURVE SMOOTH",
"273.683 821 LINE",
"209.683 821 LINE",
"49.402 -88 LINE SMOOTH",
"19.25 -259 OFFCURVE",
"-15.38 -376 OFFCURVE",
"-133.38 -376 CURVE SMOOTH",
"-189.38 -376 OFFCURVE",
"-204.911 -362 OFFCURVE",
"-216.619 -349 CURVE",
"-266.141 -403 LINE",
"-251.962 -419 OFFCURVE",
"-207.665 -440 OFFCURVE",
"-143.665 -440 CURVE SMOOTH"
);
},
{
closed = 1;
nodes = (
"351.982 1197 OFFCURVE",
"385.096 1226 OFFCURVE",
"391.444 1262 CURVE SMOOTH",
"397.791 1298 OFFCURVE",
"375.081 1328 OFFCURVE",
"338.081 1328 CURVE SMOOTH",
"301.081 1328 OFFCURVE",
"266.791 1298 OFFCURVE",
"260.444 1262 CURVE SMOOTH",
"254.096 1226 OFFCURVE",
"277.982 1197 OFFCURVE",
"314.982 1197 CURVE SMOOTH"
);
}
);
width = 427;
}
);
leftKerningGroup = j;
rightKerningGroup = j;
unicode = 006A;
},
{
glyphname = jdotless;
layers = (
{
anchors = (
{
name = bottom;
position = "{144, -416}";
},
{
name = top;
position = "{362, 821}";
}
);
layerId = "CA4C97A8-3BBB-4B31-B9EA-F36625F03808";
name = BlackItalic;
paths = (
{
closed = 1;
nodes = (
"210.034 -440 OFFCURVE",
"351.894 -282 OFFCURVE",
"385.572 -91 CURVE SMOOTH",
"546.382 821 LINE",
"152.382 821 LINE",
"0.565 -40 LINE SMOOTH",
"-8.957 -94 OFFCURVE",
"-46.484 -114 OFFCURVE",
"-76.484 -114 CURVE SMOOTH",
"-97.484 -114 OFFCURVE",
"-121.602 -109 OFFCURVE",
"-142.428 -91 CURVE",
"-307.563 -381 LINE",
"-264.324 -408 OFFCURVE",
"-181.966 -440 OFFCURVE",
"-40.966 -440 CURVE SMOOTH"
);
}
);
width = 579;
},
{
anchors = (
{
name = bottom;
position = "{68, -416}";
},
{
name = top;
position = "{286, 821}";
}
);
layerId = "B9A1D949-37EE-48C7-AA51-22036F480782";
name = ExtraLightItalic;
paths = (
{
closed = 1;
nodes = (
"53.034 -440 OFFCURVE",
"116.664 -323 OFFCURVE",
"151.401 -126 CURVE SMOOTH",
"318.382 821 LINE",
"254.382 821 LINE",
"94.101 -88 LINE SMOOTH",
"63.949 -259 OFFCURVE",
"29.319 -376 OFFCURVE",
"-88.681 -376 CURVE SMOOTH",
"-144.681 -376 OFFCURVE",
"-160.213 -362 OFFCURVE",
"-171.92 -349 CURVE",
"-221.442 -403 LINE",
"-207.263 -419 OFFCURVE",
"-162.966 -440 OFFCURVE",
"-98.966 -440 CURVE SMOOTH"
);
}
);
width = 427;
}
);
leftKerningGroup = jdotless;
rightKerningGroup = jdotless;
unicode = 0237;
},
{
glyphname = k;
layers = (
{
anchors = (
{
name = bottom;
position = "{437, 0}";
},
{
name = top;
position = "{691, 1440}";
}
);
layerId = "CA4C97A8-3BBB-4B31-B9EA-F36625F03808";
name = BlackItalic;
paths = (
{
closed = 1;
nodes = (
"411.959 563 LINE",
"555.313 1376 LINE",
"161.313 1376 LINE",
"-81.313 0 LINE",
"312.687 0 LINE",
"366.819 307 LINE",
"585.687 0 LINE",
"1032.687 0 LINE",
"698.331 429 LINE",
"1130.451 821 LINE",
"693.451 821 LINE"
);
}
);
width = 1138;
},
{
anchors = (
{
name = bottom;
position = "{215, 0}";
},
{
name = top;
position = "{469, 1440}";
}
);
layerId = "B9A1D949-37EE-48C7-AA51-22036F480782";
name = ExtraLightItalic;
paths = (
{
closed = 1;
nodes = (
"120.15 462 LINE",
"281.313 1376 LINE",
"217.313 1376 LINE",
"-25.313 0 LINE",
"38.687 0 LINE",
"107.807 392 LINE",
"473.687 0 LINE",
"569.687 0 LINE",
"172.508 430 LINE",
"695.451 821 LINE",
"599.451 821 LINE"
);
}
);
width = 723;
}
);
leftKerningGroup = h;
rightKerningGroup = k;
unicode = 006B;
},
{
glyphname = kgreenlandic;
layers = (
{
anchors = (
{
name = bottom;
position = "{546, 0}";
},
{
name = top;
position = "{638, 821}";
}
);
layerId = "CA4C97A8-3BBB-4B31-B9EA-F36625F03808";
name = BlackItalic;
paths = (
{
closed = 1;
nodes = (
"1138.382 821 LINE",
"702.382 821 LINE",
"439.187 542 LINE",
"488.382 821 LINE",
"101.382 821 LINE",
"-43.382 0 LINE",
"343.618 0 LINE",
"391.931 274 LINE",
"591.618 0 LINE",
"1052.618 0 LINE",
"715.088 411 LINE"
);
}
);
width = 1158;
},
{
anchors = (
{
name = bottom;
position = "{338, 0}";
},
{
name = top;
position = "{482, 821}";
}
);
layerId = "B9A1D949-37EE-48C7-AA51-22036F480782";
name = ExtraLightItalic;
paths = (
{
closed = 1;
nodes = (
"741.382 821 LINE",
"658.382 821 LINE",
"217.438 430 LINE",
"286.382 821 LINE",
"222.382 821 LINE",
"77.618 0 LINE",
"141.618 0 LINE",
"213.207 406 LINE",
"543.618 0 LINE",
"628.618 0 LINE",
"287.38 424 LINE"
);
}
);
width = 734;
}
);
leftKerningGroup = h;
rightKerningGroup = k;
unicode = 0138;
},
{
glyphname = l;
layers = (
{
anchors = (
{
name = bottom;
position = "{141, 0}";
},
{
name = center;
position = "{309, 1045}";
},
{
name = top;
position = "{379, 1440}";
},
{
name = topright;
position = "{623, 1440}";
}
);
layerId = "CA4C97A8-3BBB-4B31-B9EA-F36625F03808";
name = BlackItalic;
paths = (
{
closed = 1;
nodes = (
"579.313 1376 LINE",
"185.313 1376 LINE",
"-57.313 0 LINE",
"336.687 0 LINE"
);
}
);
width = 547;
},
{
anchors = (
{
name = bottom;
position = "{45, 0}";
},
{
name = center;
position = "{204, 901}";
},
{
name = top;
position = "{299, 1440}";
},
{
name = topright;
position = "{397, 1440}";
}
);
layerId = "B9A1D949-37EE-48C7-AA51-22036F480782";
name = ExtraLightItalic;
paths = (
{
closed = 1;
nodes = (
"321.313 1376 LINE",
"255.313 1376 LINE",
"12.687 0 LINE",
"78.687 0 LINE"
);
}
);
width = 373;
}
);
leftKerningGroup = h;
rightKerningGroup = l;
unicode = 006C;
},
{
glyphname = lslash;
layers = (
{
layerId = "CA4C97A8-3BBB-4B31-B9EA-F36625F03808";
name = BlackItalic;
paths = (
{
closed = 1;
nodes = (
"366.687 0 LINE",
"496.993 739 LINE",
"639.273 837 LINE",
"691.113 1131 LINE",
"549.009 1034 LINE",
"609.313 1376 LINE",
"247.313 1376 LINE",
"136.932 750 LINE",
"-13.582 645 LINE",
"-65.599 350 LINE",
"85.092 456 LINE",
"4.687 0 LINE"
);
}
);
width = 630;
},
{
layerId = "B9A1D949-37EE-48C7-AA51-22036F480782";
name = ExtraLightItalic;
paths = (
{
closed = 1;
nodes = (
"107.687 0 LINE",
"224.239 661 LINE",
"354.932 750 LINE",
"373.976 858 LINE",
"243.106 768 LINE",
"350.313 1376 LINE",
"284.313 1376 LINE",
"167.761 715 LINE",
"66.418 645 LINE",
"47.551 538 LINE",
"148.894 608 LINE",
"41.687 0 LINE"
);
}
);
width = 458;
}
);
leftKerningGroup = lslash;
rightKerningGroup = lslash;
unicode = 0142;
},
{
glyphname = m;
layers = (
{
anchors = (
{
name = bottom;
position = "{750, 0}";
},
{
name = top;
position = "{894, 821}";
}
);
layerId = "CA4C97A8-3BBB-4B31-B9EA-F36625F03808";
name = BlackItalic;
paths = (
{
closed = 1;
nodes = (
"1229.498 845 OFFCURVE",
"1088.45 771 OFFCURVE",
"1052.518 709 CURVE",
"1018.034 797 OFFCURVE",
"959.498 845 OFFCURVE",
"816.498 845 CURVE SMOOTH",
"685.498 845 OFFCURVE",
"541.45 771 OFFCURVE",
"504.694 710 CURVE",
"524.266 821 LINE",
"134.266 821 LINE",
"-10.498 0 LINE",
"379.502 0 LINE",
"455.675 432 LINE SMOOTH",
"467.842 501 OFFCURVE",
"514.185 571 OFFCURVE",
"599.185 571 CURVE SMOOTH",
"684.185 571 OFFCURVE",
"684.018 502 OFFCURVE",
"671.675 432 CURVE SMOOTH",
"595.502 0 LINE",
"954.502 0 LINE",
"1030.675 432 LINE SMOOTH",
"1042.842 501 OFFCURVE",
"1087.185 571 OFFCURVE",
"1172.185 571 CURVE SMOOTH",
"1256.185 571 OFFCURVE",
"1259.018 502 OFFCURVE",
"1246.675 432 CURVE SMOOTH",
"1170.502 0 LINE",
"1557.502 0 LINE",
"1643.02 485 LINE SMOOTH",
"1687.279 736 OFFCURVE",
"1560.498 845 OFFCURVE",
"1372.498 845 CURVE SMOOTH"
);
}
);
width = 1696;
},
{
anchors = (
{
name = bottom;
position = "{619, 0}";
},
{
name = top;
position = "{763, 821}";
}
);
layerId = "B9A1D949-37EE-48C7-AA51-22036F480782";
name = ExtraLightItalic;
paths = (
{
closed = 1;
nodes = (
"908.498 845 OFFCURVE",
"782.397 731 OFFCURVE",
"735.941 632 CURVE",
"740.165 707 OFFCURVE",
"690.498 845 OFFCURVE",
"538.498 845 CURVE SMOOTH",
"391.498 845 OFFCURVE",
"279.747 750 OFFCURVE",
"249.815 688 CURVE",
"273.266 821 LINE",
"209.266 821 LINE",
"64.502 0 LINE",
"128.502 0 LINE",
"207.496 448 LINE SMOOTH",
"251.225 696 OFFCURVE",
"396.861 779 OFFCURVE",
"512.861 779 CURVE SMOOTH",
"636.861 779 OFFCURVE",
"709.404 680 OFFCURVE",
"668.496 448 CURVE SMOOTH",
"589.502 0 LINE",
"653.502 0 LINE",
"732.496 448 LINE SMOOTH",
"775.167 690 OFFCURVE",
"928.861 779 OFFCURVE",
"1043.861 779 CURVE SMOOTH",
"1198.861 779 OFFCURVE",
"1235.404 680 OFFCURVE",
"1194.496 448 CURVE SMOOTH",
"1115.502 0 LINE",
"1179.502 0 LINE",
"1263.081 474 LINE SMOOTH",
"1307.339 725 OFFCURVE",
"1240.498 845 OFFCURVE",
"1060.498 845 CURVE SMOOTH"
);
}
);
width = 1424;
}
);
leftKerningGroup = n;
rightKerningGroup = n;
unicode = 006D;
},
{
glyphname = n;
layers = (
{
anchors = (
{
name = bottom;
position = "{481, 0}";
},
{
name = top;
position = "{625, 821}";
}
);
layerId = "CA4C97A8-3BBB-4B31-B9EA-F36625F03808";
name = BlackItalic;
paths = (
{
closed = 1;
nodes = (
"652.498 845 OFFCURVE",
"530.213 781 OFFCURVE",
"494.105 718 CURVE",
"512.266 821 LINE",
"118.266 821 LINE",
"-26.498 0 LINE",
"367.502 0 LINE",
"443.675 432 LINE SMOOTH",
"458.663 517 OFFCURVE",
"525.185 571 OFFCURVE",
"596.185 571 CURVE SMOOTH",
"666.185 571 OFFCURVE",
"702.663 517 OFFCURVE",
"687.675 432 CURVE SMOOTH",
"611.502 0 LINE",
"1005.502 0 LINE",
"1092.431 493 LINE SMOOTH",
"1136.689 744 OFFCURVE",
"962.498 845 OFFCURVE",
"781.498 845 CURVE SMOOTH"
);
}
);
width = 1152;
},
{
anchors = (
{
name = bottom;
position = "{368, 0}";
},
{
name = top;
position = "{512, 821}";
}
);
layerId = "B9A1D949-37EE-48C7-AA51-22036F480782";
name = ExtraLightItalic;
paths = (
{
closed = 1;
nodes = (
"413.498 845 OFFCURVE",
"263.339 725 OFFCURVE",
"238.643 653 CURVE",
"268.266 821 LINE",
"204.266 821 LINE",
"59.502 0 LINE",
"123.502 0 LINE",
"205.318 464 LINE SMOOTH",
"236.704 642 OFFCURVE",
"410.213 781 OFFCURVE",
"554.213 781 CURVE SMOOTH",
"698.213 781 OFFCURVE",
"788.283 702 OFFCURVE",
"752.842 501 CURVE SMOOTH",
"664.502 0 LINE",
"730.502 0 LINE",
"822.545 522 LINE SMOOTH",
"862.747 750 OFFCURVE",
"717.498 845 OFFCURVE",
"567.498 845 CURVE SMOOTH"
);
}
);
width = 954;
}
);
leftKerningGroup = n;
rightKerningGroup = n;
unicode = 006E;
},
{
glyphname = eng;
layers = (
{
components = (
{
name = n;
alignment = -1;
}
);
layerId = "CA4C97A8-3BBB-4B31-B9EA-F36625F03808";
name = BlackItalic;
paths = (
{
closed = 1;
nodes = (
"1000.212 -30 LINE SMOOTH",
"970.236 -200 OFFCURVE",
"797.918 -440 OFFCURVE",
"546.918 -440 CURVE SMOOTH",
"389.918 -440 OFFCURVE",
"331.089 -405 OFFCURVE",
"296.321 -381 CURVE",
"468.574 -96 LINE",
"480.164 -104 OFFCURVE",
"505.401 -114 OFFCURVE",
"531.401 -114 CURVE SMOOTH",
"561.401 -114 OFFCURVE",
"594.927 -94 OFFCURVE",
"607.27 -24 CURVE SMOOTH",
"611.502 0 LINE",
"1005.502 0 LINE"
);
}
);
width = 1152;
},
{
components = (
{
name = n;
alignment = -1;
}
);
layerId = "B9A1D949-37EE-48C7-AA51-22036F480782";
name = ExtraLightItalic;
paths = (
{
closed = 1;
nodes = (
"708.285 -126 LINE SMOOTH",
"679.191 -291 OFFCURVE",
"616.739 -424 OFFCURVE",
"460.739 -424 CURVE SMOOTH",
"384.739 -424 OFFCURVE",
"340.5 -397 OFFCURVE",
"339.029 -394 CURVE",
"387.667 -328 LINE",
"399.198 -342 OFFCURVE",
"433.024 -360 OFFCURVE",
"483.024 -360 CURVE SMOOTH",
"601.024 -360 OFFCURVE",
"627.297 -211 OFFCURVE",
"651.806 -72 CURVE SMOOTH",
"664.502 0 LINE",
"730.502 0 LINE"
);
}
);
width = 954;
}
);
leftKerningGroup = n;
rightKerningGroup = j;
unicode = 014B;
},
{
glyphname = o;
layers = (
{
anchors = (
{
name = bottom;
position = "{403, -186}";
},
{
name = center;
position = "{541, 597}";
},
{
name = ogonek;
position = "{846, 16}";
},
{
name = top;
position = "{580, 821}";
},
{
name = topright;
position = "{812, 789}";
}
);
layerId = "CA4C97A8-3BBB-4B31-B9EA-F36625F03808";
name = BlackItalic;
paths = (
{
closed = 1;
nodes = (
"715.27 -24 OFFCURVE",
"941.304 152 OFFCURVE",
"986.443 408 CURVE SMOOTH",
"1031.583 664 OFFCURVE",
"868.498 845 OFFCURVE",
"588.498 845 CURVE SMOOTH",
"308.498 845 OFFCURVE",
"74.583 664 OFFCURVE",
"29.443 408 CURVE SMOOTH",
"-15.696 152 OFFCURVE",
"155.27 -24 OFFCURVE",
"435.27 -24 CURVE SMOOTH"
);
},
{
closed = 1;
nodes = (
"425.695 296 OFFCURVE",
"393.277 339 OFFCURVE",
"405.796 410 CURVE SMOOTH",
"418.139 480 OFFCURVE",
"466.074 525 OFFCURVE",
"532.074 525 CURVE SMOOTH",
"597.074 525 OFFCURVE",
"628.139 480 OFFCURVE",
"615.796 410 CURVE SMOOTH",
"603.277 339 OFFCURVE",
"556.695 296 OFFCURVE",
"491.695 296 CURVE SMOOTH"
);
}
);
width = 1053;
},
{
anchors = (
{
name = bottom;
position = "{377, -102}";
},
{
name = center;
position = "{485, 514}";
},
{
name = ogonek;
position = "{750, 16}";
},
{
name = top;
position = "{539, 821}";
},
{
name = topright;
position = "{741, 781}";
}
);
layerId = "B9A1D949-37EE-48C7-AA51-22036F480782";
name = ExtraLightItalic;
paths = (
{
closed = 1;
nodes = (
"631.27 -24 OFFCURVE",
"835.125 168 OFFCURVE",
"877.443 408 CURVE SMOOTH",
"919.762 648 OFFCURVE",
"784.498 845 OFFCURVE",
"544.498 845 CURVE SMOOTH",
"304.498 845 OFFCURVE",
"97.762 648 OFFCURVE",
"55.443 408 CURVE SMOOTH",
"13.125 168 OFFCURVE",
"151.27 -24 OFFCURVE",
"391.27 -24 CURVE SMOOTH"
);
},
{
closed = 1;
nodes = (
"194.555 40 OFFCURVE",
"82.767 200 OFFCURVE",
"119.443 408 CURVE SMOOTH",
"156.119 616 OFFCURVE",
"325.213 781 OFFCURVE",
"533.213 781 CURVE SMOOTH",
"741.213 781 OFFCURVE",
"850.119 616 OFFCURVE",
"813.443 408 CURVE SMOOTH",
"776.767 200 OFFCURVE",
"610.555 40 OFFCURVE",
"402.555 40 CURVE SMOOTH"
);
}
);
width = 978;
}
);
leftKerningGroup = o;
rightKerningGroup = o;
unicode = 006F;
},
{
glyphname = oslash;
layers = (
{
components = (
{
name = o;
alignment = -1;
}
);
layerId = "CA4C97A8-3BBB-4B31-B9EA-F36625F03808";
name = BlackItalic;
paths = (
{
closed = 1;
nodes = (
"-34.47 29 LINE",
"47.071 -53 LINE",
"1033.125 798 LINE",
"951.584 880 LINE"
);
}
);
width = 1026;
},
{
components = (
{
name = o;
alignment = -1;
}
);
layerId = "B9A1D949-37EE-48C7-AA51-22036F480782";
name = ExtraLightItalic;
paths = (
{
closed = 1;
nodes = (
"-29.06 21 LINE",
"7.534 -21 LINE",
"969.357 806 LINE",
"932.763 848 LINE"
);
}
);
width = 978;
}
);
leftKerningGroup = o;
rightKerningGroup = o;
unicode = 00F8;
},
{
glyphname = p;
layers = (
{
anchors = (
{
name = bottom;
position = "{505, 0}";
},
{
name = top;
position = "{649, 821}";
}
);
layerId = "CA4C97A8-3BBB-4B31-B9EA-F36625F03808";
name = BlackItalic;
paths = (
{
closed = 1;
nodes = (
"398.779 115 LINE",
"413.255 78 OFFCURVE",
"475.27 -24 OFFCURVE",
"638.27 -24 CURVE SMOOTH",
"884.27 -24 OFFCURVE",
"1067.946 184 OFFCURVE",
"1107.796 410 CURVE SMOOTH",
"1147.469 635 OFFCURVE",
"1053.498 845 OFFCURVE",
"807.498 845 CURVE SMOOTH",
"666.498 845 OFFCURVE",
"553.332 776 OFFCURVE",
"509.339 725 CURVE",
"526.266 821 LINE",
"134.266 821 LINE",
"-83.85 -416 LINE",
"305.15 -416 LINE"
);
},
{
closed = 1;
nodes = (
"710.629 341 OFFCURVE",
"644.873 280 OFFCURVE",
"564.873 280 CURVE SMOOTH",
"484.873 280 OFFCURVE",
"441.629 341 OFFCURVE",
"453.796 410 CURVE SMOOTH",
"465.786 478 OFFCURVE",
"530.895 541 OFFCURVE",
"610.895 541 CURVE SMOOTH",
"690.895 541 OFFCURVE",
"734.786 478 OFFCURVE",
"722.796 410 CURVE SMOOTH"
);
}
);
width = 1174;
},
{
anchors = (
{
name = bottom;
position = "{417, 0}";
},
{
name = top;
position = "{561, 821}";
}
);
layerId = "B9A1D949-37EE-48C7-AA51-22036F480782";
name = ExtraLightItalic;
paths = (
{
closed = 1;
nodes = (
"152.593 182 LINE",
"149.014 122 OFFCURVE",
"259.27 -24 OFFCURVE",
"460.27 -24 CURVE SMOOTH",
"679.27 -24 OFFCURVE",
"887.424 130 OFFCURVE",
"936.796 410 CURVE SMOOTH",
"986.167 690 OFFCURVE",
"832.498 845 OFFCURVE",
"613.498 845 CURVE SMOOTH",
"413.498 845 OFFCURVE",
"254.989 706 OFFCURVE",
"235.998 638 CURVE",
"268.266 821 LINE",
"200.266 821 LINE",
"-17.85 -416 LINE",
"47.15 -416 LINE"
);
},
{
closed = 1;
nodes = (
"830.888 178 OFFCURVE",
"649.555 40 OFFCURVE",
"478.555 40 CURVE SMOOTH",
"287.555 40 OFFCURVE",
"155.593 182 OFFCURVE",
"195.796 410 CURVE SMOOTH",
"235.822 637 OFFCURVE",
"418.213 781 OFFCURVE",
"609.213 781 CURVE SMOOTH",
"780.213 781 OFFCURVE",
"912.704 642 OFFCURVE",
"871.796 410 CURVE SMOOTH"
);
}
);
width = 1021;
}
);
leftKerningGroup = p;
rightKerningGroup = o;
unicode = 0070;
},
{
glyphname = thorn;
layers = (
{
components = (
{
name = b;
alignment = -1;
}
);
layerId = "CA4C97A8-3BBB-4B31-B9EA-F36625F03808";
name = BlackItalic;
paths = (
{
closed = 1;
nodes = (
"-130.665 -416 LINE",
"258.335 -416 LINE",
"331.687 0 LINE",
"-57.313 0 LINE"
);
}
);
width = 1165;
},
{
components = (
{
name = b;
alignment = -1;
}
);
layerId = "B9A1D949-37EE-48C7-AA51-22036F480782";
name = ExtraLightItalic;
paths = (
{
closed = 1;
nodes = (
"-74.665 -416 LINE",
"-10.665 -416 LINE",
"62.687 0 LINE",
"-1.313 0 LINE"
);
}
);
width = 989;
}
);
leftKerningGroup = h;
rightKerningGroup = o;
unicode = 00FE;
},
{
glyphname = r;
layers = (
{
anchors = (
{
name = bottom;
position = "{332, 0}";
},
{
name = top;
position = "{476, 821}";
}
);
layerId = "CA4C97A8-3BBB-4B31-B9EA-F36625F03808";
name = BlackItalic;
paths = (
{
closed = 1;
nodes = (
"414.211 384 LINE SMOOTH",
"425.849 450 OFFCURVE",
"478.484 533 OFFCURVE",
"595.484 533 CURVE SMOOTH",
"667.484 533 OFFCURVE",
"711.313 498 OFFCURVE",
"723.728 472 CURVE",
"930.8 790 LINE",
"901.032 814 OFFCURVE",
"832.498 845 OFFCURVE",
"757.498 845 CURVE SMOOTH",
"589.498 845 OFFCURVE",
"494.218 747 OFFCURVE",
"465.636 704 CURVE",
"470.636 704 LINE",
"491.266 821 LINE",
"97.266 821 LINE",
"-47.498 0 LINE",
"346.502 0 LINE"
);
}
);
width = 858;
},
{
anchors = (
{
name = bottom;
position = "{243, 0}";
},
{
name = top;
position = "{387, 821}";
}
);
layerId = "B9A1D949-37EE-48C7-AA51-22036F480782";
name = ExtraLightItalic;
paths = (
{
closed = 1;
nodes = (
"214.197 486 LINE SMOOTH",
"234.298 600 OFFCURVE",
"362.213 781 OFFCURVE",
"503.213 781 CURVE SMOOTH",
"570.213 781 OFFCURVE",
"614.51 760 OFFCURVE",
"631.042 746 CURVE",
"672.092 803 LINE",
"656.266 821 OFFCURVE",
"604.498 845 OFFCURVE",
"527.498 845 CURVE SMOOTH",
"378.498 845 OFFCURVE",
"255.457 720 OFFCURVE",
"241.112 667 CURVE",
"246.112 667 LINE",
"273.266 821 LINE",
"211.266 821 LINE",
"66.502 0 LINE",
"128.502 0 LINE"
);
}
);
width = 621;
}
);
leftKerningGroup = n;
rightKerningGroup = r;
unicode = 0072;
},
{
glyphname = s;
layers = (
{
anchors = (
{
name = bottom;
position = "{364, 0}";
},
{
name = top;
position = "{508, 821}";
}
);
layerId = "CA4C97A8-3BBB-4B31-B9EA-F36625F03808";
name = BlackItalic;
paths = (
{
closed = 1;
nodes = (
"349.498 845 OFFCURVE",
"138.392 765 OFFCURVE",
"107.006 587 CURVE SMOOTH",
"74.385 402 OFFCURVE",
"231.629 341 OFFCURVE",
"321.455 323 CURVE SMOOTH",
"395.987 309 OFFCURVE",
"425.695 296 OFFCURVE",
"421.992 275 CURVE SMOOTH",
"418.642 256 OFFCURVE",
"386.878 246 OFFCURVE",
"320.878 246 CURVE SMOOTH",
"240.878 246 OFFCURVE",
"161.166 293 OFFCURVE",
"130.926 320 CURVE",
"-30.684 67 LINE",
"-5.563 45 OFFCURVE",
"100.27 -24 OFFCURVE",
"313.27 -24 CURVE SMOOTH",
"495.27 -24 OFFCURVE",
"763.205 21 OFFCURVE",
"808.344 277 CURVE SMOOTH",
"839.378 453 OFFCURVE",
"687.429 510 OFFCURVE",
"580.955 530 CURVE SMOOTH",
"506.071 542 OFFCURVE",
"473.363 555 OFFCURVE",
"477.066 576 CURVE SMOOTH",
"480.769 597 OFFCURVE",
"514.827 603 OFFCURVE",
"559.827 603 CURVE SMOOTH",
"641.827 603 OFFCURVE",
"711.127 565 OFFCURVE",
"732.305 549 CURVE",
"892.332 776 LINE",
"873.153 792 OFFCURVE",
"735.498 845 OFFCURVE",
"554.498 845 CURVE SMOOTH"
);
}
);
width = 898;
},
{
anchors = (
{
name = bottom;
position = "{286, 0}";
},
{
name = top;
position = "{430, 821}";
}
);
layerId = "B9A1D949-37EE-48C7-AA51-22036F480782";
name = ExtraLightItalic;
paths = (
{
closed = 1;
nodes = (
"298.498 845 OFFCURVE",
"157.158 758 OFFCURVE",
"135.469 635 CURVE SMOOTH",
"111.842 501 OFFCURVE",
"213.733 438 OFFCURVE",
"350.385 402 CURVE SMOOTH",
"457.272 373 OFFCURVE",
"560.748 336 OFFCURVE",
"539.941 218 CURVE SMOOTH",
"521.25 112 OFFCURVE",
"407.555 40 OFFCURVE",
"273.555 40 CURVE SMOOTH",
"162.555 40 OFFCURVE",
"87.019 88 OFFCURVE",
"59.543 125 CURVE",
"3.139 66 LINE",
"39.263 27 OFFCURVE",
"134.27 -24 OFFCURVE",
"257.27 -24 CURVE SMOOTH",
"428.27 -24 OFFCURVE",
"580.729 58 OFFCURVE",
"608.941 218 CURVE SMOOTH",
"635.39 368 OFFCURVE",
"537.383 419 OFFCURVE",
"396.26 458 CURVE SMOOTH",
"270.431 493 OFFCURVE",
"187.071 542 OFFCURVE",
"203.293 634 CURVE SMOOTH",
"219.868 728 OFFCURVE",
"324.213 781 OFFCURVE",
"442.213 781 CURVE SMOOTH",
"530.213 781 OFFCURVE",
"597.336 742 OFFCURVE",
"622.399 714 CURVE",
"674.568 766 LINE",
"639.563 800 OFFCURVE",
"554.498 845 OFFCURVE",
"453.498 845 CURVE SMOOTH"
);
}
);
width = 758;
}
);
leftKerningGroup = s;
rightKerningGroup = s;
unicode = 0073;
},
{
glyphname = germandbls;
layers = (
{
anchors = (
{
name = bottom;
position = "{435, 0}";
},
{
name = top;
position = "{579, 821}";
}
);
layerId = "CA4C97A8-3BBB-4B31-B9EA-F36625F03808";
name = BlackItalic;
paths = (
{
closed = 1;
nodes = (
"472.339 -24 LINE",
"757.339 -24 OFFCURVE",
"1028.547 170 OFFCURVE",
"1072.981 422 CURVE SMOOTH",
"1104.367 600 OFFCURVE",
"1030.176 701 OFFCURVE",
"911.229 741 CURVE",
"1015.869 790 OFFCURVE",
"1092.149 888 OFFCURVE",
"1112.956 1006 CURVE SMOOTH",
"1157.39 1258 OFFCURVE",
"1006.429 1400 OFFCURVE",
"721.429 1400 CURVE SMOOTH",
"438.429 1400 OFFCURVE",
"209.395 1224 OFFCURVE",
"151.56 896 CURVE SMOOTH",
"-6.429 0 LINE",
"354.571 0 LINE",
"519.261 934 LINE SMOOTH",
"537.07 1035 OFFCURVE",
"598.178 1098 OFFCURVE",
"675.178 1098 CURVE SMOOTH",
"756.178 1098 OFFCURVE",
"784.42 1054 OFFCURVE",
"772.077 984 CURVE SMOOTH",
"758.323 906 OFFCURVE",
"679.447 867 OFFCURVE",
"629.447 867 CURVE",
"582.367 600 LINE",
"660.367 600 OFFCURVE",
"712.433 555 OFFCURVE",
"694.447 453 CURVE SMOOTH",
"676.109 349 OFFCURVE",
"596.822 302 OFFCURVE",
"529.822 302 CURVE"
);
}
);
width = 1202;
},
{
anchors = (
{
name = bottom;
position = "{279, 0}";
},
{
name = top;
position = "{423, 821}";
}
);
layerId = "B9A1D949-37EE-48C7-AA51-22036F480782";
name = ExtraLightItalic;
paths = (
{
closed = 1;
nodes = (
"234.339 -24 LINE",
"518.339 -24 OFFCURVE",
"709.849 115 OFFCURVE",
"754.459 368 CURVE SMOOTH",
"790.783 574 OFFCURVE",
"638.763 710 OFFCURVE",
"510.585 726 CURVE",
"613.758 744 OFFCURVE",
"797.21 877 OFFCURVE",
"831.065 1069 CURVE SMOOTH",
"869.68 1288 OFFCURVE",
"758.429 1400 OFFCURVE",
"573.429 1400 CURVE SMOOTH",
"369.429 1400 OFFCURVE",
"190.335 1235 OFFCURVE",
"148.016 995 CURVE",
"-27.429 0 LINE",
"36.571 0 LINE",
"210.43 986 LINE SMOOTH",
"241.11 1160 OFFCURVE",
"366.144 1336 OFFCURVE",
"562.144 1336 CURVE SMOOTH",
"693.144 1336 OFFCURVE",
"800.212 1274 OFFCURVE",
"765.475 1077 CURVE SMOOTH",
"732.149 888 OFFCURVE",
"583.169 752 OFFCURVE",
"371.169 752 CURVE",
"359.884 688 LINE",
"600.884 688 OFFCURVE",
"724.254 571 OFFCURVE",
"687.93 365 CURVE SMOOTH",
"657.779 194 OFFCURVE",
"515.624 40 OFFCURVE",
"245.624 40 CURVE"
);
}
);
width = 926;
}
);
leftKerningGroup = h;
rightKerningGroup = germandbls;
unicode = 00DF;
},
{
glyphname = t;
layers = (
{
anchors = (
{
name = bottom;
position = "{312, -8}";
},
{
name = center;
position = "{307, 597}";
},
{
name = top;
position = "{419, 1035}";
},
{
name = topright;
position = "{688, 821}";
}
);
layerId = "CA4C97A8-3BBB-4B31-B9EA-F36625F03808";
name = BlackItalic;
paths = (
{
closed = 1;
nodes = (
"-13.754 501 LINE",
"111.246 501 LINE",
"73.689 288 LINE SMOOTH",
"36.484 77 OFFCURVE",
"151.675 -24 OFFCURVE",
"341.675 -24 CURVE SMOOTH",
"499.675 -24 OFFCURVE",
"641.549 32 OFFCURVE",
"661.018 46 CURVE",
"581.86 323 LINE",
"575.802 317 OFFCURVE",
"544.628 299 OFFCURVE",
"518.628 299 CURVE SMOOTH",
"468.628 299 OFFCURVE",
"473.092 347 OFFCURVE",
"481.556 395 CURVE SMOOTH",
"500.246 501 LINE",
"666.246 501 LINE",
"722.671 821 LINE",
"556.671 821 LINE",
"616.093 1158 LINE",
"227.093 1158 LINE",
"167.671 821 LINE",
"42.671 821 LINE"
);
}
);
width = 771;
},
{
anchors = (
{
name = bottom;
position = "{304, -8}";
},
{
name = center;
position = "{253, 514}";
},
{
name = top;
position = "{374, 1085}";
},
{
name = topright;
position = "{550, 821}";
}
);
layerId = "B9A1D949-37EE-48C7-AA51-22036F480782";
name = ExtraLightItalic;
paths = (
{
closed = 1;
nodes = (
"84.386 757 LINE",
"263.386 757 LINE",
"162.703 186 LINE SMOOTH",
"136.607 38 OFFCURVE",
"203.675 -24 OFFCURVE",
"301.675 -24 CURVE SMOOTH",
"384.675 -24 OFFCURVE",
"436.199 13 OFFCURVE",
"448.139 24 CURVE",
"418.484 77 LINE",
"412.25 70 OFFCURVE",
"376.96 40 OFFCURVE",
"314.96 40 CURVE SMOOTH",
"253.96 40 OFFCURVE",
"208.013 80 OFFCURVE",
"229.525 202 CURVE SMOOTH",
"327.386 757 LINE",
"561.386 757 LINE",
"572.671 821 LINE",
"338.671 821 LINE",
"398.093 1158 LINE",
"334.093 1158 LINE",
"274.671 821 LINE",
"95.671 821 LINE"
);
}
);
width = 608;
}
);
leftKerningGroup = t;
rightKerningGroup = t;
unicode = 0074;
},
{
glyphname = tbar;
layers = (
{
components = (
{
name = t;
alignment = -1;
}
);
layerId = "CA4C97A8-3BBB-4B31-B9EA-F36625F03808";
name = BlackItalic;
paths = (
{
closed = 1;
nodes = (
"-41.966 341 LINE",
"636.034 341 LINE",
"659.133 472 LINE",
"-18.867 472 LINE"
);
}
);
width = 752;
},
{
components = (
{
name = t;
alignment = -1;
}
);
layerId = "B9A1D949-37EE-48C7-AA51-22036F480782";
name = ExtraLightItalic;
paths = (
{
closed = 1;
nodes = (
"37.425 485 LINE",
"514.425 485 LINE",
"525.71 549 LINE",
"48.71 549 LINE"
);
}
);
width = 608;
}
);
leftKerningGroup = t;
rightKerningGroup = t;
unicode = 0167;
},
{
glyphname = u;
layers = (
{
anchors = (
{
name = bottom;
position = "{488, 0}";
},
{
name = ogonek;
position = "{940, 16}";
},
{
name = top;
position = "{632, 821}";
},
{
name = topright;
position = "{1138, 821}";
}
);
layerId = "CA4C97A8-3BBB-4B31-B9EA-F36625F03808";
name = BlackItalic;
paths = (
{
closed = 1;
nodes = (
"515.382 821 LINE",
"128.382 821 LINE",
"58.733 426 LINE SMOOTH",
"9.362 146 OFFCURVE",
"163.386 -24 OFFCURVE",
"483.386 -24 CURVE SMOOTH",
"805.386 -24 OFFCURVE",
"1019.362 146 OFFCURVE",
"1068.733 426 CURVE SMOOTH",
"1138.382 821 LINE",
"750.382 821 LINE",
"687.433 464 LINE SMOOTH",
"669.448 362 OFFCURVE",
"632.811 296 OFFCURVE",
"539.811 296 CURVE SMOOTH",
"448.811 296 OFFCURVE",
"434.448 362 OFFCURVE",
"452.433 464 CURVE SMOOTH"
);
}
);
width = 1146;
},
{
anchors = (
{
name = bottom;
position = "{389, 0}";
},
{
name = ogonek;
position = "{730, 16}";
},
{
name = top;
position = "{533, 821}";
},
{
name = topright;
position = "{877, 821}";
}
);
layerId = "B9A1D949-37EE-48C7-AA51-22036F480782";
name = ExtraLightItalic;
paths = (
{
closed = 1;
nodes = (
"253.382 821 LINE",
"189.382 821 LINE",
"108.448 362 LINE SMOOTH",
"69.656 142 OFFCURVE",
"163.386 -24 OFFCURVE",
"384.386 -24 CURVE SMOOTH",
"605.386 -24 OFFCURVE",
"757.656 142 OFFCURVE",
"796.448 362 CURVE SMOOTH",
"877.382 821 LINE",
"813.382 821 LINE",
"735.446 379 LINE SMOOTH",
"698.77 171 OFFCURVE",
"580.671 40 OFFCURVE",
"395.671 40 CURVE SMOOTH",
"209.671 40 OFFCURVE",
"138.77 171 OFFCURVE",
"175.446 379 CURVE SMOOTH"
);
}
);
width = 962;
}
);
leftKerningGroup = u;
rightKerningGroup = u;
unicode = 0075;
},
{
glyphname = v;
layers = (
{
anchors = (
{
name = bottom;
position = "{499, 0}";
},
{
name = top;
position = "{643, 821}";
}
);
layerId = "CA4C97A8-3BBB-4B31-B9EA-F36625F03808";
name = BlackItalic;
paths = (
{
closed = 1;
nodes = (
"268.618 0 LINE",
"729.618 0 LINE",
"1213.382 821 LINE",
"794.382 821 LINE",
"561.214 355 LINE",
"493.382 821 LINE",
"72.382 821 LINE"
);
}
);
width = 1165;
},
{
anchors = (
{
name = bottom;
position = "{360, 0}";
},
{
name = top;
position = "{504, 821}";
}
);
layerId = "B9A1D949-37EE-48C7-AA51-22036F480782";
name = ExtraLightItalic;
paths = (
{
closed = 1;
nodes = (
"321.618 0 LINE",
"397.618 0 LINE",
"899.382 821 LINE",
"830.382 821 LINE",
"370.903 64 LINE",
"176.382 821 LINE",
"107.382 821 LINE"
);
}
);
width = 904;
}
);
leftKerningGroup = v;
rightKerningGroup = v;
unicode = 0076;
},
{
glyphname = w;
layers = (
{
anchors = (
{
name = bottom;
position = "{693, 0}";
},
{
name = top;
position = "{837, 821}";
}
);
layerId = "CA4C97A8-3BBB-4B31-B9EA-F36625F03808";
name = BlackItalic;
paths = (
{
closed = 1;
nodes = (
"873.618 0 LINE",
"1220.618 0 LINE",
"1669.382 821 LINE",
"1251.382 821 LINE",
"1060.499 419 LINE",
"954.561 805 LINE",
"715.561 805 LINE",
"470.499 419 LINE",
"422.382 821 LINE",
"5.382 821 LINE",
"165.618 0 LINE",
"513.618 0 LINE",
"759.446 379 LINE"
);
}
);
width = 1554;
},
{
anchors = (
{
name = bottom;
position = "{514, 0}";
},
{
name = top;
position = "{658, 821}";
}
);
layerId = "B9A1D949-37EE-48C7-AA51-22036F480782";
name = ExtraLightItalic;
paths = (
{
closed = 1;
nodes = (
"737.618 0 LINE",
"833.618 0 LINE",
"1160.382 821 LINE",
"1091.382 821 LINE",
"794.842 75 LINE",
"703.561 805 LINE",
"607.561 805 LINE",
"257.842 75 LINE",
"226.382 821 LINE",
"157.382 821 LINE",
"194.618 0 LINE",
"290.618 0 LINE",
"642.865 733 LINE"
);
}
);
width = 1211;
}
);
leftKerningGroup = w;
rightKerningGroup = w;
unicode = 0077;
},
{
glyphname = x;
layers = (
{
anchors = (
{
name = bottom;
position = "{491, 0}";
},
{
name = top;
position = "{635, 821}";
}
);
layerId = "CA4C97A8-3BBB-4B31-B9EA-F36625F03808";
name = BlackItalic;
paths = (
{
closed = 1;
nodes = (
"1149.382 821 LINE",
"757.382 821 LINE",
"617.17 661 LINE",
"542.382 821 LINE",
"106.382 821 LINE",
"344.441 413 LINE",
"-72.382 0 LINE",
"327.618 0 LINE",
"510.236 202 LINE",
"620.618 0 LINE",
"1053.618 0 LINE",
"788.083 445 LINE"
);
}
);
width = 1142;
},
{
anchors = (
{
name = bottom;
position = "{379, 0}";
},
{
name = top;
position = "{523, 821}";
}
);
layerId = "B9A1D949-37EE-48C7-AA51-22036F480782";
name = ExtraLightItalic;
paths = (
{
closed = 1;
nodes = (
"891.382 821 LINE",
"808.382 821 LINE",
"462.197 474 LINE",
"240.382 821 LINE",
"157.382 821 LINE",
"411.262 429 LINE",
"-24.382 0 LINE",
"58.618 0 LINE",
"447.209 389 LINE",
"700.618 0 LINE",
"783.618 0 LINE",
"497.262 429 LINE"
);
}
);
width = 942;
}
);
leftKerningGroup = x;
rightKerningGroup = x;
unicode = 0078;
},
{
glyphname = y;
layers = (
{
anchors = (
{
name = bottom;
position = "{467, 0}";
},
{
name = top;
position = "{611, 821}";
}
);
layerId = "CA4C97A8-3BBB-4B31-B9EA-F36625F03808";
name = BlackItalic;
paths = (
{
closed = 1;
nodes = (
"446.382 821 LINE",
"56.382 821 LINE",
"257.618 0 LINE",
"-7.734 -416 LINE",
"384.266 -416 LINE",
"1174.382 821 LINE",
"790.382 821 LINE",
"520.864 336 LINE"
);
}
);
width = 1102;
},
{
anchors = (
{
name = bottom;
position = "{326, 0}";
},
{
name = top;
position = "{470, 821}";
}
);
layerId = "B9A1D949-37EE-48C7-AA51-22036F480782";
name = ExtraLightItalic;
paths = (
{
closed = 1;
nodes = (
"173.382 821 LINE",
"102.382 821 LINE",
"292.618 0 LINE",
"35.266 -416 LINE",
"104.266 -416 LINE",
"867.382 821 LINE",
"797.382 821 LINE",
"341.961 70 LINE"
);
}
);
width = 835;
}
);
leftKerningGroup = y;
rightKerningGroup = y;
unicode = 0079;
},
{
glyphname = z;
layers = (
{
anchors = (
{
name = bottom;
position = "{387, 0}";
},
{
name = top;
position = "{531, 821}";
}
);
layerId = "CA4C97A8-3BBB-4B31-B9EA-F36625F03808";
name = BlackItalic;
paths = (
{
closed = 1;
nodes = (
"79.479 555 LINE",
"359.479 555 LINE",
"-91.382 0 LINE",
"821.618 0 LINE",
"868.697 267 LINE",
"555.697 267 LINE",
"1006.382 821 LINE",
"126.382 821 LINE"
);
}
);
width = 938;
},
{
anchors = (
{
name = bottom;
position = "{306, 0}";
},
{
name = top;
position = "{450, 821}";
}
);
layerId = "B9A1D949-37EE-48C7-AA51-22036F480782";
name = ExtraLightItalic;
paths = (
{
closed = 1;
nodes = (
"144.097 757 LINE",
"656.097 757 LINE",
"-37.382 0 LINE",
"633.618 0 LINE",
"644.903 64 LINE",
"95.903 64 LINE",
"789.382 821 LINE",
"155.382 821 LINE"
);
}
);
width = 794;
}
);
leftKerningGroup = z;
rightKerningGroup = z;
unicode = 007A;
},
{
glyphname = ordfeminine;
layers = (
{
layerId = "CA4C97A8-3BBB-4B31-B9EA-F36625F03808";
name = BlackItalic;
paths = (
{
closed = 1;
nodes = (
"150.903 938 OFFCURVE",
"225.628 806 OFFCURVE",
"378.628 806 CURVE SMOOTH",
"441.628 806 OFFCURVE",
"499.331 827 OFFCURVE",
"555.265 872 CURVE",
"557.265 872 LINE",
"548.273 821 LINE",
"759.273 821 LINE",
"848.67 1328 LINE",
"635.67 1328 LINE",
"628.97 1290 LINE",
"578.552 1333 OFFCURVE",
"531.492 1344 OFFCURVE",
"473.492 1344 CURVE SMOOTH",
"320.492 1344 OFFCURVE",
"199.04 1211 OFFCURVE",
"174.883 1074 CURVE SMOOTH"
);
},
{
closed = 1;
nodes = (
"415.523 1123 OFFCURVE",
"462.929 1165 OFFCURVE",
"518.929 1165 CURVE SMOOTH",
"569.929 1165 OFFCURVE",
"603.052 1126 OFFCURVE",
"593.883 1074 CURVE SMOOTH",
"584.538 1021 OFFCURVE",
"541.014 984 OFFCURVE",
"487.014 984 CURVE SMOOTH",
"425.014 984 OFFCURVE",
"398.42 1026 OFFCURVE",
"406.883 1074 CURVE SMOOTH"
);
}
);
width = 859;
},
{
layerId = "B9A1D949-37EE-48C7-AA51-22036F480782";
name = ExtraLightItalic;
paths = (
{
closed = 1;
nodes = (
"178.026 899 OFFCURVE",
"282.451 805 OFFCURVE",
"418.451 805 CURVE SMOOTH",
"527.451 805 OFFCURVE",
"606.794 875 OFFCURVE",
"611.026 899 CURVE",
"613.026 899 LINE",
"599.273 821 LINE",
"668.273 821 LINE",
"757.67 1328 LINE",
"687.023 1330 LINE",
"673.446 1253 LINE",
"677.559 1282 OFFCURVE",
"620.492 1344 OFFCURVE",
"513.492 1344 CURVE SMOOTH",
"377.492 1344 OFFCURVE",
"239.917 1250 OFFCURVE",
"209.06 1075 CURVE SMOOTH"
);
},
{
closed = 1;
nodes = (
"295.453 1202 OFFCURVE",
"396.325 1275 OFFCURVE",
"487.325 1275 CURVE SMOOTH",
"591.325 1275 OFFCURVE",
"665.69 1192 OFFCURVE",
"645.06 1075 CURVE SMOOTH",
"624.782 960 OFFCURVE",
"523.618 874 OFFCURVE",
"416.618 874 CURVE SMOOTH",
"326.618 874 OFFCURVE",
"250.49 947 OFFCURVE",
"273.06 1075 CURVE SMOOTH"
);
}
);
width = 818;
}
);
leftKerningGroup = ordfeminine;
rightKerningGroup = ordfeminine;
unicode = 00AA;
},
{
glyphname = ordmasculine;
layers = (
{
layerId = "CA4C97A8-3BBB-4B31-B9EA-F36625F03808";
name = BlackItalic;
paths = (
{
closed = 1;
nodes = (
"149.376 918 OFFCURVE",
"252.628 806 OFFCURVE",
"450.628 806 CURVE SMOOTH",
"639.628 806 OFFCURVE",
"787.376 918 OFFCURVE",
"814.883 1074 CURVE SMOOTH",
"842.743 1232 OFFCURVE",
"728.492 1344 OFFCURVE",
"545.492 1344 CURVE SMOOTH",
"360.492 1344 OFFCURVE",
"204.743 1232 OFFCURVE",
"176.883 1074 CURVE SMOOTH"
);
},
{
closed = 1;
nodes = (
"413.876 1125 OFFCURVE",
"457.4 1162 OFFCURVE",
"512.4 1162 CURVE SMOOTH",
"566.4 1162 OFFCURVE",
"596.876 1125 OFFCURVE",
"587.883 1074 CURVE SMOOTH",
"579.067 1024 OFFCURVE",
"538.543 987 OFFCURVE",
"481.543 987 CURVE SMOOTH",
"421.543 987 OFFCURVE",
"396.067 1024 OFFCURVE",
"404.883 1074 CURVE SMOOTH"
);
}
);
width = 874;
},
{
layerId = "B9A1D949-37EE-48C7-AA51-22036F480782";
name = ExtraLightItalic;
paths = (
{
closed = 1;
nodes = (
"179.376 918 OFFCURVE",
"282.628 806 OFFCURVE",
"426.628 806 CURVE SMOOTH",
"561.628 806 OFFCURVE",
"709.376 918 OFFCURVE",
"736.883 1074 CURVE SMOOTH",
"764.743 1232 OFFCURVE",
"649.492 1344 OFFCURVE",
"521.492 1344 CURVE SMOOTH",
"390.492 1344 OFFCURVE",
"234.743 1232 OFFCURVE",
"206.883 1074 CURVE SMOOTH"
);
},
{
closed = 1;
nodes = (
"300.572 1197 OFFCURVE",
"413.736 1283 OFFCURVE",
"509.736 1283 CURVE SMOOTH",
"605.736 1283 OFFCURVE",
"689.572 1197 OFFCURVE",
"667.883 1074 CURVE SMOOTH",
"646.724 954 OFFCURVE",
"536.207 866 OFFCURVE",
"436.207 866 CURVE SMOOTH",
"330.207 866 OFFCURVE",
"257.724 954 OFFCURVE",
"278.883 1074 CURVE SMOOTH"
);
}
);
width = 842;
}
);
leftKerningGroup = ordmasculine;
rightKerningGroup = ordmasculine;
unicode = 00BA;
},
{
glyphname = zero;
layers = (
{
layerId = "CA4C97A8-3BBB-4B31-B9EA-F36625F03808";
name = BlackItalic;
paths = (
{
closed = 1;
nodes = (
"-62.75 163 OFFCURVE",
"163.276 -24 OFFCURVE",
"467.276 -24 CURVE SMOOTH",
"773.276 -24 OFFCURVE",
"1062.25 163 OFFCURVE",
"1149.708 659 CURVE SMOOTH",
"1229.055 1109 OFFCURVE",
"1014.492 1344 OFFCURVE",
"708.492 1344 CURVE SMOOTH",
"404.492 1344 OFFCURVE",
"104.055 1109 OFFCURVE",
"24.708 659 CURVE SMOOTH"
);
},
{
closed = 1;
nodes = (
"448.913 870 OFFCURVE",
"525.893 1006 OFFCURVE",
"648.893 1006 CURVE SMOOTH",
"772.893 1006 OFFCURVE",
"799.913 870 OFFCURVE",
"762.708 659 CURVE SMOOTH",
"720.918 422 OFFCURVE",
"650.875 314 OFFCURVE",
"526.875 314 CURVE SMOOTH",
"403.875 314 OFFCURVE",
"369.742 421 OFFCURVE",
"411.708 659 CURVE SMOOTH"
);
}
);
width = 1203;
},
{
layerId = "B9A1D949-37EE-48C7-AA51-22036F480782";
name = ExtraLightItalic;
paths = (
{
closed = 1;
nodes = (
"1.01 190 OFFCURVE",
"207.276 -24 OFFCURVE",
"429.276 -24 CURVE SMOOTH",
"653.276 -24 OFFCURVE",
"931.01 190 OFFCURVE",
"1013.708 659 CURVE SMOOTH",
"1098.168 1138 OFFCURVE",
"894.492 1344 OFFCURVE",
"670.492 1344 CURVE SMOOTH",
"448.492 1344 OFFCURVE",
"168.168 1138 OFFCURVE",
"83.708 659 CURVE SMOOTH"
);
},
{
closed = 1;
nodes = (
"225.412 1077 OFFCURVE",
"454.207 1280 OFFCURVE",
"659.207 1280 CURVE SMOOTH",
"864.207 1280 OFFCURVE",
"1020.589 1078 OFFCURVE",
"946.708 659 CURVE SMOOTH",
"873.885 246 OFFCURVE",
"645.561 40 OFFCURVE",
"440.561 40 CURVE SMOOTH",
"235.561 40 OFFCURVE",
"78.885 246 OFFCURVE",
"151.708 659 CURVE SMOOTH"
);
}
);
width = 1142;
}
);
leftKerningGroup = zero;
rightKerningGroup = zero;
unicode = 0030;
},
{
glyphname = one;
layers = (
{
layerId = "CA4C97A8-3BBB-4B31-B9EA-F36625F03808";
name = BlackItalic;
paths = (
{
closed = 1;
nodes = (
"88.624 0 LINE",
"475.624 0 LINE",
"708.376 1320 LINE",
"537.376 1320 LINE",
"84.526 1094 LINE",
"20.343 730 LINE",
"234.27 826 LINE"
);
}
);
width = 686;
},
{
layerId = "B9A1D949-37EE-48C7-AA51-22036F480782";
name = ExtraLightItalic;
paths = (
{
closed = 1;
nodes = (
"195.624 0 LINE",
"259.624 0 LINE",
"492.376 1320 LINE",
"431.376 1320 LINE",
"156.927 1170 LINE",
"144.76 1101 LINE",
"415.68 1248 LINE"
);
}
);
width = 574;
}
);
leftKerningGroup = one;
rightKerningGroup = one;
unicode = 0031;
},
{
glyphname = two;
layers = (
{
layerId = "CA4C97A8-3BBB-4B31-B9EA-F36625F03808";
name = BlackItalic;
paths = (
{
closed = 1;
nodes = (
"719.185 1019 OFFCURVE",
"761.367 986 OFFCURVE",
"746.908 904 CURVE SMOOTH",
"709.35 691 OFFCURVE",
"27.522 312 OFFCURVE",
"12.112 304 CURVE",
"-41.492 0 LINE",
"964.508 0 LINE",
"1023.401 334 LINE",
"594.401 334 LINE",
"606.754 336 OFFCURVE",
"1072.488 550 OFFCURVE",
"1133.85 898 CURVE SMOOTH",
"1160.828 1051 OFFCURVE",
"1123.492 1344 OFFCURVE",
"692.492 1344 CURVE SMOOTH",
"251.492 1344 OFFCURVE",
"79.893 1006 OFFCURVE",
"63.253 957 CURVE",
"364.451 805 LINE",
"372.449 822 OFFCURVE",
"488.185 1019 OFFCURVE",
"635.185 1019 CURVE SMOOTH"
);
}
);
width = 1174;
},
{
layerId = "B9A1D949-37EE-48C7-AA51-22036F480782";
name = ExtraLightItalic;
paths = (
{
closed = 1;
nodes = (
"817.207 1280 OFFCURVE",
"910.748 1198 OFFCURVE",
"869.135 962 CURVE SMOOTH",
"815.531 658 OFFCURVE",
"178.126 202 OFFCURVE",
"-23.088 59 CURVE",
"-33.492 0 LINE",
"755.508 0 LINE",
"766.793 64 LINE",
"89.793 64 LINE",
"182.431 130 OFFCURVE",
"877.418 629 OFFCURVE",
"936.311 963 CURVE SMOOTH",
"984.272 1235 OFFCURVE",
"854.492 1344 OFFCURVE",
"636.492 1344 CURVE SMOOTH",
"329.492 1344 OFFCURVE",
"148.589 1078 OFFCURVE",
"140.591 1061 CURVE",
"198.359 1037 LINE",
"204.299 1048 OFFCURVE",
"368.207 1280 OFFCURVE",
"625.207 1280 CURVE SMOOTH"
);
}
);
width = 1046;
}
);
leftKerningGroup = two;
rightKerningGroup = two;
unicode = 0032;
},
{
glyphname = three;
layers = (
{
layerId = "CA4C97A8-3BBB-4B31-B9EA-F36625F03808";
name = BlackItalic;
paths = (
{
closed = 1;
nodes = (
"393.265 872 LINE",
"421.961 944 OFFCURVE",
"498.536 1038 OFFCURVE",
"600.536 1038 CURVE SMOOTH",
"670.536 1038 OFFCURVE",
"706.425 992 OFFCURVE",
"696.021 933 CURVE SMOOTH",
"684.736 869 OFFCURVE",
"633.331 827 OFFCURVE",
"568.331 827 CURVE SMOOTH",
"534.331 827 LINE",
"486.722 557 LINE",
"512.722 557 LINE",
"590.722 557 OFFCURVE",
"642.317 515 OFFCURVE",
"628.563 437 CURVE SMOOTH",
"614.457 357 OFFCURVE",
"551.641 307 OFFCURVE",
"468.641 307 CURVE SMOOTH",
"375.641 307 OFFCURVE",
"334.742 421 OFFCURVE",
"330.73 506 CURVE",
"-54.775 333 LINE",
"-41.929 179 OFFCURVE",
"91.276 -24 OFFCURVE",
"411.276 -24 CURVE SMOOTH",
"706.276 -24 OFFCURVE",
"960.721 160 OFFCURVE",
"1007.271 424 CURVE SMOOTH",
"1036.541 590 OFFCURVE",
"949.113 701 OFFCURVE",
"866.111 718 CURVE",
"937.343 742 OFFCURVE",
"1023.976 842 OFFCURVE",
"1045.135 962 CURVE SMOOTH",
"1087.101 1200 OFFCURVE",
"907.492 1344 OFFCURVE",
"657.492 1344 CURVE SMOOTH",
"361.492 1344 OFFCURVE",
"170.695 1158 OFFCURVE",
"111.185 1019 CURVE"
);
}
);
width = 1104;
},
{
layerId = "B9A1D949-37EE-48C7-AA51-22036F480782";
name = ExtraLightItalic;
paths = (
{
closed = 1;
nodes = (
"258.052 1126 LINE",
"259.934 1131 OFFCURVE",
"352.207 1280 OFFCURVE",
"574.207 1280 CURVE SMOOTH",
"784.207 1280 OFFCURVE",
"863.519 1157 OFFCURVE",
"836.188 1002 CURVE SMOOTH",
"805.154 826 OFFCURVE",
"638.993 723 OFFCURVE",
"480.993 723 CURVE SMOOTH",
"446.993 723 LINE",
"436.06 661 LINE",
"462.06 661 LINE",
"640.06 661 OFFCURVE",
"790.544 573 OFFCURVE",
"754.749 370 CURVE SMOOTH",
"723.01 190 OFFCURVE",
"574.561 40 OFFCURVE",
"352.561 40 CURVE SMOOTH",
"160.561 40 OFFCURVE",
"67.368 158 OFFCURVE",
"50.237 248 CURVE",
"-13.934 213 LINE",
"6.904 110 OFFCURVE",
"115.276 -24 OFFCURVE",
"343.276 -24 CURVE SMOOTH",
"592.276 -24 OFFCURVE",
"784.957 150 OFFCURVE",
"823.749 370 CURVE SMOOTH",
"859.191 571 OFFCURVE",
"725.469 686 OFFCURVE",
"601.879 694 CURVE",
"729.7 710 OFFCURVE",
"871.565 834 OFFCURVE",
"901.717 1005 CURVE SMOOTH",
"933.632 1186 OFFCURVE",
"841.492 1344 OFFCURVE",
"588.492 1344 CURVE SMOOTH",
"337.492 1344 OFFCURVE",
"211.398 1179 OFFCURVE",
"199.166 1155 CURVE"
);
}
);
width = 1000;
}
);
leftKerningGroup = three;
rightKerningGroup = three;
unicode = 0033;
},
{
glyphname = four;
layers = (
{
layerId = "CA4C97A8-3BBB-4B31-B9EA-F36625F03808";
name = BlackItalic;
paths = (
{
closed = 1;
nodes = (
"575.376 1320 LINE",
"-23.93 581 LINE",
"-77.357 278 LINE",
"458.643 278 LINE",
"409.624 0 LINE",
"795.624 0 LINE",
"844.643 278 LINE",
"998.643 278 LINE",
"1057.713 613 LINE",
"903.713 613 LINE",
"1028.376 1320 LINE"
);
},
{
closed = 1;
nodes = (
"364.713 613 LINE",
"556.678 851 LINE",
"559.678 851 LINE",
"517.713 613 LINE"
);
}
);
width = 1098;
},
{
layerId = "B9A1D949-37EE-48C7-AA51-22036F480782";
name = ExtraLightItalic;
paths = (
{
closed = 1;
nodes = (
"746.376 1320 LINE",
"-3.601 339 LINE",
"-14.357 278 LINE",
"550.643 278 LINE",
"501.624 0 LINE",
"565.624 0 LINE",
"614.643 278 LINE",
"764.643 278 LINE",
"775.928 342 LINE",
"625.928 342 LINE",
"798.376 1320 LINE"
);
},
{
closed = 1;
nodes = (
"76.928 342 LINE",
"707.221 1166 LINE",
"707.221 1166 LINE",
"561.928 342 LINE"
);
}
);
width = 930;
}
);
leftKerningGroup = four;
rightKerningGroup = four;
unicode = 0034;
},
{
glyphname = five;
layers = (
{
layerId = "CA4C97A8-3BBB-4B31-B9EA-F36625F03808";
name = BlackItalic;
paths = (
{
closed = 1;
nodes = (
"-49.946 286 LINE",
"-18.217 120 OFFCURVE",
"108.392 -24 OFFCURVE",
"402.392 -24 CURVE SMOOTH",
"685.392 -24 OFFCURVE",
"944.189 162 OFFCURVE",
"997.969 467 CURVE SMOOTH",
"1051.043 768 OFFCURVE",
"858.203 888 OFFCURVE",
"667.203 888 CURVE SMOOTH",
"586.203 888 OFFCURVE",
"507.618 862 OFFCURVE",
"494.502 850 CURVE",
"545.483 986 LINE",
"1023.483 986 LINE",
"1082.376 1320 LINE",
"282.376 1320 LINE",
"38.652 624 LINE",
"333.022 507 LINE",
"351.606 533 OFFCURVE",
"408.599 584 OFFCURVE",
"493.599 584 CURVE SMOOTH",
"580.599 584 OFFCURVE",
"618.725 528 OFFCURVE",
"603.737 443 CURVE SMOOTH",
"588.573 357 OFFCURVE",
"529.817 296 OFFCURVE",
"442.817 296 CURVE SMOOTH",
"357.817 296 OFFCURVE",
"316.87 336 OFFCURVE",
"304.916 427 CURVE"
);
}
);
width = 1096;
},
{
layerId = "B9A1D949-37EE-48C7-AA51-22036F480782";
name = ExtraLightItalic;
paths = (
{
closed = 1;
nodes = (
"26.068 184 LINE",
"32.955 155 OFFCURVE",
"100.392 -24 OFFCURVE",
"364.392 -24 CURVE SMOOTH",
"644.392 -24 OFFCURVE",
"819.6 170 OFFCURVE",
"863.797 432 CURVE SMOOTH",
"908.348 696 OFFCURVE",
"772.681 834 OFFCURVE",
"569.681 834 CURVE SMOOTH",
"377.681 834 OFFCURVE",
"267.99 728 OFFCURVE",
"256.287 707 CURVE",
"433.091 1256 LINE",
"958.091 1256 LINE",
"969.376 1320 LINE",
"382.376 1320 LINE",
"146.362 594 LINE",
"211.189 576 LINE",
"257.824 659 OFFCURVE",
"382.396 770 OFFCURVE",
"552.396 770 CURVE SMOOTH",
"733.396 770 OFFCURVE",
"835.413 651 OFFCURVE",
"799.797 432 CURVE SMOOTH",
"760.832 194 OFFCURVE",
"596.677 40 OFFCURVE",
"375.677 40 CURVE SMOOTH",
"154.677 40 OFFCURVE",
"99.537 198 OFFCURVE",
"93.121 224 CURVE"
);
}
);
width = 1037;
}
);
leftKerningGroup = five;
rightKerningGroup = five;
unicode = 0035;
},
{
glyphname = six;
layers = (
{
layerId = "CA4C97A8-3BBB-4B31-B9EA-F36625F03808";
name = BlackItalic;
paths = (
{
closed = 1;
nodes = (
"654.084 893 OFFCURVE",
"637.85 886 OFFCURVE",
"628.792 880 CURVE",
"1094.376 1320 LINE",
"644.376 1320 LINE",
"272.135 950 LINE SMOOTH",
"163.268 843 OFFCURVE",
"48.819 693 OFFCURVE",
"7.558 459 CURVE SMOOTH",
"-47.103 149 OFFCURVE",
"154.392 -24 OFFCURVE",
"437.392 -24 CURVE SMOOTH",
"719.392 -24 OFFCURVE",
"981.129 173 OFFCURVE",
"1030.148 451 CURVE SMOOTH",
"1079.872 733 OFFCURVE",
"889.084 893 OFFCURVE",
"694.084 893 CURVE"
);
},
{
closed = 1;
nodes = (
"406.406 288 OFFCURVE",
"351.22 355 OFFCURVE",
"365.855 438 CURVE SMOOTH",
"380.314 520 OFFCURVE",
"459.128 587 OFFCURVE",
"542.128 587 CURVE SMOOTH",
"624.128 587 OFFCURVE",
"679.314 520 OFFCURVE",
"664.855 438 CURVE SMOOTH",
"650.22 355 OFFCURVE",
"571.406 288 OFFCURVE",
"489.406 288 CURVE SMOOTH"
);
}
);
width = 1142;
},
{
layerId = "B9A1D949-37EE-48C7-AA51-22036F480782";
name = ExtraLightItalic;
paths = (
{
closed = 1;
nodes = (
"430.268 843 OFFCURVE",
"319.628 794 OFFCURVE",
"271.693 749 CURVE",
"830.376 1320 LINE",
"748.376 1320 LINE",
"276.328 832 LINE SMOOTH",
"165.051 717 OFFCURVE",
"72.773 602 OFFCURVE",
"41.916 427 CURVE SMOOTH",
"-4.282 165 OFFCURVE",
"148.392 -24 OFFCURVE",
"396.392 -24 CURVE SMOOTH",
"636.392 -24 OFFCURVE",
"869.837 160 OFFCURVE",
"913.566 408 CURVE SMOOTH",
"957.295 656 OFFCURVE",
"802.268 843 OFFCURVE",
"565.268 843 CURVE SMOOTH"
);
},
{
closed = 1;
nodes = (
"207.325 38 OFFCURVE",
"69.771 205 OFFCURVE",
"106.095 411 CURVE SMOOTH",
"142.242 616 OFFCURVE",
"338.512 782 OFFCURVE",
"544.512 782 CURVE SMOOTH",
"749.512 782 OFFCURVE",
"886.242 616 OFFCURVE",
"850.095 411 CURVE SMOOTH",
"813.771 205 OFFCURVE",
"618.325 38 OFFCURVE",
"413.325 38 CURVE SMOOTH"
);
}
);
width = 1080;
}
);
leftKerningGroup = six;
rightKerningGroup = six;
unicode = 0036;
},
{
glyphname = seven;
layers = (
{
layerId = "CA4C97A8-3BBB-4B31-B9EA-F36625F03808";
name = BlackItalic;
paths = (
{
closed = 1;
nodes = (
"150.483 986 LINE",
"715.483 986 LINE",
"-39.376 0 LINE",
"385.624 0 LINE",
"1180.589 1066 LINE",
"1225.376 1320 LINE",
"209.376 1320 LINE"
);
}
);
width = 1125;
},
{
layerId = "B9A1D949-37EE-48C7-AA51-22036F480782";
name = ExtraLightItalic;
paths = (
{
closed = 1;
nodes = (
"233.091 1256 LINE",
"927.091 1256 LINE",
"-9.376 0 LINE",
"65.624 0 LINE",
"1005.149 1262 LINE",
"1015.376 1320 LINE",
"244.376 1320 LINE"
);
}
);
width = 997;
}
);
leftKerningGroup = seven;
rightKerningGroup = seven;
unicode = 0037;
},
{
glyphname = eight;
layers = (
{
layerId = "CA4C97A8-3BBB-4B31-B9EA-F36625F03808";
name = BlackItalic;
paths = (
{
closed = 1;
nodes = (
"703.276 -24 OFFCURVE",
"979.136 134 OFFCURVE",
"1020.926 371 CURVE SMOOTH",
"1051.959 547 OFFCURVE",
"974.239 645 OFFCURVE",
"857.053 712 CURVE",
"965.338 776 OFFCURVE",
"1041.681 846 OFFCURVE",
"1067.425 992 CURVE SMOOTH",
"1106.04 1211 OFFCURVE",
"932.492 1344 OFFCURVE",
"676.492 1344 CURVE SMOOTH",
"427.492 1344 OFFCURVE",
"194.04 1211 OFFCURVE",
"155.425 992 CURVE SMOOTH",
"129.681 846 OFFCURVE",
"184.338 776 OFFCURVE",
"274.053 712 CURVE",
"131.239 645 OFFCURVE",
"20.959 547 OFFCURVE",
"-10.074 371 CURVE SMOOTH",
"-51.864 134 OFFCURVE",
"171.276 -24 OFFCURVE",
"437.276 -24 CURVE SMOOTH"
);
},
{
closed = 1;
nodes = (
"432.17 310 OFFCURVE",
"390.339 362 OFFCURVE",
"401.271 424 CURVE SMOOTH",
"412.203 486 OFFCURVE",
"472.372 538 OFFCURVE",
"534.372 538 CURVE SMOOTH",
"597.372 538 OFFCURVE",
"639.203 486 OFFCURVE",
"628.271 424 CURVE SMOOTH",
"617.339 362 OFFCURVE",
"557.17 310 OFFCURVE",
"494.17 310 CURVE SMOOTH"
);
},
{
closed = 1;
nodes = (
"526.86 830 OFFCURVE",
"486.676 880 OFFCURVE",
"497.432 941 CURVE SMOOTH",
"507.835 1000 OFFCURVE",
"565.652 1050 OFFCURVE",
"626.652 1050 CURVE SMOOTH",
"685.652 1050 OFFCURVE",
"726.835 1000 OFFCURVE",
"716.432 941 CURVE SMOOTH",
"705.676 880 OFFCURVE",
"646.86 830 OFFCURVE",
"587.86 830 CURVE SMOOTH"
);
}
);
width = 1139;
},
{
layerId = "B9A1D949-37EE-48C7-AA51-22036F480782";
name = ExtraLightItalic;
paths = (
{
closed = 1;
nodes = (
"635.276 -24 OFFCURVE",
"819.781 149 OFFCURVE",
"856.457 357 CURVE SMOOTH",
"892.604 562 OFFCURVE",
"785.647 670 OFFCURVE",
"658.053 712 CURVE",
"768.106 752 OFFCURVE",
"882.976 842 OFFCURVE",
"913.304 1014 CURVE SMOOTH",
"947.159 1206 OFFCURVE",
"827.492 1344 OFFCURVE",
"635.492 1344 CURVE SMOOTH",
"443.492 1344 OFFCURVE",
"273.159 1206 OFFCURVE",
"239.304 1014 CURVE SMOOTH",
"208.976 842 OFFCURVE",
"299.225 747 OFFCURVE",
"389.053 712 CURVE",
"245.647 670 OFFCURVE",
"102.604 562 OFFCURVE",
"66.457 357 CURVE SMOOTH",
"29.781 149 OFFCURVE",
"155.276 -24 OFFCURVE",
"395.276 -24 CURVE SMOOTH"
);
},
{
closed = 1;
nodes = (
"222.561 40 OFFCURVE",
"102.894 178 OFFCURVE",
"134.633 358 CURVE SMOOTH",
"166.549 539 OFFCURVE",
"334.882 677 OFFCURVE",
"517.882 677 CURVE SMOOTH",
"698.882 677 OFFCURVE",
"819.549 539 OFFCURVE",
"787.633 358 CURVE SMOOTH",
"755.894 178 OFFCURVE",
"586.561 40 OFFCURVE",
"405.561 40 CURVE SMOOTH"
);
},
{
closed = 1;
nodes = (
"380.167 741 OFFCURVE",
"279.502 862 OFFCURVE",
"305.775 1011 CURVE SMOOTH",
"331.695 1158 OFFCURVE",
"475.207 1280 OFFCURVE",
"624.207 1280 CURVE SMOOTH",
"771.207 1280 OFFCURVE",
"871.695 1158 OFFCURVE",
"845.775 1011 CURVE SMOOTH",
"819.502 862 OFFCURVE",
"676.167 741 OFFCURVE",
"529.167 741 CURVE SMOOTH"
);
}
);
width = 1075;
}
);
leftKerningGroup = eight;
rightKerningGroup = eight;
unicode = 0038;
},
{
glyphname = fraction;
layers = (
{
layerId = "CA4C97A8-3BBB-4B31-B9EA-F36625F03808";
name = BlackItalic;
paths = (
{
closed = 1;
nodes = (
"-380.376 0 LINE",
"-148.376 0 LINE",
"852.376 1320 LINE",
"620.376 1320 LINE"
);
}
);
width = 462;
},
{
layerId = "B9A1D949-37EE-48C7-AA51-22036F480782";
name = ExtraLightItalic;
paths = (
{
closed = 1;
nodes = (
"-356.376 0 LINE",
"-310.376 0 LINE",
"690.376 1320 LINE",
"644.376 1320 LINE"
);
}
);
width = 398;
}
);
leftKerningGroup = fraction;
rightKerningGroup = fraction;
unicode = 2044;
},
{
glyphname = period;
layers = (
{
layerId = "CA4C97A8-3BBB-4B31-B9EA-F36625F03808";
name = BlackItalic;
paths = (
{
closed = 1;
nodes = (
"365.062 -24 OFFCURVE",
"477.989 72 OFFCURVE",
"498.796 190 CURVE SMOOTH",
"519.779 309 OFFCURVE",
"440.706 405 OFFCURVE",
"321.706 405 CURVE SMOOTH",
"203.706 405 OFFCURVE",
"90.779 309 OFFCURVE",
"69.796 190 CURVE SMOOTH",
"48.989 72 OFFCURVE",
"128.062 -24 OFFCURVE",
"246.062 -24 CURVE SMOOTH"
);
}
);
width = 598;
},
{
layerId = "B9A1D949-37EE-48C7-AA51-22036F480782";
name = ExtraLightItalic;
paths = (
{
closed = 1;
nodes = (
"328.133 -24 OFFCURVE",
"377.539 18 OFFCURVE",
"386.708 70 CURVE SMOOTH",
"396.406 125 OFFCURVE",
"361.635 166 OFFCURVE",
"308.635 166 CURVE SMOOTH",
"256.635 166 OFFCURVE",
"207.406 125 OFFCURVE",
"197.708 70 CURVE SMOOTH",
"188.539 18 OFFCURVE",
"223.133 -24 OFFCURVE",
"275.133 -24 CURVE SMOOTH"
);
}
);
width = 630;
}
);
leftKerningGroup = period;
rightKerningGroup = period;
unicode = 002E;
},
{
glyphname = comma;
layers = (
{
layerId = "CA4C97A8-3BBB-4B31-B9EA-F36625F03808";
name = BlackItalic;
paths = (
{
closed = 1;
nodes = (
"208.442 402 OFFCURVE",
"95.691 307 OFFCURVE",
"75.413 192 CURVE SMOOTH",
"52.491 62 OFFCURVE",
"127.619 -11 OFFCURVE",
"216.619 -11 CURVE SMOOTH",
"245.619 -11 OFFCURVE",
"262.148 -8 OFFCURVE",
"276.558 0 CURVE",
"227.278 -98 OFFCURVE",
"102.585 -187 OFFCURVE",
"22.532 -227 CURVE",
"94.665 -334 LINE",
"271.358 -245 OFFCURVE",
"452.387 -35 OFFCURVE",
"487.3 163 CURVE SMOOTH",
"515.512 323 OFFCURVE",
"435.442 402 OFFCURVE",
"321.442 402 CURVE SMOOTH"
);
}
);
width = 598;
},
{
layerId = "B9A1D949-37EE-48C7-AA51-22036F480782";
name = ExtraLightItalic;
paths = (
{
closed = 1;
nodes = (
"196.517 176 OFFCURVE",
"143.935 133 OFFCURVE",
"132.297 67 CURVE SMOOTH",
"124.186 21 OFFCURVE",
"157.37 -29 OFFCURVE",
"214.193 -30 CURVE SMOOTH",
"229.193 -30 OFFCURVE",
"245.722 -27 OFFCURVE",
"264.133 -19 CURVE",
"239.495 -85 OFFCURVE",
"154.974 -139 OFFCURVE",
"96.742 -163 CURVE",
"141.455 -210 LINE",
"238.918 -162 OFFCURVE",
"335.669 -67 OFFCURVE",
"357.358 56 CURVE SMOOTH",
"369.171 123 OFFCURVE",
"325.517 176 OFFCURVE",
"260.517 176 CURVE SMOOTH"
);
}
);
width = 531;
}
);
leftKerningGroup = period;
rightKerningGroup = period;
unicode = 002C;
},
{
glyphname = exclam;
layers = (
{
layerId = "CA4C97A8-3BBB-4B31-B9EA-F36625F03808";
name = BlackItalic;
paths = (
{
closed = 1;
nodes = (
"381.442 475 LINE",
"617.313 1376 LINE",
"198.313 1376 LINE",
"117.442 475 LINE"
);
},
{
closed = 1;
nodes = (
"280.455 -24 OFFCURVE",
"393.383 72 OFFCURVE",
"414.189 190 CURVE SMOOTH",
"435.172 309 OFFCURVE",
"356.276 406 OFFCURVE",
"236.276 406 CURVE SMOOTH",
"118.276 406 OFFCURVE",
"5.172 309 OFFCURVE",
"-15.811 190 CURVE SMOOTH",
"-36.617 72 OFFCURVE",
"44.455 -24 OFFCURVE",
"160.455 -24 CURVE SMOOTH"
);
}
);
width = 598;
},
{
layerId = "B9A1D949-37EE-48C7-AA51-22036F480782";
name = ExtraLightItalic;
paths = (
{
closed = 1;
nodes = (
"251.701 312 LINE",
"459.313 1376 LINE",
"375.313 1376 LINE",
"205.701 312 LINE"
);
},
{
closed = 1;
nodes = (
"221.455 -24 OFFCURVE",
"270.861 18 OFFCURVE",
"280.03 70 CURVE SMOOTH",
"289.728 125 OFFCURVE",
"254.957 166 OFFCURVE",
"201.957 166 CURVE SMOOTH",
"149.957 166 OFFCURVE",
"100.728 125 OFFCURVE",
"91.03 70 CURVE SMOOTH",
"81.861 18 OFFCURVE",
"116.455 -24 OFFCURVE",
"168.455 -24 CURVE SMOOTH"
);
}
);
width = 630;
}
);
leftKerningGroup = exclam;
rightKerningGroup = exclam;
unicode = 0021;
},
{
glyphname = question;
layers = (
{
layerId = "CA4C97A8-3BBB-4B31-B9EA-F36625F03808";
name = BlackItalic;
paths = (
{
closed = 1;
nodes = (
"586.264 475 LINE",
"594.551 522 LINE SMOOTH",
"608.833 603 OFFCURVE",
"642.531 658 OFFCURVE",
"721.585 698 CURVE SMOOTH",
"798.638 738 OFFCURVE",
"975.741 835 OFFCURVE",
"1007.128 1013 CURVE SMOOTH",
"1043.804 1221 OFFCURVE",
"864.492 1344 OFFCURVE",
"608.492 1344 CURVE SMOOTH",
"232.492 1344 OFFCURVE",
"63.591 1061 OFFCURVE",
"51.538 1021 CURVE",
"348.497 896 LINE",
"376.843 949 OFFCURVE",
"423.714 1022 OFFCURVE",
"499.714 1022 CURVE SMOOTH",
"560.714 1022 OFFCURVE",
"584.188 1002 OFFCURVE",
"575.019 950 CURVE SMOOTH",
"564.968 893 OFFCURVE",
"503.915 853 OFFCURVE",
"436.273 821 CURVE SMOOTH",
"353.396 782 OFFCURVE",
"292.582 715 OFFCURVE",
"276.184 622 CURVE SMOOTH",
"250.264 475 LINE"
);
},
{
closed = 1;
nodes = (
"456.276 -24 OFFCURVE",
"571.204 72 OFFCURVE",
"592.01 190 CURVE SMOOTH",
"613.17 310 OFFCURVE",
"532.097 406 OFFCURVE",
"412.097 406 CURVE SMOOTH",
"295.097 406 OFFCURVE",
"181.17 310 OFFCURVE",
"160.01 190 CURVE SMOOTH",
"139.204 72 OFFCURVE",
"219.276 -24 OFFCURVE",
"336.276 -24 CURVE SMOOTH"
);
}
);
width = 994;
},
{
layerId = "B9A1D949-37EE-48C7-AA51-22036F480782";
name = ExtraLightItalic;
paths = (
{
closed = 1;
nodes = (
"390.522 312 LINE",
"434.78 563 LINE SMOOTH",
"447.829 637 OFFCURVE",
"459.708 659 OFFCURVE",
"517.703 693 CURVE SMOOTH",
"683.159 792 OFFCURVE",
"820.497 896 OFFCURVE",
"849.062 1058 CURVE SMOOTH",
"878.861 1227 OFFCURVE",
"768.492 1344 OFFCURVE",
"545.492 1344 CURVE SMOOTH",
"320.492 1344 OFFCURVE",
"166.221 1178 OFFCURVE",
"144.642 1118 CURVE",
"198.352 1088 LINE",
"230.048 1160 OFFCURVE",
"358.207 1280 OFFCURVE",
"533.207 1280 CURVE SMOOTH",
"705.207 1280 OFFCURVE",
"811.159 1206 OFFCURVE",
"785.062 1058 CURVE SMOOTH",
"758.261 906 OFFCURVE",
"604.923 802 OFFCURVE",
"493.814 739 CURVE SMOOTH",
"427.29 702 OFFCURVE",
"390.882 677 OFFCURVE",
"377.833 603 CURVE SMOOTH",
"326.522 312 LINE"
);
},
{
closed = 1;
nodes = (
"351.276 -24 OFFCURVE",
"399.682 18 OFFCURVE",
"408.851 70 CURVE SMOOTH",
"418.549 125 OFFCURVE",
"384.779 166 OFFCURVE",
"332.779 166 CURVE SMOOTH",
"280.779 166 OFFCURVE",
"231.549 125 OFFCURVE",
"221.851 70 CURVE SMOOTH",
"212.682 18 OFFCURVE",
"247.276 -24 OFFCURVE",
"299.276 -24 CURVE SMOOTH"
);
}
);
width = 891;
}
);
leftKerningGroup = question;
rightKerningGroup = question;
unicode = 003F;
},
{
glyphname = bullet;
layers = (
{
layerId = "CA4C97A8-3BBB-4B31-B9EA-F36625F03808";
name = BlackItalic;
paths = (
{
closed = 1;
nodes = (
"456.403 946 OFFCURVE",
"259.427 776 OFFCURVE",
"223.104 570 CURVE SMOOTH",
"186.957 365 OFFCURVE",
"324.334 197 OFFCURVE",
"530.334 197 CURVE SMOOTH",
"737.334 197 OFFCURVE",
"935.604 363 OFFCURVE",
"972.104 570 CURVE SMOOTH",
"1008.78 778 OFFCURVE",
"869.403 946 OFFCURVE",
"662.403 946 CURVE SMOOTH"
);
}
);
width = 1186;
},
{
layerId = "B9A1D949-37EE-48C7-AA51-22036F480782";
name = ExtraLightItalic;
paths = (
{
closed = 1;
nodes = (
"436.213 717 OFFCURVE",
"360.928 653 OFFCURVE",
"346.293 570 CURVE SMOOTH",
"332.187 490 OFFCURVE",
"384.902 426 OFFCURVE",
"464.902 426 CURVE SMOOTH",
"547.902 426 OFFCURVE",
"623.187 490 OFFCURVE",
"637.293 570 CURVE SMOOTH",
"651.928 653 OFFCURVE",
"599.213 717 OFFCURVE",
"516.213 717 CURVE SMOOTH"
);
}
);
width = 949;
}
);
leftKerningGroup = bullet;
rightKerningGroup = bullet;
unicode = 2022;
},
{
glyphname = asterisk;
layers = (
{
layerId = "CA4C97A8-3BBB-4B31-B9EA-F36625F03808";
name = BlackItalic;
paths = (
{
closed = 1;
nodes = (
"604.018 1384 LINE",
"436.018 1384 LINE",
"404.632 1206 LINE",
"238.801 1258 LINE",
"162.999 1106 LINE",
"339.42 1046 LINE",
"187.734 906 LINE",
"312.572 803 LINE",
"441.905 941 LINE",
"526.925 805 LINE",
"685.734 906 LINE",
"582.42 1046 LINE",
"778.999 1106 LINE",
"755.801 1258 LINE",
"572.632 1206 LINE"
);
}
);
width = 821;
},
{
layerId = "B9A1D949-37EE-48C7-AA51-22036F480782";
name = ExtraLightItalic;
paths = (
{
closed = 1;
nodes = (
"557.638 1357 LINE",
"495.638 1357 LINE",
"455.551 1141 LINE",
"263.894 1211 LINE",
"233.491 1152 LINE",
"428.795 1080 LINE",
"266.409 902 LINE",
"310.59 869 LINE",
"470.095 1042 LINE",
"559.238 867 LINE",
"615.233 901 LINE",
"526.795 1080 LINE",
"747.491 1152 LINE",
"736.894 1211 LINE",
"521.551 1141 LINE"
);
}
);
width = 853;
}
);
leftKerningGroup = asterisk;
rightKerningGroup = asterisk;
unicode = 002A;
},
{
glyphname = numbersign;
layers = (
{
layerId = "CA4C97A8-3BBB-4B31-B9EA-F36625F03808";
name = BlackItalic;
paths = (
{
closed = 1;
nodes = (
"19.624 0 LINE",
"278.624 0 LINE",
"860.376 1320 LINE",
"601.376 1320 LINE"
);
},
{
closed = 1;
nodes = (
"467.624 0 LINE",
"726.624 0 LINE",
"1308.376 1320 LINE",
"1049.376 1320 LINE"
);
},
{
closed = 1;
nodes = (
"199.693 749 LINE",
"1191.693 749 LINE",
"1309.422 997 LINE",
"317.422 997 LINE"
);
},
{
closed = 1;
nodes = (
"20.93 325 LINE",
"1012.93 325 LINE",
"1130.66 573 LINE",
"138.66 573 LINE"
);
}
);
width = 1373;
},
{
layerId = "B9A1D949-37EE-48C7-AA51-22036F480782";
name = ExtraLightItalic;
paths = (
{
closed = 1;
nodes = (
"117.624 0 LINE",
"171.624 0 LINE",
"753.376 1320 LINE",
"698.376 1320 LINE"
);
},
{
closed = 1;
nodes = (
"459.624 0 LINE",
"513.624 0 LINE",
"1095.376 1320 LINE",
"1041.376 1320 LINE"
);
},
{
closed = 1;
nodes = (
"274.913 858 LINE",
"1093.913 858 LINE",
"1122.963 915 LINE",
"303.963 915 LINE"
);
},
{
closed = 1;
nodes = (
"91.566 408 LINE",
"910.566 408 LINE",
"939.44 464 LINE",
"120.44 464 LINE"
);
}
);
width = 1214;
}
);
leftKerningGroup = numbersign;
rightKerningGroup = numbersign;
unicode = 0023;
},
{
glyphname = slash;
layers = (
{
layerId = "CA4C97A8-3BBB-4B31-B9EA-F36625F03808";
name = BlackItalic;
paths = (
{
closed = 1;
nodes = (
"-139.168 -192 LINE",
"162.832 -192 LINE",
"1099.313 1376 LINE",
"796.313 1376 LINE"
);
}
);
width = 1018;
},
{
layerId = "B9A1D949-37EE-48C7-AA51-22036F480782";
name = ExtraLightItalic;
paths = (
{
closed = 1;
nodes = (
"-86.168 -192 LINE",
"-14.168 -192 LINE",
"921.313 1376 LINE",
"849.313 1376 LINE"
);
}
);
width = 922;
}
);
leftKerningGroup = slash;
rightKerningGroup = slash;
unicode = 002F;
},
{
glyphname = backslash;
layers = (
{
layerId = "CA4C97A8-3BBB-4B31-B9EA-F36625F03808";
name = BlackItalic;
paths = (
{
closed = 1;
nodes = (
"439.313 1376 LINE",
"137.313 1376 LINE",
"553.687 0 LINE",
"856.687 0 LINE"
);
}
);
width = 1018;
},
{
layerId = "B9A1D949-37EE-48C7-AA51-22036F480782";
name = ExtraLightItalic;
paths = (
{
closed = 1;
nodes = (
"275.313 1376 LINE",
"201.313 1376 LINE",
"617.687 0 LINE",
"691.687 0 LINE"
);
}
);
width = 922;
}
);
leftKerningGroup = backslash;
rightKerningGroup = backslash;
unicode = 005C;
},
{
glyphname = parenleft;
layers = (
{
layerId = "CA4C97A8-3BBB-4B31-B9EA-F36625F03808";
name = BlackItalic;
paths = (
{
closed = 1;
nodes = (
"403.942 -331 LINE",
"341.867 -218 OFFCURVE",
"287.413 80 OFFCURVE",
"357.062 475 CURVE SMOOTH",
"430.767 893 OFFCURVE",
"609.37 1197 OFFCURVE",
"721.295 1310 CURVE",
"513.693 1403 LINE",
"346.715 1250 OFFCURVE",
"97.414 891 OFFCURVE",
"24.062 475 CURVE SMOOTH",
"-47.35 70 OFFCURVE",
"59.817 -275 OFFCURVE",
"159.544 -424 CURVE"
);
}
);
width = 685;
},
{
layerId = "B9A1D949-37EE-48C7-AA51-22036F480782";
name = ExtraLightItalic;
paths = (
{
closed = 1;
nodes = (
"244.562 -350 LINE",
"164.308 -221 OFFCURVE",
"82.675 93 OFFCURVE",
"150.032 475 CURVE SMOOTH",
"221.797 882 OFFCURVE",
"419.161 1213 OFFCURVE",
"547.142 1349 CURVE",
"498.724 1392 LINE",
"363.451 1243 OFFCURVE",
"156.384 891 OFFCURVE",
"83.032 475 CURVE SMOOTH",
"11.619 70 OFFCURVE",
"100.608 -259 OFFCURVE",
"188.275 -397 CURVE"
);
}
);
width = 573;
}
);
leftKerningGroup = parenleft;
rightKerningGroup = parenleft;
unicode = 0028;
},
{
glyphname = braceleft;
layers = (
{
layerId = "CA4C97A8-3BBB-4B31-B9EA-F36625F03808";
name = BlackItalic;
paths = (
{
closed = 1;
nodes = (
"21.046 365 LINE",
"76.046 365 OFFCURVE",
"122.991 342 OFFCURVE",
"110.119 269 CURVE SMOOTH",
"40.47 -126 LINE SMOOTH",
"17.018 -259 OFFCURVE",
"67.335 -416 OFFCURVE",
"272.335 -416 CURVE SMOOTH",
"455.335 -416 LINE",
"504.707 -136 LINE",
"427.707 -136 LINE SMOOTH",
"368.707 -136 OFFCURVE",
"344.82 -107 OFFCURVE",
"356.105 -43 CURVE SMOOTH",
"418.172 309 LINE SMOOTH",
"432.807 392 OFFCURVE",
"418.624 442 OFFCURVE",
"326.324 480 CURVE",
"427.848 517 OFFCURVE",
"462.43 560 OFFCURVE",
"478.476 651 CURVE SMOOTH",
"540.543 1003 LINE SMOOTH",
"551.828 1067 OFFCURVE",
"585.941 1096 OFFCURVE",
"644.941 1096 CURVE SMOOTH",
"721.941 1096 LINE",
"771.313 1376 LINE",
"588.313 1376 LINE SMOOTH",
"383.313 1376 OFFCURVE",
"277.63 1219 OFFCURVE",
"254.178 1086 CURVE SMOOTH",
"184.529 691 LINE SMOOTH",
"171.657 618 OFFCURVE",
"116.602 595 OFFCURVE",
"61.602 595 CURVE"
);
}
);
width = 754;
},
{
layerId = "B9A1D949-37EE-48C7-AA51-22036F480782";
name = ExtraLightItalic;
paths = (
{
closed = 1;
nodes = (
"83.682 448 LINE",
"192.682 448 OFFCURVE",
"203.633 374 OFFCURVE",
"190.761 301 CURVE SMOOTH",
"101.364 -206 LINE SMOOTH",
"77.383 -342 OFFCURVE",
"98.335 -416 OFFCURVE",
"239.335 -416 CURVE SMOOTH",
"314.335 -416 LINE",
"325.62 -352 LINE",
"250.62 -352 LINE SMOOTH",
"157.62 -352 OFFCURVE",
"150.436 -302 OFFCURVE",
"160.84 -243 CURVE SMOOTH",
"258.172 309 LINE SMOOTH",
"273.689 397 OFFCURVE",
"244.384 469 OFFCURVE",
"170.971 478 CURVE",
"247.382 486 OFFCURVE",
"302.783 562 OFFCURVE",
"318.476 651 CURVE SMOOTH",
"415.808 1203 LINE SMOOTH",
"429.386 1280 OFFCURVE",
"468.028 1312 OFFCURVE",
"544.028 1312 CURVE SMOOTH",
"619.028 1312 LINE",
"630.313 1376 LINE",
"555.313 1376 LINE SMOOTH",
"414.313 1376 OFFCURVE",
"367.265 1302 OFFCURVE",
"343.284 1166 CURVE SMOOTH",
"253.887 659 LINE SMOOTH",
"241.015 586 OFFCURVE",
"204.319 514 OFFCURVE",
"95.319 514 CURVE"
);
}
);
width = 674;
}
);
leftKerningGroup = braceleft;
rightKerningGroup = braceleft;
unicode = 007B;
},
{
glyphname = bracketleft;
layers = (
{
layerId = "CA4C97A8-3BBB-4B31-B9EA-F36625F03808";
name = BlackItalic;
paths = (
{
closed = 1;
nodes = (
"453.335 -416 LINE",
"501.296 -144 LINE",
"231.296 -144 LINE",
"451.352 1104 LINE",
"721.352 1104 LINE",
"769.313 1376 LINE",
"196.313 1376 LINE",
"-119.665 -416 LINE"
);
}
);
width = 747;
},
{
layerId = "B9A1D949-37EE-48C7-AA51-22036F480782";
name = ExtraLightItalic;
paths = (
{
closed = 1;
nodes = (
"288.335 -416 LINE",
"299.62 -352 LINE",
"8.62 -352 LINE",
"302.028 1312 LINE",
"593.028 1312 LINE",
"604.313 1376 LINE",
"249.313 1376 LINE",
"-66.665 -416 LINE"
);
}
);
width = 651;
}
);
leftKerningGroup = bracketleft;
rightKerningGroup = bracketleft;
unicode = 005B;
},
{
glyphname = hyphen;
layers = (
{
layerId = "CA4C97A8-3BBB-4B31-B9EA-F36625F03808";
name = BlackItalic;
paths = (
{
closed = 1;
nodes = (
"615.033 288 LINE",
"673.75 621 LINE",
"158.75 621 LINE",
"100.033 288 LINE"
);
}
);
width = 747;
},
{
layerId = "B9A1D949-37EE-48C7-AA51-22036F480782";
name = ExtraLightItalic;
paths = (
{
closed = 1;
nodes = (
"659.268 426 LINE",
"669.847 486 LINE",
"154.847 486 LINE",
"144.268 426 LINE"
);
}
);
width = 779;
}
);
leftKerningGroup = hyphen;
rightKerningGroup = hyphen;
unicode = 002D;
},
{
glyphname = endash;
layers = (
{
layerId = "CA4C97A8-3BBB-4B31-B9EA-F36625F03808";
name = BlackItalic;
paths = (
{
closed = 1;
nodes = (
"887.033 288 LINE",
"945.75 621 LINE",
"44.75 621 LINE",
"-13.967 288 LINE"
);
}
);
width = 904;
},
{
layerId = "B9A1D949-37EE-48C7-AA51-22036F480782";
name = ExtraLightItalic;
paths = (
{
closed = 1;
nodes = (
"822.268 426 LINE",
"832.847 486 LINE",
"68.847 486 LINE",
"58.268 426 LINE"
);
}
);
width = 856;
}
);
leftKerningGroup = hyphen;
rightKerningGroup = hyphen;
unicode = 2013;
},
{
glyphname = emdash;
layers = (
{
layerId = "CA4C97A8-3BBB-4B31-B9EA-F36625F03808";
name = BlackItalic;
paths = (
{
closed = 1;
nodes = (
"1783.033 288 LINE",
"1841.75 621 LINE",
"12.75 621 LINE",
"-45.967 288 LINE"
);
}
);
width = 1768;
},
{
layerId = "B9A1D949-37EE-48C7-AA51-22036F480782";
name = ExtraLightItalic;
paths = (
{
closed = 1;
nodes = (
"1523.268 426 LINE",
"1533.847 486 LINE",
"85.847 486 LINE",
"75.268 426 LINE"
);
}
);
width = 1576;
}
);
leftKerningGroup = hyphen;
rightKerningGroup = hyphen;
unicode = 2014;
},
{
glyphname = underscore;
layers = (
{
layerId = "CA4C97A8-3BBB-4B31-B9EA-F36625F03808";
name = BlackItalic;
paths = (
{
closed = 1;
nodes = (
"812.737 -222 LINE",
"850.118 -10 LINE",
"2.118 -10 LINE",
"-35.263 -222 LINE"
);
}
);
width = 861;
},
{
layerId = "B9A1D949-37EE-48C7-AA51-22036F480782";
name = ExtraLightItalic;
paths = (
{
closed = 1;
nodes = (
"746.425 -126 LINE",
"757.358 -64 LINE",
"21.358 -64 LINE",
"10.425 -126 LINE"
);
}
);
width = 797;
}
);
leftKerningGroup = underscore;
rightKerningGroup = underscore;
unicode = 005F;
},
{
glyphname = quotesinglbase;
layers = (
{
layerId = "CA4C97A8-3BBB-4B31-B9EA-F36625F03808";
name = BlackItalic;
paths = (
{
closed = 1;
nodes = (
"192.442 402 OFFCURVE",
"79.691 307 OFFCURVE",
"59.413 192 CURVE SMOOTH",
"36.491 62 OFFCURVE",
"111.619 -11 OFFCURVE",
"200.619 -11 CURVE SMOOTH",
"229.619 -11 OFFCURVE",
"246.148 -8 OFFCURVE",
"260.558 0 CURVE",
"211.278 -98 OFFCURVE",
"86.585 -187 OFFCURVE",
"6.532 -227 CURVE",
"78.665 -334 LINE",
"255.358 -245 OFFCURVE",
"436.387 -35 OFFCURVE",
"471.3 163 CURVE SMOOTH",
"499.512 323 OFFCURVE",
"419.442 402 OFFCURVE",
"305.442 402 CURVE SMOOTH"
);
}
);
width = 506;
},
{
layerId = "B9A1D949-37EE-48C7-AA51-22036F480782";
name = ExtraLightItalic;
paths = (
{
closed = 1;
nodes = (
"180.517 176 OFFCURVE",
"127.935 133 OFFCURVE",
"116.297 67 CURVE SMOOTH",
"108.186 21 OFFCURVE",
"141.193 -30 OFFCURVE",
"198.193 -30 CURVE SMOOTH",
"213.193 -30 OFFCURVE",
"229.722 -27 OFFCURVE",
"248.133 -19 CURVE",
"223.495 -85 OFFCURVE",
"138.974 -139 OFFCURVE",
"80.742 -163 CURVE",
"125.455 -210 LINE",
"222.918 -162 OFFCURVE",
"319.669 -67 OFFCURVE",
"341.358 56 CURVE SMOOTH",
"353.171 123 OFFCURVE",
"309.517 176 OFFCURVE",
"244.517 176 CURVE SMOOTH"
);
}
);
width = 459;
}
);
leftKerningGroup = period;
rightKerningGroup = period;
unicode = 201A;
},
{
glyphname = quoteleft;
layers = (
{
layerId = "CA4C97A8-3BBB-4B31-B9EA-F36625F03808";
name = BlackItalic;
paths = (
{
closed = 1;
nodes = (
"391.408 704 OFFCURVE",
"495.867 786 OFFCURVE",
"519.142 918 CURVE SMOOTH",
"541.712 1046 OFFCURVE",
"471.057 1099 OFFCURVE",
"400.057 1099 CURVE SMOOTH",
"370.057 1099 OFFCURVE",
"332.176 1094 OFFCURVE",
"315.707 1080 CURVE",
"334.045 1184 OFFCURVE",
"491.562 1272 OFFCURVE",
"540.441 1294 CURVE",
"466.726 1358 LINE",
"306.441 1294 OFFCURVE",
"150.403 1152 OFFCURVE",
"114.785 950 CURVE SMOOTH",
"86.043 787 OFFCURVE",
"159.408 704 OFFCURVE",
"276.408 704 CURVE SMOOTH"
);
}
);
width = 506;
},
{
layerId = "B9A1D949-37EE-48C7-AA51-22036F480782";
name = ExtraLightItalic;
paths = (
{
closed = 1;
nodes = (
"329.638 923 OFFCURVE",
"391.102 971 OFFCURVE",
"404.15 1045 CURVE SMOOTH",
"413.672 1099 OFFCURVE",
"378.078 1141 OFFCURVE",
"323.078 1141 CURVE SMOOTH",
"290.078 1141 OFFCURVE",
"255.257 1125 OFFCURVE",
"242.435 1109 CURVE",
"254.781 1162 OFFCURVE",
"324.534 1240 OFFCURVE",
"379.884 1259 CURVE",
"353.111 1317 LINE",
"283.587 1280 OFFCURVE",
"178.128 1198 OFFCURVE",
"154.501 1064 CURVE SMOOTH",
"138.984 976 OFFCURVE",
"184.638 923 OFFCURVE",
"256.638 923 CURVE SMOOTH"
);
}
);
width = 424;
}
);
leftKerningGroup = quotedblleft;
rightKerningGroup = quotedblleft;
unicode = 2018;
},
{
glyphname = guillemetleft;
layers = (
{
layerId = "CA4C97A8-3BBB-4B31-B9EA-F36625F03808";
name = BlackItalic;
paths = (
{
closed = 1;
nodes = (
"336.469 445 LINE",
"590.901 714 LINE",
"429.997 862 LINE",
"31.469 445 LINE",
"283.117 29 LINE",
"496.037 176 LINE"
);
},
{
closed = 1;
nodes = (
"749.469 445 LINE",
"1003.901 714 LINE",
"841.997 862 LINE",
"444.469 445 LINE",
"695.117 29 LINE",
"909.037 176 LINE"
);
}
);
width = 1040;
},
{
layerId = "B9A1D949-37EE-48C7-AA51-22036F480782";
name = ExtraLightItalic;
paths = (
{
closed = 1;
nodes = (
"152.199 445 LINE",
"468.153 768 LINE",
"435.266 797 LINE",
"94.199 445 LINE",
"310.779 91 LINE",
"354.422 123 LINE"
);
},
{
closed = 1;
nodes = (
"517.199 445 LINE",
"833.153 768 LINE",
"798.266 797 LINE",
"459.199 445 LINE",
"673.779 91 LINE",
"719.422 123 LINE"
);
}
);
width = 928;
}
);
leftKerningGroup = guillemetleft;
rightKerningGroup = guillemetleft;
unicode = 00AB;
},
{
glyphname = guilsinglleft;
layers = (
{
layerId = "CA4C97A8-3BBB-4B31-B9EA-F36625F03808";
name = BlackItalic;
paths = (
{
closed = 1;
nodes = (
"343.469 445 LINE",
"596.901 714 LINE",
"435.997 862 LINE",
"37.469 445 LINE",
"289.117 29 LINE",
"502.037 176 LINE"
);
}
);
width = 640;
},
{
layerId = "B9A1D949-37EE-48C7-AA51-22036F480782";
name = ExtraLightItalic;
paths = (
{
closed = 1;
nodes = (
"149.199 445 LINE",
"465.153 768 LINE",
"432.266 797 LINE",
"91.199 445 LINE",
"307.779 91 LINE",
"351.422 123 LINE"
);
}
);
width = 557;
}
);
leftKerningGroup = guillemotleft;
rightKerningGroup = guillemotleft;
unicode = 2039;
},
{
glyphname = quotedbl;
layers = (
{
layerId = "CA4C97A8-3BBB-4B31-B9EA-F36625F03808";
name = BlackItalic;
paths = (
{
closed = 1;
nodes = (
"262.431 1366 OFFCURVE",
"170.617 1299 OFFCURVE",
"158.451 1230 CURVE SMOOTH",
"157.04 1222 LINE SMOOTH",
"146.461 1162 OFFCURVE",
"154.676 891 OFFCURVE",
"163.703 704 CURVE",
"257.703 704 LINE",
"348.676 891 OFFCURVE",
"471.461 1162 OFFCURVE",
"482.04 1222 CURVE SMOOTH",
"483.451 1230 LINE SMOOTH",
"495.617 1299 OFFCURVE",
"427.431 1366 OFFCURVE",
"344.431 1366 CURVE SMOOTH"
);
},
{
closed = 1;
nodes = (
"650.431 1366 OFFCURVE",
"558.617 1299 OFFCURVE",
"546.451 1230 CURVE SMOOTH",
"545.04 1222 LINE SMOOTH",
"534.461 1162 OFFCURVE",
"542.676 891 OFFCURVE",
"550.703 704 CURVE",
"645.703 704 LINE",
"735.676 891 OFFCURVE",
"858.461 1162 OFFCURVE",
"869.04 1222 CURVE SMOOTH",
"870.451 1230 LINE SMOOTH",
"882.617 1299 OFFCURVE",
"814.431 1366 OFFCURVE",
"731.431 1366 CURVE SMOOTH"
);
}
);
width = 861;
},
{
layerId = "B9A1D949-37EE-48C7-AA51-22036F480782";
name = ExtraLightItalic;
paths = (
{
closed = 1;
nodes = (
"268.29 1285 OFFCURVE",
"240.766 1248 OFFCURVE",
"233.713 1208 CURVE SMOOTH",
"232.831 1203 LINE SMOOTH",
"227.189 1171 OFFCURVE",
"216.387 1019 OFFCURVE",
"210.873 914 CURVE",
"265.873 914 LINE",
"304.387 1019 OFFCURVE",
"359.189 1171 OFFCURVE",
"364.831 1203 CURVE SMOOTH",
"365.713 1208 LINE SMOOTH",
"372.413 1246 OFFCURVE",
"359.29 1285 OFFCURVE",
"313.29 1285 CURVE SMOOTH"
);
},
{
closed = 1;
nodes = (
"532.29 1285 OFFCURVE",
"506.766 1248 OFFCURVE",
"499.713 1208 CURVE SMOOTH",
"498.831 1203 LINE SMOOTH",
"493.189 1171 OFFCURVE",
"482.387 1019 OFFCURVE",
"476.873 914 CURVE",
"529.873 914 LINE",
"568.387 1019 OFFCURVE",
"624.189 1171 OFFCURVE",
"629.831 1203 CURVE SMOOTH",
"630.713 1208 LINE SMOOTH",
"637.766 1248 OFFCURVE",
"625.29 1285 OFFCURVE",
"579.29 1285 CURVE SMOOTH"
);
}
);
width = 707;
}
);
leftKerningGroup = quotedbl;
rightKerningGroup = quotedbl;
unicode = 0022;
},
{
glyphname = quotesingle;
layers = (
{
layerId = "CA4C97A8-3BBB-4B31-B9EA-F36625F03808";
name = BlackItalic;
paths = (
{
closed = 1;
nodes = (
"278.431 1366 OFFCURVE",
"188.028 1307 OFFCURVE",
"165.987 1182 CURVE SMOOTH",
"137.246 1019 OFFCURVE",
"160.331 838 OFFCURVE",
"179.703 704 CURVE",
"273.703 704 LINE",
"355.331 838 OFFCURVE",
"461.717 1016 OFFCURVE",
"490.987 1182 CURVE SMOOTH",
"513.028 1307 OFFCURVE",
"443.431 1366 OFFCURVE",
"360.431 1366 CURVE SMOOTH"
);
}
);
width = 506;
},
{
layerId = "B9A1D949-37EE-48C7-AA51-22036F480782";
name = ExtraLightItalic;
paths = (
{
closed = 1;
nodes = (
"260.29 1285 OFFCURVE",
"232.766 1248 OFFCURVE",
"225.713 1208 CURVE SMOOTH",
"220.423 1178 OFFCURVE",
"209.619 1043 OFFCURVE",
"202.873 914 CURVE",
"257.873 914 LINE",
"308.501 1048 OFFCURVE",
"351.718 1174 OFFCURVE",
"357.713 1208 CURVE SMOOTH",
"364.413 1246 OFFCURVE",
"351.29 1285 OFFCURVE",
"305.29 1285 CURVE SMOOTH"
);
}
);
width = 424;
}
);
leftKerningGroup = quotedbl;
rightKerningGroup = quotesingle;
unicode = 0027;
},
{
glyphname = cent;
layers = (
{
components = (
{
name = c;
alignment = -1;
}
);
layerId = "CA4C97A8-3BBB-4B31-B9EA-F36625F03808";
name = BlackItalic;
paths = (
{
closed = 1;
nodes = (
"449.548 790 LINE",
"663.548 790 LINE",
"703.75 1018 LINE",
"489.75 1018 LINE"
);
},
{
closed = 1;
nodes = (
"273.926 -206 LINE",
"487.926 -206 LINE",
"527.952 21 LINE",
"313.952 21 LINE"
);
}
);
width = 867;
},
{
components = (
{
name = c;
alignment = -1;
}
);
layerId = "B9A1D949-37EE-48C7-AA51-22036F480782";
name = ExtraLightItalic;
paths = (
{
closed = 1;
nodes = (
"476.548 790 LINE",
"535.548 790 LINE",
"575.75 1018 LINE",
"516.75 1018 LINE"
);
},
{
closed = 1;
nodes = (
"300.926 -206 LINE",
"359.926 -206 LINE",
"399.952 21 LINE",
"340.952 21 LINE"
);
}
);
width = 811;
}
);
leftKerningGroup = o;
rightKerningGroup = c;
unicode = 00A2;
},
{
glyphname = colonsign;
layers = (
{
components = (
{
name = C.ss01;
transform = "{1, 0, 0, 1, 14.871, 0}";
alignment = -1;
}
);
layerId = "CA4C97A8-3BBB-4B31-B9EA-F36625F03808";
name = BlackItalic;
paths = (
{
closed = 1;
nodes = (
"302.951 -192 LINE",
"531.951 -192 LINE",
"1468.431 1376 LINE",
"1238.431 1376 LINE"
);
},
{
closed = 1;
nodes = (
"-1.286 -182 LINE",
"227.714 -182 LINE",
"1164.195 1386 LINE",
"934.195 1386 LINE"
);
}
);
width = 1206;
},
{
components = (
{
name = C.ss01;
transform = "{1, 0, 0, 1, 14.836, 0}";
alignment = -1;
}
);
layerId = "B9A1D949-37EE-48C7-AA51-22036F480782";
name = ExtraLightItalic;
paths = (
{
closed = 1;
nodes = (
"60.832 -192 LINE",
"132.832 -192 LINE",
"1068.313 1376 LINE",
"996.313 1376 LINE"
);
},
{
closed = 1;
nodes = (
"-86.168 -192 LINE",
"-14.168 -192 LINE",
"921.313 1376 LINE",
"849.313 1376 LINE"
);
}
);
width = 1056;
}
);
unicode = 20A1;
},
{
glyphname = currency;
layers = (
{
components = (
{
name = o;
transform = "{1, 0, 0, 1, 60.212, 160}";
alignment = -1;
}
);
layerId = "CA4C97A8-3BBB-4B31-B9EA-F36625F03808";
name = BlackItalic;
paths = (
{
closed = 1;
nodes = (
"810.299 912 LINE",
"933.497 760 LINE",
"1124.062 922 LINE",
"998.511 1072 LINE"
);
},
{
closed = 1;
nodes = (
"-20.188 206 LINE",
"105.363 56 LINE",
"293.575 216 LINE",
"170.377 368 LINE"
);
},
{
closed = 1;
nodes = (
"106.062 922 LINE",
"239.497 760 LINE",
"416.299 912 LINE",
"284.511 1072 LINE"
);
},
{
closed = 1;
nodes = (
"687.575 216 LINE",
"819.363 56 LINE",
"997.812 206 LINE",
"864.377 368 LINE"
);
}
);
width = 1085;
},
{
components = (
{
name = o;
transform = "{1, 0, 0, 1, 28.212, 160}";
alignment = -1;
}
);
layerId = "B9A1D949-37EE-48C7-AA51-22036F480782";
name = ExtraLightItalic;
paths = (
{
closed = 1;
nodes = (
"779.067 864 LINE",
"814.485 821 LINE",
"1002.874 982 LINE",
"968.279 1024 LINE"
);
},
{
closed = 1;
nodes = (
"-49.42 158 LINE",
"-15.649 117 LINE",
"174.563 277 LINE",
"139.145 320 LINE"
);
},
{
closed = 1;
nodes = (
"95.874 982 LINE",
"227.485 821 LINE",
"278.067 864 LINE",
"144.279 1024 LINE"
);
},
{
closed = 1;
nodes = (
"675.563 277 LINE",
"808.351 117 LINE",
"857.58 158 LINE",
"726.145 320 LINE"
);
}
);
width = 938;
}
);
unicode = 00A4;
},
{
glyphname = dollar;
layers = (
{
components = (
{
name = S;
alignment = -1;
}
);
layerId = "CA4C97A8-3BBB-4B31-B9EA-F36625F03808";
name = BlackItalic;
paths = (
{
closed = 1;
nodes = (
"553.217 1307 LINE",
"767.217 1307 LINE",
"807.243 1534 LINE",
"593.243 1534 LINE"
);
},
{
closed = 1;
nodes = (
"286.434 -206 LINE",
"500.434 -206 LINE",
"540.46 21 LINE",
"326.46 21 LINE"
);
}
);
width = 1163;
},
{
components = (
{
name = S;
alignment = -1;
}
);
layerId = "B9A1D949-37EE-48C7-AA51-22036F480782";
name = ExtraLightItalic;
paths = (
{
closed = 1;
nodes = (
"578.217 1307 LINE",
"637.217 1307 LINE",
"677.243 1534 LINE",
"618.243 1534 LINE"
);
},
{
closed = 1;
nodes = (
"311.434 -206 LINE",
"370.434 -206 LINE",
"410.46 21 LINE",
"351.46 21 LINE"
);
}
);
width = 1003;
}
);
leftKerningGroup = dollar;
rightKerningGroup = dollar;
unicode = 0024;
},
{
glyphname = euro;
layers = (
{
components = (
{
name = C;
transform = "{1, 0, 0, 1, 58, 0}";
alignment = -1;
}
);
layerId = "CA4C97A8-3BBB-4B31-B9EA-F36625F03808";
name = BlackItalic;
paths = (
{
closed = 1;
nodes = (
"11.35 691 LINE",
"1006.35 691 LINE",
"1041.968 893 LINE",
"46.968 893 LINE"
);
},
{
closed = 1;
nodes = (
"-35.729 424 LINE",
"959.271 424 LINE",
"994.889 626 LINE",
"-0.111 626 LINE"
);
}
);
width = 1315;
},
{
components = (
{
name = C;
transform = "{1, 0, 0, 1, 75, 0}";
alignment = -1;
}
);
layerId = "B9A1D949-37EE-48C7-AA51-22036F480782";
name = ExtraLightItalic;
paths = (
{
closed = 1;
nodes = (
"49.869 762 LINE",
"1044.869 762 LINE",
"1055.449 822 LINE",
"60.449 822 LINE"
);
},
{
closed = 1;
nodes = (
"2.614 494 LINE",
"997.614 494 LINE",
"1008.37 555 LINE",
"13.37 555 LINE"
);
}
);
width = 1299;
}
);
leftKerningGroup = euro;
rightKerningGroup = euro;
unicode = 20AC;
},
{
glyphname = florin;
layers = (
{
layerId = "CA4C97A8-3BBB-4B31-B9EA-F36625F03808";
name = BlackItalic;
paths = (
{
closed = 1;
nodes = (
"-11.131 -435 OFFCURVE",
"226.731 -294 OFFCURVE",
"299.639 -62 CURVE",
"476.911 501 LINE",
"626.911 501 LINE",
"728.336 821 LINE",
"578.336 821 LINE",
"633.016 995 LINE SMOOTH",
"650.714 1050 OFFCURVE",
"691.065 1069 OFFCURVE",
"719.065 1069 CURVE SMOOTH",
"750.065 1069 OFFCURVE",
"765.891 1051 OFFCURVE",
"768.362 1048 CURVE",
"996.436 1349 LINE",
"990.847 1357 OFFCURVE",
"905.429 1400 OFFCURVE",
"758.429 1400 CURVE SMOOTH",
"560.429 1400 OFFCURVE",
"322.567 1259 OFFCURVE",
"249.659 1027 CURVE SMOOTH",
"184.336 821 LINE",
"71.336 821 LINE",
"-30.089 501 LINE",
"82.911 501 LINE",
"-83.719 -30 LINE",
"-101.417 -85 OFFCURVE",
"-141.767 -104 OFFCURVE",
"-170.767 -104 CURVE SMOOTH",
"-200.767 -104 OFFCURVE",
"-216.593 -86 OFFCURVE",
"-220.064 -83 CURVE",
"-447.138 -384 LINE",
"-442.549 -392 OFFCURVE",
"-357.131 -435 OFFCURVE",
"-210.131 -435 CURVE SMOOTH"
);
}
);
width = 742;
},
{
layerId = "B9A1D949-37EE-48C7-AA51-22036F480782";
name = ExtraLightItalic;
paths = (
{
closed = 1;
nodes = (
"-195.721 -427 OFFCURVE",
"-43.849 -354 OFFCURVE",
"37.996 -94 CURVE",
"309.227 758 LINE",
"568.227 758 LINE",
"589.336 821 LINE",
"330.336 821 LINE",
"403.42 1054 LINE SMOOTH",
"479.444 1298 OFFCURVE",
"584.673 1339 OFFCURVE",
"667.673 1339 CURVE SMOOTH",
"744.673 1339 OFFCURVE",
"774.383 1309 OFFCURVE",
"780.973 1301 CURVE",
"829.847 1357 LINE",
"823.905 1363 OFFCURVE",
"784.429 1400 OFFCURVE",
"693.429 1400 CURVE SMOOTH",
"577.429 1400 OFFCURVE",
"425.381 1326 OFFCURVE",
"344.712 1067 CURVE SMOOTH",
"267.336 821 LINE",
"72.336 821 LINE",
"52.227 758 LINE",
"247.227 758 LINE",
"-20.888 -82 LINE",
"-97.735 -325 OFFCURVE",
"-201.965 -366 OFFCURVE",
"-285.965 -366 CURVE SMOOTH",
"-361.965 -366 OFFCURVE",
"-392.675 -336 OFFCURVE",
"-399.264 -328 CURVE",
"-447.138 -384 LINE",
"-442.196 -390 OFFCURVE",
"-401.721 -427 OFFCURVE",
"-310.721 -427 CURVE SMOOTH"
);
}
);
width = 610;
}
);
unicode = 0192;
},
{
glyphname = franc;
layers = (
{
components = (
{
name = F;
alignment = -1;
}
);
layerId = "CA4C97A8-3BBB-4B31-B9EA-F36625F03808";
name = BlackItalic;
paths = (
{
closed = 1;
nodes = (
"-106.282 165 LINE",
"619.718 165 LINE",
"660.273 395 LINE",
"-65.727 395 LINE"
);
}
);
width = 995;
},
{
components = (
{
name = F;
alignment = -1;
}
);
layerId = "B9A1D949-37EE-48C7-AA51-22036F480782";
name = ExtraLightItalic;
paths = (
{
closed = 1;
nodes = (
"-77.012 331 LINE",
"450.988 331 LINE",
"462.273 395 LINE",
"-65.727 395 LINE"
);
}
);
width = 867;
}
);
unicode = 20A3;
},
{
glyphname = lira;
layers = (
{
layerId = "CA4C97A8-3BBB-4B31-B9EA-F36625F03808";
name = BlackItalic;
paths = (
{
closed = 1;
nodes = (
"276.312 550 OFFCURVE",
"303.445 443 OFFCURVE",
"293.923 389 CURVE SMOOTH",
"287.046 350 OFFCURVE",
"278.049 333 OFFCURVE",
"255.288 306 CURVE",
"103.288 306 OFFCURVE",
"-40.224 184 OFFCURVE",
"-72.668 0 CURVE",
"196.332 0 LINE",
"210.153 16 OFFCURVE",
"240.032 38 OFFCURVE",
"272.032 38 CURVE SMOOTH",
"424.032 38 OFFCURVE",
"501.1 -24 OFFCURVE",
"701.1 -24 CURVE SMOOTH",
"903.1 -24 OFFCURVE",
"1040.139 118 OFFCURVE",
"1086.358 227 CURVE",
"796.93 338 LINE",
"794.049 333 OFFCURVE",
"757.882 264 OFFCURVE",
"698.882 264 CURVE SMOOTH",
"628.882 264 OFFCURVE",
"584.761 286 OFFCURVE",
"566.761 286 CURVE",
"575.525 296 OFFCURVE",
"605.399 352 OFFCURVE",
"614.215 402 CURVE SMOOTH",
"626.206 470 OFFCURVE",
"627.783 547 OFFCURVE",
"600.944 650 CURVE SMOOTH",
"586.937 701 OFFCURVE",
"562.273 822 OFFCURVE",
"577.613 909 CURVE SMOOTH",
"591.19 986 OFFCURVE",
"631.065 1042 OFFCURVE",
"703.065 1042 CURVE SMOOTH",
"790.065 1042 OFFCURVE",
"805.256 941 OFFCURVE",
"791.678 864 CURVE",
"1136.362 1021 LINE",
"1139.871 1160 OFFCURVE",
"1035.668 1346 OFFCURVE",
"740.668 1346 CURVE SMOOTH",
"444.668 1346 OFFCURVE",
"244.753 1165 OFFCURVE",
"202.434 925 CURVE SMOOTH",
"180.923 803 OFFCURVE",
"207.229 714 OFFCURVE",
"233.944 650 CURVE SMOOTH"
);
},
{
closed = 1;
nodes = (
"63.889 627 LINE",
"831.889 627 LINE",
"857.809 774 LINE",
"89.809 774 LINE"
);
},
{
closed = 1;
nodes = (
"27.213 419 LINE",
"795.213 419 LINE",
"821.133 566 LINE",
"53.133 566 LINE"
);
}
);
width = 1238;
},
{
layerId = "B9A1D949-37EE-48C7-AA51-22036F480782";
name = ExtraLightItalic;
paths = (
{
closed = 1;
nodes = (
"321.908 491 OFFCURVE",
"329.976 429 OFFCURVE",
"316.046 350 CURVE SMOOTH",
"304.232 283 OFFCURVE",
"275.182 226 OFFCURVE",
"267.537 211 CURVE",
"158.537 211 OFFCURVE",
"20.201 90 OFFCURVE",
"-4.668 0 CURVE",
"62.332 0 LINE",
"72.914 43 OFFCURVE",
"164.663 155 OFFCURVE",
"276.663 155 CURVE SMOOTH",
"441.663 155 OFFCURVE",
"490.1 -24 OFFCURVE",
"688.1 -24 CURVE SMOOTH",
"829.1 -24 OFFCURVE",
"934.849 88 OFFCURVE",
"975.837 173 CURVE",
"921.245 198 LINE",
"898.254 130 OFFCURVE",
"822.385 40 OFFCURVE",
"701.385 40 CURVE SMOOTH",
"550.385 40 OFFCURVE",
"464.834 190 OFFCURVE",
"327.479 205 CURVE",
"333.948 219 OFFCURVE",
"366.056 282 OFFCURVE",
"378.046 350 CURVE SMOOTH",
"390.742 422 OFFCURVE",
"385.558 472 OFFCURVE",
"364.425 579 CURVE",
"352.478 619 OFFCURVE",
"303.799 842 OFFCURVE",
"326.545 971 CURVE SMOOTH",
"362.163 1173 OFFCURVE",
"507.383 1282 OFFCURVE",
"710.383 1282 CURVE SMOOTH",
"897.383 1282 OFFCURVE",
"994.871 1160 OFFCURVE",
"1015.825 1069 CURVE",
"1077.644 1102 LINE",
"1050.982 1206 OFFCURVE",
"936.668 1346 OFFCURVE",
"721.668 1346 CURVE SMOOTH",
"441.668 1346 OFFCURVE",
"297.811 1171 OFFCURVE",
"262.898 973 CURVE SMOOTH",
"235.744 819 OFFCURVE",
"290.775 598 OFFCURVE",
"297.425 579 CURVE"
);
},
{
closed = 1;
nodes = (
"108.534 642 LINE",
"810.534 642 LINE",
"821.466 704 LINE",
"119.466 704 LINE"
);
},
{
closed = 1;
nodes = (
"72.387 437 LINE",
"774.387 437 LINE",
"785.319 499 LINE",
"83.319 499 LINE"
);
}
);
width = 1190;
}
);
unicode = 20A4;
},
{
glyphname = liraTurkish;
layers = (
{
layerId = "CA4C97A8-3BBB-4B31-B9EA-F36625F03808";
name = BlackItalic;
paths = (
{
closed = 1;
nodes = (
"-38.376 0 LINE",
"353.624 0 LINE",
"715.624 0 OFFCURVE",
"963.955 155 OFFCURVE",
"1041.362 594 CURVE",
"719.362 594 LINE",
"683.392 390 OFFCURVE",
"558.87 336 OFFCURVE",
"408.87 336 CURVE",
"582.376 1320 LINE",
"194.376 1320 LINE"
);
},
{
closed = 1;
nodes = (
"840.422 997 LINE",
"881.859 1232 LINE",
"25.309 968 LINE",
"-16.128 733 LINE"
);
},
{
closed = 1;
nodes = (
"780.647 658 LINE",
"822.084 893 LINE",
"-34.466 629 LINE",
"-75.903 394 LINE"
);
}
);
width = 1024;
},
{
layerId = "B9A1D949-37EE-48C7-AA51-22036F480782";
name = ExtraLightItalic;
paths = (
{
closed = 1;
nodes = (
"9.624 0 LINE",
"139.624 0 LINE",
"549.624 0 OFFCURVE",
"713.121 224 OFFCURVE",
"748.916 427 CURVE",
"684.916 427 LINE",
"649.474 226 OFFCURVE",
"515.909 64 OFFCURVE",
"83.909 64 CURVE",
"305.376 1320 LINE",
"242.376 1320 LINE"
);
},
{
closed = 1;
nodes = (
"664.971 864 LINE",
"675.727 925 LINE",
"-12.184 710 LINE",
"-22.763 650 LINE"
);
},
{
closed = 1;
nodes = (
"627.766 653 LINE",
"638.522 714 LINE",
"-49.389 499 LINE",
"-60.145 438 LINE"
);
}
);
width = 864;
}
);
unicode = 20BA;
},
{
glyphname = manat;
layers = (
{
layerId = "CA4C97A8-3BBB-4B31-B9EA-F36625F03808";
name = BlackItalic;
paths = (
{
closed = 1;
nodes = (
"321.687 0 LINE",
"451.993 739 LINE SMOOTH",
"470.154 842 OFFCURVE",
"539.616 907 OFFCURVE",
"664.616 907 CURVE SMOOTH",
"787.616 907 OFFCURVE",
"833.154 842 OFFCURVE",
"814.993 739 CURVE SMOOTH",
"684.687 0 LINE",
"1072.687 0 LINE",
"1209.869 778 LINE SMOOTH",
"1259.241 1058 OFFCURVE",
"1105.04 1227 OFFCURVE",
"721.04 1227 CURVE SMOOTH",
"335.04 1227 OFFCURVE",
"121.241 1058 OFFCURVE",
"71.869 778 CURVE SMOOTH",
"-65.313 0 LINE"
);
},
{
closed = 1;
nodes = (
"622.687 0 LINE",
"865.313 1376 LINE",
"633.313 1376 LINE",
"390.687 0 LINE"
);
}
);
width = 1274;
},
{
layerId = "B9A1D949-37EE-48C7-AA51-22036F480782";
name = ExtraLightItalic;
paths = (
{
closed = 1;
nodes = (
"59.687 0 LINE",
"207.802 840 LINE SMOOTH",
"244.478 1048 OFFCURVE",
"361.577 1179 OFFCURVE",
"547.577 1179 CURVE SMOOTH",
"732.577 1179 OFFCURVE",
"804.478 1048 OFFCURVE",
"767.802 840 CURVE SMOOTH",
"619.687 0 LINE",
"683.687 0 LINE",
"834.976 858 LINE SMOOTH",
"873.591 1077 OFFCURVE",
"779.861 1243 OFFCURVE",
"558.861 1243 CURVE SMOOTH",
"337.861 1243 OFFCURVE",
"185.591 1077 OFFCURVE",
"146.976 858 CURVE SMOOTH",
"-4.313 0 LINE"
);
},
{
closed = 1;
nodes = (
"366.687 0 LINE",
"609.313 1376 LINE",
"548.313 1376 LINE",
"305.687 0 LINE"
);
}
);
width = 962;
}
);
unicode = 20BC;
},
{
glyphname = peso;
layers = (
{
anchors = (
{
name = bottom;
position = "{425, 0}";
},
{
name = top;
position = "{657, 1320}";
}
);
layerId = "CA4C97A8-3BBB-4B31-B9EA-F36625F03808";
name = BlackItalic;
paths = (
{
closed = 1;
nodes = (
"-55.376 0 LINE",
"331.624 0 LINE",
"380.467 277 LINE",
"546.467 277 LINE SMOOTH",
"804.467 277 OFFCURVE",
"1060.024 490 OFFCURVE",
"1116.096 808 CURVE SMOOTH",
"1172.168 1126 OFFCURVE",
"988.376 1320 OFFCURVE",
"730.376 1320 CURVE SMOOTH",
"177.376 1320 LINE"
);
},
{
closed = 1;
nodes = (
"511.301 1019 LINE",
"569.301 1019 LINE SMOOTH",
"657.301 1019 OFFCURVE",
"726.135 950 OFFCURVE",
"699.333 798 CURVE SMOOTH",
"672.531 646 OFFCURVE",
"579.541 578 OFFCURVE",
"491.541 578 CURVE SMOOTH",
"433.541 578 LINE"
);
},
{
closed = 1;
nodes = (
"1165.181 627 LINE",
"1191.807 778 LINE",
"6.807 778 LINE",
"-19.819 627 LINE"
);
},
{
closed = 1;
nodes = (
"1199.389 821 LINE",
"1225.838 971 LINE",
"40.838 971 LINE",
"14.389 821 LINE"
);
}
);
width = 1154;
},
{
anchors = (
{
name = bottom;
position = "{353, 0}";
},
{
name = top;
position = "{585, 1320}";
}
);
layerId = "B9A1D949-37EE-48C7-AA51-22036F480782";
name = ExtraLightItalic;
paths = (
{
closed = 1;
nodes = (
"33.624 0 LINE",
"96.624 0 LINE",
"165.392 390 LINE",
"386.392 390 LINE SMOOTH",
"627.392 390 OFFCURVE",
"844.488 538 OFFCURVE",
"901.618 862 CURVE SMOOTH",
"958.924 1187 OFFCURVE",
"791.376 1320 OFFCURVE",
"550.376 1320 CURVE SMOOTH",
"266.376 1320 LINE"
);
},
{
closed = 1;
nodes = (
"318.091 1256 LINE",
"523.091 1256 LINE SMOOTH",
"732.091 1256 OFFCURVE",
"889.282 1155 OFFCURVE",
"837.618 862 CURVE SMOOTH",
"786.131 570 OFFCURVE",
"590.677 454 OFFCURVE",
"381.677 454 CURVE SMOOTH",
"176.677 454 LINE"
);
},
{
closed = 1;
nodes = (
"951.343 730 LINE",
"962.628 794 LINE",
"49.628 794 LINE",
"38.343 730 LINE"
);
},
{
closed = 1;
nodes = (
"983.963 915 LINE",
"995.248 979 LINE",
"82.248 979 LINE",
"70.963 915 LINE"
);
}
);
width = 978;
}
);
unicode = 20B1;
},
{
glyphname = rupeeIndian;
layers = (
{
layerId = "CA4C97A8-3BBB-4B31-B9EA-F36625F03808";
name = BlackItalic;
paths = (
{
closed = 1;
nodes = (
"225.765 1067 LINE",
"474.765 1067 LINE SMOOTH",
"609.765 1067 OFFCURVE",
"680.07 995 OFFCURVE",
"653.268 843 CURVE SMOOTH",
"626.466 691 OFFCURVE",
"526.771 619 OFFCURVE",
"392.771 619 CURVE SMOOTH",
"144.771 619 LINE",
"107.037 405 LINE",
"281.037 405 LINE",
"648.037 405 OFFCURVE",
"938.904 512 OFFCURVE",
"999.56 856 CURVE SMOOTH",
"1044.7 1112 OFFCURVE",
"913.376 1320 OFFCURVE",
"673.376 1320 CURVE SMOOTH",
"270.376 1320 LINE"
);
},
{
closed = 1;
nodes = (
"1183.35 1093 LINE",
"1223.376 1320 LINE",
"270.376 1320 LINE",
"230.35 1093 LINE"
);
},
{
closed = 1;
nodes = (
"1118.99 728 LINE",
"1159.369 957 LINE",
"206.369 957 LINE",
"165.99 728 LINE"
);
},
{
closed = 1;
nodes = (
"438.624 0 LINE",
"875.624 0 LINE",
"427.899 546 LINE",
"107.037 405 LINE"
);
}
);
width = 1234;
},
{
layerId = "B9A1D949-37EE-48C7-AA51-22036F480782";
name = ExtraLightItalic;
paths = (
{
closed = 1;
nodes = (
"209.091 1256 LINE",
"523.091 1256 LINE SMOOTH",
"723.091 1256 OFFCURVE",
"838.516 1162 OFFCURVE",
"801.84 954 CURVE SMOOTH",
"765.164 746 OFFCURVE",
"615.531 646 OFFCURVE",
"415.531 646 CURVE SMOOTH",
"101.531 646 LINE",
"90.952 586 LINE",
"423.952 586 LINE SMOOTH",
"658.952 586 OFFCURVE",
"827.401 736 OFFCURVE",
"865.84 954 CURVE SMOOTH",
"908.159 1194 OFFCURVE",
"754.376 1320 OFFCURVE",
"554.376 1320 CURVE SMOOTH",
"220.376 1320 LINE"
);
},
{
closed = 1;
nodes = (
"1025.62 1259 LINE",
"1036.376 1320 LINE",
"220.376 1320 LINE",
"209.62 1259 LINE"
);
},
{
closed = 1;
nodes = (
"967.316 917 LINE",
"978.072 978 LINE",
"160.072 978 LINE",
"149.316 917 LINE"
);
},
{
closed = 1;
nodes = (
"590.624 0 LINE",
"683.624 0 LINE",
"148.534 629 LINE",
"90.952 586 LINE"
);
}
);
width = 1046;
}
);
unicode = 20B9;
},
{
glyphname = sterling;
layers = (
{
layerId = "CA4C97A8-3BBB-4B31-B9EA-F36625F03808";
name = BlackItalic;
paths = (
{
closed = 1;
nodes = (
"276.312 550 OFFCURVE",
"303.445 443 OFFCURVE",
"293.923 389 CURVE SMOOTH",
"287.046 350 OFFCURVE",
"278.049 333 OFFCURVE",
"255.288 306 CURVE",
"103.288 306 OFFCURVE",
"-40.224 184 OFFCURVE",
"-72.668 0 CURVE",
"196.332 0 LINE",
"210.153 16 OFFCURVE",
"240.032 38 OFFCURVE",
"272.032 38 CURVE SMOOTH",
"424.032 38 OFFCURVE",
"501.1 -24 OFFCURVE",
"701.1 -24 CURVE SMOOTH",
"903.1 -24 OFFCURVE",
"1040.139 118 OFFCURVE",
"1086.358 227 CURVE",
"796.93 338 LINE",
"794.049 333 OFFCURVE",
"757.882 264 OFFCURVE",
"698.882 264 CURVE SMOOTH",
"628.882 264 OFFCURVE",
"584.761 286 OFFCURVE",
"566.761 286 CURVE",
"575.525 296 OFFCURVE",
"605.399 352 OFFCURVE",
"614.215 402 CURVE SMOOTH",
"626.206 470 OFFCURVE",
"627.783 547 OFFCURVE",
"600.944 650 CURVE SMOOTH",
"586.937 701 OFFCURVE",
"562.273 822 OFFCURVE",
"577.613 909 CURVE SMOOTH",
"591.19 986 OFFCURVE",
"631.065 1042 OFFCURVE",
"703.065 1042 CURVE SMOOTH",
"790.065 1042 OFFCURVE",
"805.256 941 OFFCURVE",
"791.678 864 CURVE",
"1136.362 1021 LINE",
"1139.871 1160 OFFCURVE",
"1035.668 1346 OFFCURVE",
"740.668 1346 CURVE SMOOTH",
"444.668 1346 OFFCURVE",
"244.753 1165 OFFCURVE",
"202.434 925 CURVE SMOOTH",
"180.923 803 OFFCURVE",
"207.229 714 OFFCURVE",
"233.944 650 CURVE SMOOTH"
);
},
{
closed = 1;
nodes = (
"32.679 450 LINE",
"800.679 450 LINE",
"838.06 662 LINE",
"70.06 662 LINE"
);
}
);
width = 1238;
},
{
layerId = "B9A1D949-37EE-48C7-AA51-22036F480782";
name = ExtraLightItalic;
paths = (
{
closed = 1;
nodes = (
"321.908 491 OFFCURVE",
"329.976 429 OFFCURVE",
"316.046 350 CURVE SMOOTH",
"304.232 283 OFFCURVE",
"275.182 226 OFFCURVE",
"267.537 211 CURVE",
"158.537 211 OFFCURVE",
"20.201 90 OFFCURVE",
"-4.668 0 CURVE",
"62.332 0 LINE",
"72.914 43 OFFCURVE",
"164.663 155 OFFCURVE",
"276.663 155 CURVE SMOOTH",
"441.663 155 OFFCURVE",
"490.1 -24 OFFCURVE",
"688.1 -24 CURVE SMOOTH",
"829.1 -24 OFFCURVE",
"934.849 88 OFFCURVE",
"975.837 173 CURVE",
"921.245 198 LINE",
"898.254 130 OFFCURVE",
"822.385 40 OFFCURVE",
"701.385 40 CURVE SMOOTH",
"550.385 40 OFFCURVE",
"464.834 190 OFFCURVE",
"327.479 205 CURVE",
"333.948 219 OFFCURVE",
"366.056 282 OFFCURVE",
"378.046 350 CURVE SMOOTH",
"390.742 422 OFFCURVE",
"385.558 472 OFFCURVE",
"364.425 579 CURVE",
"352.478 619 OFFCURVE",
"303.799 842 OFFCURVE",
"326.545 971 CURVE SMOOTH",
"362.163 1173 OFFCURVE",
"507.383 1282 OFFCURVE",
"710.383 1282 CURVE SMOOTH",
"897.383 1282 OFFCURVE",
"994.871 1160 OFFCURVE",
"1015.825 1069 CURVE",
"1077.644 1102 LINE",
"1050.982 1206 OFFCURVE",
"936.668 1346 OFFCURVE",
"721.668 1346 CURVE SMOOTH",
"441.668 1346 OFFCURVE",
"297.811 1171 OFFCURVE",
"262.898 973 CURVE SMOOTH",
"235.744 819 OFFCURVE",
"290.775 598 OFFCURVE",
"297.425 579 CURVE"
);
},
{
closed = 1;
nodes = (
"91.606 546 LINE",
"793.606 546 LINE",
"804.539 608 LINE",
"102.539 608 LINE"
);
}
);
width = 1190;
}
);
leftKerningGroup = sterling;
rightKerningGroup = sterling;
unicode = 00A3;
},
{
glyphname = yen;
layers = (
{
components = (
{
name = Y;
alignment = -1;
}
);
layerId = "CA4C97A8-3BBB-4B31-B9EA-F36625F03808";
name = BlackItalic;
paths = (
{
closed = 1;
nodes = (
"56.375 509 LINE",
"1088.375 509 LINE",
"1128.93 739 LINE",
"96.93 739 LINE"
);
},
{
closed = 1;
nodes = (
"-4.282 165 LINE",
"1027.718 165 LINE",
"1068.273 395 LINE",
"36.273 395 LINE"
);
}
);
width = 1266;
},
{
components = (
{
name = Y;
alignment = -1;
}
);
layerId = "B9A1D949-37EE-48C7-AA51-22036F480782";
name = ExtraLightItalic;
paths = (
{
closed = 1;
nodes = (
"48.256 514 LINE",
"886.256 514 LINE",
"897.189 576 LINE",
"59.189 576 LINE"
);
},
{
closed = 1;
nodes = (
"11.757 307 LINE",
"849.757 307 LINE",
"860.865 370 LINE",
"22.865 370 LINE"
);
}
);
width = 1026;
}
);
leftKerningGroup = yen;
rightKerningGroup = yen;
unicode = 00A5;
},
{
glyphname = plus;
layers = (
{
layerId = "CA4C97A8-3BBB-4B31-B9EA-F36625F03808";
name = BlackItalic;
paths = (
{
closed = 1;
nodes = (
"919.534 506 LINE",
"975.077 821 LINE",
"724.077 821 LINE",
"768.688 1074 LINE",
"451.688 1074 LINE",
"407.077 821 LINE",
"154.077 821 LINE",
"98.534 506 LINE",
"351.534 506 LINE",
"306.923 253 LINE",
"623.923 253 LINE",
"668.534 506 LINE"
);
}
);
width = 1053;
},
{
layerId = "B9A1D949-37EE-48C7-AA51-22036F480782";
name = ExtraLightItalic;
paths = (
{
closed = 1;
nodes = (
"950.104 634 LINE",
"960.683 694 LINE",
"581.683 694 LINE",
"648.688 1074 LINE",
"587.688 1074 LINE",
"520.683 694 LINE",
"139.683 694 LINE",
"129.104 634 LINE",
"510.104 634 LINE",
"442.923 253 LINE",
"503.923 253 LINE",
"571.104 634 LINE"
);
}
);
width = 1085;
}
);
leftKerningGroup = plus;
rightKerningGroup = plus;
unicode = 002B;
},
{
glyphname = minus;
layers = (
{
layerId = "CA4C97A8-3BBB-4B31-B9EA-F36625F03808";
name = BlackItalic;
paths = (
{
closed = 1;
nodes = (
"960.751 506 LINE",
"1016.47 822 LINE",
"158.47 822 LINE",
"102.751 506 LINE"
);
}
);
width = 1053;
},
{
layerId = "B9A1D949-37EE-48C7-AA51-22036F480782";
name = ExtraLightItalic;
paths = (
{
closed = 1;
nodes = (
"1023.077 629 LINE",
"1033.833 690 LINE",
"52.833 690 LINE",
"42.077 629 LINE"
);
}
);
width = 1005;
}
);
leftKerningGroup = minus;
rightKerningGroup = minus;
unicode = 2212;
},
{
glyphname = multiply;
layers = (
{
layerId = "CA4C97A8-3BBB-4B31-B9EA-F36625F03808";
name = BlackItalic;
paths = (
{
closed = 1;
nodes = (
"1013.012 880 LINE",
"828.156 1102 LINE",
"573.422 888 LINE",
"395.156 1102 LINE",
"133.364 882 LINE",
"309.925 664 LINE",
"57.191 450 LINE",
"240.341 224 LINE",
"495.78 442 LINE",
"676.341 224 LINE",
"936.486 446 LINE",
"757.572 662 LINE"
);
}
);
width = 1053;
},
{
layerId = "B9A1D949-37EE-48C7-AA51-22036F480782";
name = ExtraLightItalic;
paths = (
{
closed = 1;
nodes = (
"899.287 966 LINE",
"863.045 1010 LINE",
"509.618 707 LINE",
"260.045 1010 LINE",
"209.287 966 LINE",
"458.036 664 LINE",
"100.785 362 LINE",
"137.027 318 LINE",
"494.454 621 LINE",
"743.027 318 LINE",
"793.785 362 LINE",
"543.036 664 LINE"
);
}
);
width = 982;
}
);
leftKerningGroup = multiply;
rightKerningGroup = multiply;
unicode = 00D7;
},
{
glyphname = divide;
layers = (
{
layerId = "CA4C97A8-3BBB-4B31-B9EA-F36625F03808";
name = BlackItalic;
paths = (
{
closed = 1;
nodes = (
"535.267 1194 OFFCURVE",
"456.277 1126 OFFCURVE",
"441.466 1042 CURVE SMOOTH",
"427.007 960 OFFCURVE",
"482.193 893 OFFCURVE",
"564.193 893 CURVE SMOOTH",
"649.193 893 OFFCURVE",
"728.007 960 OFFCURVE",
"742.466 1042 CURVE SMOOTH",
"757.277 1126 OFFCURVE",
"702.267 1194 OFFCURVE",
"617.267 1194 CURVE SMOOTH"
);
},
{
closed = 1;
nodes = (
"927.954 506 LINE",
"983.674 822 LINE",
"125.674 822 LINE",
"69.954 506 LINE"
);
},
{
closed = 1;
nodes = (
"401.259 434 OFFCURVE",
"322.268 366 OFFCURVE",
"307.457 282 CURVE SMOOTH",
"292.998 200 OFFCURVE",
"348.184 133 OFFCURVE",
"430.184 133 CURVE SMOOTH",
"515.184 133 OFFCURVE",
"593.998 200 OFFCURVE",
"608.457 282 CURVE SMOOTH",
"623.268 366 OFFCURVE",
"568.259 434 OFFCURVE",
"483.259 434 CURVE SMOOTH"
);
}
);
width = 1053;
},
{
layerId = "B9A1D949-37EE-48C7-AA51-22036F480782";
name = ExtraLightItalic;
paths = (
{
closed = 1;
nodes = (
"533.426 1037 OFFCURVE",
"495.783 1005 OFFCURVE",
"488.377 963 CURVE SMOOTH",
"481.677 925 OFFCURVE",
"508.034 893 OFFCURVE",
"546.034 893 CURVE SMOOTH",
"588.034 893 OFFCURVE",
"625.677 925 OFFCURVE",
"632.377 963 CURVE SMOOTH",
"639.43 1003 OFFCURVE",
"613.426 1037 OFFCURVE",
"571.426 1037 CURVE SMOOTH"
);
},
{
closed = 1;
nodes = (
"862.484 629 LINE",
"873.24 690 LINE",
"152.24 690 LINE",
"141.484 629 LINE"
);
},
{
closed = 1;
nodes = (
"427.1 434 OFFCURVE",
"389.458 402 OFFCURVE",
"382.052 360 CURVE SMOOTH",
"375.352 322 OFFCURVE",
"402.886 291 OFFCURVE",
"439.886 291 CURVE SMOOTH",
"479.886 291 OFFCURVE",
"519.352 322 OFFCURVE",
"526.052 360 CURVE SMOOTH",
"533.458 402 OFFCURVE",
"507.1 434 OFFCURVE",
"465.1 434 CURVE SMOOTH"
);
}
);
width = 1005;
}
);
leftKerningGroup = divide;
rightKerningGroup = divide;
unicode = 00F7;
},
{
glyphname = equal;
layers = (
{
layerId = "CA4C97A8-3BBB-4B31-B9EA-F36625F03808";
name = BlackItalic;
paths = (
{
closed = 1;
nodes = (
"978.648 710 LINE",
"1034.544 1027 LINE",
"176.544 1027 LINE",
"120.648 710 LINE"
);
},
{
closed = 1;
nodes = (
"906.002 298 LINE",
"961.721 614 LINE",
"103.721 614 LINE",
"48.002 298 LINE"
);
}
);
width = 1053;
},
{
layerId = "B9A1D949-37EE-48C7-AA51-22036F480782";
name = ExtraLightItalic;
paths = (
{
closed = 1;
nodes = (
"907.183 789 LINE",
"917.939 850 LINE",
"196.939 850 LINE",
"186.183 789 LINE"
);
},
{
closed = 1;
nodes = (
"853.051 482 LINE",
"863.63 542 LINE",
"142.63 542 LINE",
"132.051 482 LINE"
);
}
);
width = 1005;
}
);
leftKerningGroup = equal;
rightKerningGroup = equal;
unicode = 003D;
},
{
glyphname = notequal;
layers = (
{
components = (
{
name = equal;
transform = "{1, 0, 0, 1, 16, 0}";
alignment = -1;
}
);
layerId = "CA4C97A8-3BBB-4B31-B9EA-F36625F03808";
name = BlackItalic;
paths = (
{
closed = 1;
nodes = (
"1026.441 1230 LINE",
"794.441 1230 LINE",
"-57.395 91 LINE",
"174.605 91 LINE"
);
}
);
width = 1053;
},
{
components = (
{
name = equal;
transform = "{1, 0, 0, 1, 16, 0}";
alignment = -1;
}
);
layerId = "B9A1D949-37EE-48C7-AA51-22036F480782";
name = ExtraLightItalic;
paths = (
{
closed = 1;
nodes = (
"919.3 1149 LINE",
"850.3 1149 LINE",
"81.205 173 LINE",
"150.205 173 LINE"
);
}
);
width = 1085;
}
);
leftKerningGroup = notequal;
rightKerningGroup = notequal;
unicode = 2260;
},
{
glyphname = greater;
layers = (
{
layerId = "CA4C97A8-3BBB-4B31-B9EA-F36625F03808";
name = BlackItalic;
paths = (
{
closed = 1;
nodes = (
"975.332 525 LINE",
"1024.88 806 LINE",
"185.239 1171 LINE",
"125.817 834 LINE",
"589.842 664 LINE",
"66.571 498 LINE",
"7.326 162 LINE"
);
}
);
width = 1099;
},
{
layerId = "B9A1D949-37EE-48C7-AA51-22036F480782";
name = ExtraLightItalic;
paths = (
{
closed = 1;
nodes = (
"920.93 627 LINE",
"934.507 704 LINE",
"208.627 1096 LINE",
"196.461 1027 LINE",
"878.807 666 LINE",
"68.976 304 LINE",
"57.162 237 LINE"
);
}
);
width = 1067;
}
);
leftKerningGroup = greater;
rightKerningGroup = greater;
unicode = 003E;
},
{
glyphname = asciitilde;
layers = (
{
layerId = "CA4C97A8-3BBB-4B31-B9EA-F36625F03808";
name = BlackItalic;
paths = (
{
closed = 1;
nodes = (
"917.911 843 LINE",
"881.858 803 OFFCURVE",
"813.865 752 OFFCURVE",
"757.865 752 CURVE SMOOTH",
"685.865 752 OFFCURVE",
"627.732 859 OFFCURVE",
"467.732 859 CURVE SMOOTH",
"337.732 859 OFFCURVE",
"185.281 726 OFFCURVE",
"106.648 626 CURVE",
"290.315 488 LINE",
"326.016 526 OFFCURVE",
"394.185 578 OFFCURVE",
"450.185 578 CURVE SMOOTH",
"522.185 578 OFFCURVE",
"586.141 470 OFFCURVE",
"741.141 470 CURVE SMOOTH",
"871.141 470 OFFCURVE",
"1024.593 603 OFFCURVE",
"1102.402 704 CURVE"
);
}
);
width = 1150;
},
{
layerId = "B9A1D949-37EE-48C7-AA51-22036F480782";
name = ExtraLightItalic;
paths = (
{
closed = 1;
nodes = (
"1027.976 763 LINE",
"986.81 694 OFFCURVE",
"899.117 605 OFFCURVE",
"802.117 605 CURVE SMOOTH",
"661.117 605 OFFCURVE",
"626.561 789 OFFCURVE",
"450.561 789 CURVE SMOOTH",
"320.561 789 OFFCURVE",
"201.812 677 OFFCURVE",
"147.177 594 CURVE",
"216.064 565 LINE",
"255.23 634 OFFCURVE",
"343.276 725 OFFCURVE",
"439.276 725 CURVE SMOOTH",
"581.276 725 OFFCURVE",
"615.832 541 OFFCURVE",
"787.832 541 CURVE SMOOTH",
"916.832 541 OFFCURVE",
"1035.581 653 OFFCURVE",
"1090.216 736 CURVE"
);
}
);
width = 1182;
}
);
leftKerningGroup = asciitilde;
rightKerningGroup = asciitilde;
unicode = 007E;
},
{
glyphname = logicalnot;
layers = (
{
layerId = "CA4C97A8-3BBB-4B31-B9EA-F36625F03808";
name = BlackItalic;
paths = (
{
closed = 1;
nodes = (
"158.75 621 LINE",
"100.033 288 LINE",
"633.033 288 LINE",
"597.767 88 LINE",
"930.767 88 LINE",
"1024.75 621 LINE"
);
}
);
width = 1120;
},
{
layerId = "B9A1D949-37EE-48C7-AA51-22036F480782";
name = ExtraLightItalic;
paths = (
{
closed = 1;
nodes = (
"154.847 486 LINE",
"144.268 426 LINE",
"598.268 426 LINE",
"558.065 198 LINE",
"619.065 198 LINE",
"669.847 486 LINE"
);
}
);
width = 779;
}
);
unicode = 00AC;
},
{
glyphname = asciicircum;
layers = (
{
layerId = "CA4C97A8-3BBB-4B31-B9EA-F36625F03808";
name = BlackItalic;
paths = (
{
closed = 1;
nodes = (
"612.492 1344 LINE",
"435.492 1344 LINE",
"31.193 968 LINE",
"354.193 968 LINE",
"477.823 1085 LINE",
"562.193 968 LINE",
"884.193 968 LINE"
);
}
);
width = 834;
},
{
layerId = "B9A1D949-37EE-48C7-AA51-22036F480782";
name = ExtraLightItalic;
paths = (
{
closed = 1;
nodes = (
"566.492 1344 LINE",
"499.492 1344 LINE",
"121.193 968 LINE",
"199.193 968 LINE",
"525.086 1302 LINE",
"734.193 968 LINE",
"810.193 968 LINE"
);
}
);
width = 866;
}
);
leftKerningGroup = asciicircum;
rightKerningGroup = asciicircum;
unicode = 005E;
},
{
glyphname = micro;
layers = (
{
components = (
{
name = u;
alignment = -1;
}
);
layerId = "CA4C97A8-3BBB-4B31-B9EA-F36625F03808";
name = BlackItalic;
paths = (
{
closed = 1;
nodes = (
"-85.502 -392 LINE",
"301.498 -392 LINE",
"515.382 821 LINE",
"128.382 821 LINE"
);
}
);
width = 1146;
},
{
components = (
{
name = u;
alignment = -1;
}
);
layerId = "B9A1D949-37EE-48C7-AA51-22036F480782";
name = ExtraLightItalic;
paths = (
{
closed = 1;
nodes = (
"-24.502 -392 LINE",
"39.498 -392 LINE",
"253.382 821 LINE",
"189.382 821 LINE"
);
}
);
width = 962;
}
);
unicode = 00B5;
},
{
glyphname = percent;
layers = (
{
layerId = "CA4C97A8-3BBB-4B31-B9EA-F36625F03808";
name = BlackItalic;
paths = (
{
closed = 1;
nodes = (
"172.511 0 LINE",
"420.511 0 LINE",
"1501.262 1320 LINE",
"1253.262 1320 LINE"
);
},
{
closed = 1;
nodes = (
"59.154 843 OFFCURVE",
"185.413 680 OFFCURVE",
"422.413 680 CURVE SMOOTH",
"659.413 680 OFFCURVE",
"843.154 843 OFFCURVE",
"875.951 1029 CURVE SMOOTH",
"909.277 1218 OFFCURVE",
"782.489 1378 OFFCURVE",
"545.489 1378 CURVE SMOOTH",
"308.489 1378 OFFCURVE",
"125.277 1218 OFFCURVE",
"91.951 1029 CURVE SMOOTH"
);
},
{
closed = 1;
nodes = (
"367.705 1107 OFFCURVE",
"431.461 1168 OFFCURVE",
"508.461 1168 CURVE SMOOTH",
"585.461 1168 OFFCURVE",
"623.705 1107 OFFCURVE",
"609.951 1029 CURVE SMOOTH",
"596.021 950 OFFCURVE",
"536.971 893 OFFCURVE",
"459.971 893 CURVE SMOOTH",
"382.971 893 OFFCURVE",
"340.021 950 OFFCURVE",
"353.951 1029 CURVE SMOOTH"
);
},
{
closed = 1;
nodes = (
"761.201 106 OFFCURVE",
"887.284 -58 OFFCURVE",
"1124.284 -58 CURVE SMOOTH",
"1361.284 -58 OFFCURVE",
"1545.201 106 OFFCURVE",
"1577.822 291 CURVE SMOOTH",
"1611.148 480 OFFCURVE",
"1484.36 640 OFFCURVE",
"1247.36 640 CURVE SMOOTH",
"1010.36 640 OFFCURVE",
"827.148 480 OFFCURVE",
"793.822 291 CURVE SMOOTH"
);
},
{
closed = 1;
nodes = (
"1069.752 370 OFFCURVE",
"1133.331 430 OFFCURVE",
"1210.331 430 CURVE SMOOTH",
"1287.331 430 OFFCURVE",
"1325.752 370 OFFCURVE",
"1311.822 291 CURVE SMOOTH",
"1298.068 213 OFFCURVE",
"1238.841 155 OFFCURVE",
"1161.841 155 CURVE SMOOTH",
"1084.841 155 OFFCURVE",
"1042.068 213 OFFCURVE",
"1055.822 291 CURVE SMOOTH"
);
}
);
width = 1680;
},
{
layerId = "B9A1D949-37EE-48C7-AA51-22036F480782";
name = ExtraLightItalic;
paths = (
{
closed = 1;
nodes = (
"136.624 0 LINE",
"201.624 0 LINE",
"1202.376 1320 LINE",
"1137.376 1320 LINE"
);
},
{
closed = 1;
nodes = (
"146.495 901 OFFCURVE",
"225.744 806 OFFCURVE",
"363.744 806 CURVE SMOOTH",
"492.744 806 OFFCURVE",
"610.495 901 OFFCURVE",
"633.065 1029 CURVE SMOOTH",
"656.163 1160 OFFCURVE",
"563.562 1253 OFFCURVE",
"442.562 1253 CURVE SMOOTH",
"314.562 1253 OFFCURVE",
"192.163 1160 OFFCURVE",
"169.065 1029 CURVE SMOOTH"
);
},
{
closed = 1;
nodes = (
"246.403 1133 OFFCURVE",
"331.864 1198 OFFCURVE",
"430.864 1198 CURVE SMOOTH",
"524.864 1198 OFFCURVE",
"592.403 1133 OFFCURVE",
"574.065 1029 CURVE SMOOTH",
"554.845 920 OFFCURVE",
"467.442 861 OFFCURVE",
"371.442 861 CURVE SMOOTH",
"267.442 861 OFFCURVE",
"209.198 922 OFFCURVE",
"228.065 1029 CURVE SMOOTH"
);
},
{
closed = 1;
nodes = (
"685.189 162 OFFCURVE",
"764.438 67 OFFCURVE",
"901.438 67 CURVE SMOOTH",
"1031.438 67 OFFCURVE",
"1149.189 162 OFFCURVE",
"1171.759 290 CURVE SMOOTH",
"1194.858 421 OFFCURVE",
"1102.256 514 OFFCURVE",
"980.256 514 CURVE SMOOTH",
"852.256 514 OFFCURVE",
"730.858 421 OFFCURVE",
"707.759 290 CURVE SMOOTH"
);
},
{
closed = 1;
nodes = (
"785.097 394 OFFCURVE",
"870.558 459 OFFCURVE",
"969.558 459 CURVE SMOOTH",
"1063.558 459 OFFCURVE",
"1131.097 394 OFFCURVE",
"1112.759 290 CURVE SMOOTH",
"1093.539 181 OFFCURVE",
"1006.136 122 OFFCURVE",
"910.136 122 CURVE SMOOTH",
"806.136 122 OFFCURVE",
"747.716 182 OFFCURVE",
"766.759 290 CURVE SMOOTH"
);
}
);
width = 1379;
}
);
leftKerningGroup = percent;
rightKerningGroup = percent;
unicode = 0025;
},
{
glyphname = perthousand;
layers = (
{
layerId = "CA4C97A8-3BBB-4B31-B9EA-F36625F03808";
name = BlackItalic;
paths = (
{
closed = 1;
nodes = (
"-81.821 259 LINE",
"4.967 99 LINE",
"1808.118 1098 LINE",
"1721.33 1258 LINE"
);
},
{
closed = 1;
nodes = (
"59.154 843 OFFCURVE",
"185.413 680 OFFCURVE",
"422.413 680 CURVE SMOOTH",
"659.413 680 OFFCURVE",
"843.154 843 OFFCURVE",
"875.951 1029 CURVE SMOOTH",
"909.277 1218 OFFCURVE",
"782.489 1378 OFFCURVE",
"545.489 1378 CURVE SMOOTH",
"308.489 1378 OFFCURVE",
"125.277 1218 OFFCURVE",
"91.951 1029 CURVE SMOOTH"
);
},
{
closed = 1;
nodes = (
"367.705 1107 OFFCURVE",
"431.461 1168 OFFCURVE",
"508.461 1168 CURVE SMOOTH",
"585.461 1168 OFFCURVE",
"623.705 1107 OFFCURVE",
"609.951 1029 CURVE SMOOTH",
"596.021 950 OFFCURVE",
"536.971 893 OFFCURVE",
"459.971 893 CURVE SMOOTH",
"382.971 893 OFFCURVE",
"340.021 950 OFFCURVE",
"353.951 1029 CURVE SMOOTH"
);
},
{
closed = 1;
nodes = (
"713.201 106 OFFCURVE",
"839.284 -58 OFFCURVE",
"1076.284 -58 CURVE SMOOTH",
"1313.284 -58 OFFCURVE",
"1497.201 106 OFFCURVE",
"1529.822 291 CURVE SMOOTH",
"1563.148 480 OFFCURVE",
"1436.36 640 OFFCURVE",
"1199.36 640 CURVE SMOOTH",
"962.36 640 OFFCURVE",
"779.148 480 OFFCURVE",
"745.822 291 CURVE SMOOTH"
);
},
{
closed = 1;
nodes = (
"1021.752 370 OFFCURVE",
"1085.331 430 OFFCURVE",
"1162.331 430 CURVE SMOOTH",
"1239.331 430 OFFCURVE",
"1277.752 370 OFFCURVE",
"1263.822 291 CURVE SMOOTH",
"1250.068 213 OFFCURVE",
"1190.841 155 OFFCURVE",
"1113.841 155 CURVE SMOOTH",
"1036.841 155 OFFCURVE",
"994.068 213 OFFCURVE",
"1007.822 291 CURVE SMOOTH"
);
},
{
closed = 1;
nodes = (
"1545.201 106 OFFCURVE",
"1671.284 -58 OFFCURVE",
"1908.284 -58 CURVE SMOOTH",
"2145.284 -58 OFFCURVE",
"2329.201 106 OFFCURVE",
"2361.822 291 CURVE SMOOTH",
"2395.148 480 OFFCURVE",
"2268.36 640 OFFCURVE",
"2031.36 640 CURVE SMOOTH",
"1794.36 640 OFFCURVE",
"1611.148 480 OFFCURVE",
"1577.822 291 CURVE SMOOTH"
);
},
{
closed = 1;
nodes = (
"1853.752 370 OFFCURVE",
"1917.331 430 OFFCURVE",
"1994.331 430 CURVE SMOOTH",
"2071.331 430 OFFCURVE",
"2109.752 370 OFFCURVE",
"2095.822 291 CURVE SMOOTH",
"2082.068 213 OFFCURVE",
"2022.841 155 OFFCURVE",
"1945.841 155 CURVE SMOOTH",
"1868.841 155 OFFCURVE",
"1826.068 213 OFFCURVE",
"1839.822 291 CURVE SMOOTH"
);
}
);
width = 2464;
},
{
layerId = "B9A1D949-37EE-48C7-AA51-22036F480782";
name = ExtraLightItalic;
paths = (
{
closed = 1;
nodes = (
"-42.276 296 LINE",
"-19.329 256 LINE",
"1592.534 1208 LINE",
"1568.587 1248 LINE"
);
},
{
closed = 1;
nodes = (
"264.402 901 OFFCURVE",
"343.651 806 OFFCURVE",
"481.651 806 CURVE SMOOTH",
"610.651 806 OFFCURVE",
"728.402 901 OFFCURVE",
"750.972 1029 CURVE SMOOTH",
"774.07 1160 OFFCURVE",
"681.469 1253 OFFCURVE",
"560.469 1253 CURVE SMOOTH",
"432.469 1253 OFFCURVE",
"310.07 1160 OFFCURVE",
"286.972 1029 CURVE SMOOTH"
);
},
{
closed = 1;
nodes = (
"364.31 1133 OFFCURVE",
"449.771 1198 OFFCURVE",
"548.771 1198 CURVE SMOOTH",
"642.771 1198 OFFCURVE",
"710.31 1133 OFFCURVE",
"691.972 1029 CURVE SMOOTH",
"672.752 920 OFFCURVE",
"585.349 861 OFFCURVE",
"489.349 861 CURVE SMOOTH",
"385.349 861 OFFCURVE",
"327.105 922 OFFCURVE",
"345.972 1029 CURVE SMOOTH"
);
},
{
closed = 1;
nodes = (
"372.096 162 OFFCURVE",
"451.345 67 OFFCURVE",
"589.345 67 CURVE SMOOTH",
"719.345 67 OFFCURVE",
"836.096 162 OFFCURVE",
"858.666 290 CURVE SMOOTH",
"881.765 421 OFFCURVE",
"790.163 514 OFFCURVE",
"668.163 514 CURVE SMOOTH",
"540.163 514 OFFCURVE",
"417.765 421 OFFCURVE",
"394.666 290 CURVE SMOOTH"
);
},
{
closed = 1;
nodes = (
"473.004 394 OFFCURVE",
"557.465 459 OFFCURVE",
"656.465 459 CURVE SMOOTH",
"751.465 459 OFFCURVE",
"818.004 394 OFFCURVE",
"799.666 290 CURVE SMOOTH",
"780.446 181 OFFCURVE",
"693.043 122 OFFCURVE",
"597.043 122 CURVE SMOOTH",
"493.043 122 OFFCURVE",
"435.623 182 OFFCURVE",
"454.666 290 CURVE SMOOTH"
);
},
{
closed = 1;
nodes = (
"958.096 162 OFFCURVE",
"1037.345 67 OFFCURVE",
"1175.345 67 CURVE SMOOTH",
"1304.345 67 OFFCURVE",
"1422.096 162 OFFCURVE",
"1444.666 290 CURVE SMOOTH",
"1467.765 421 OFFCURVE",
"1375.163 514 OFFCURVE",
"1254.163 514 CURVE SMOOTH",
"1126.163 514 OFFCURVE",
"1003.765 421 OFFCURVE",
"980.666 290 CURVE SMOOTH"
);
},
{
closed = 1;
nodes = (
"1058.004 394 OFFCURVE",
"1143.465 459 OFFCURVE",
"1242.465 459 CURVE SMOOTH",
"1336.465 459 OFFCURVE",
"1404.004 394 OFFCURVE",
"1385.666 290 CURVE SMOOTH",
"1366.446 181 OFFCURVE",
"1279.043 122 OFFCURVE",
"1183.043 122 CURVE SMOOTH",
"1079.043 122 OFFCURVE",
"1020.623 182 OFFCURVE",
"1039.666 290 CURVE SMOOTH"
);
}
);
width = 1586;
}
);
leftKerningGroup = percent;
rightKerningGroup = percent;
unicode = 2030;
},
{
glyphname = at;
layers = (
{
layerId = "CA4C97A8-3BBB-4B31-B9EA-F36625F03808";
name = BlackItalic;
paths = (
{
closed = 1;
nodes = (
"880.276 -24 OFFCURVE",
"1053.735 58 OFFCURVE",
"1112.668 120 CURVE",
"909.991 326 LINE",
"880.054 298 OFFCURVE",
"794.53 261 OFFCURVE",
"676.53 261 CURVE SMOOTH",
"433.53 261 OFFCURVE",
"294.563 437 OFFCURVE",
"334.06 661 CURVE SMOOTH",
"373.734 886 OFFCURVE",
"589.47 1083 OFFCURVE",
"837.47 1083 CURVE SMOOTH",
"1091.47 1083 OFFCURVE",
"1248.021 933 OFFCURVE",
"1210.993 723 CURVE SMOOTH",
"1196.71 642 OFFCURVE",
"1185.186 605 OFFCURVE",
"1132.186 605 CURVE SMOOTH",
"1079.186 605 OFFCURVE",
"1078.239 645 OFFCURVE",
"1085.292 685 CURVE",
"1132.372 952 LINE",
"899.372 952 LINE",
"891.437 907 LINE",
"835.311 963 OFFCURVE",
"774.545 970 OFFCURVE",
"721.545 970 CURVE SMOOTH",
"559.545 970 OFFCURVE",
"410.976 842 OFFCURVE",
"379.06 661 CURVE SMOOTH",
"346.616 477 OFFCURVE",
"463.462 323 OFFCURVE",
"639.462 323 CURVE SMOOTH",
"808.462 323 OFFCURVE",
"871.747 387 OFFCURVE",
"917.092 440 CURVE",
"947.039 400 OFFCURVE",
"1010.986 360 OFFCURVE",
"1085.986 360 CURVE SMOOTH",
"1248.986 360 OFFCURVE",
"1455.032 451 OFFCURVE",
"1500.171 707 CURVE SMOOTH",
"1566.823 1085 OFFCURVE",
"1257.492 1344 OFFCURVE",
"883.492 1344 CURVE SMOOTH",
"492.492 1344 OFFCURVE",
"114.649 1067 OFFCURVE",
"43.06 661 CURVE SMOOTH",
"-28.705 254 OFFCURVE",
"235.276 -24 OFFCURVE",
"626.276 -24 CURVE SMOOTH"
);
},
{
closed = 1;
nodes = (
"708.544 573 OFFCURVE",
"679.715 608 OFFCURVE",
"687.65 653 CURVE SMOOTH",
"695.232 696 OFFCURVE",
"736.403 731 OFFCURVE",
"781.403 731 CURVE SMOOTH",
"824.403 731 OFFCURVE",
"854.232 696 OFFCURVE",
"846.65 653 CURVE SMOOTH",
"838.715 608 OFFCURVE",
"796.544 573 OFFCURVE",
"753.544 573 CURVE SMOOTH"
);
}
);
width = 1514;
},
{
layerId = "B9A1D949-37EE-48C7-AA51-22036F480782";
name = ExtraLightItalic;
paths = (
{
closed = 1;
nodes = (
"880.276 -24 OFFCURVE",
"1085.788 98 OFFCURVE",
"1172.834 189 CURVE",
"1125.416 232 LINE",
"1049.781 149 OFFCURVE",
"867.032 37 OFFCURVE",
"645.032 37 CURVE SMOOTH",
"312.032 37 OFFCURVE",
"51.583 301 OFFCURVE",
"115.06 661 CURVE SMOOTH",
"179.067 1024 OFFCURVE",
"549.736 1283 OFFCURVE",
"888.736 1283 CURVE SMOOTH",
"1235.736 1283 OFFCURVE",
"1452.949 1029 OFFCURVE",
"1396.171 707 CURVE SMOOTH",
"1357.908 490 OFFCURVE",
"1200.039 400 OFFCURVE",
"1115.039 400 CURVE SMOOTH",
"1024.039 400 OFFCURVE",
"1025.556 488 OFFCURVE",
"1030.846 518 CURVE",
"1107.372 952 LINE",
"1043.372 952 LINE",
"1023.094 837 LINE",
"1020.502 862 OFFCURVE",
"943.603 976 OFFCURVE",
"779.603 976 CURVE SMOOTH",
"565.603 976 OFFCURVE",
"413.683 829 OFFCURVE",
"382.121 650 CURVE SMOOTH",
"350.382 470 OFFCURVE",
"449.933 320 OFFCURVE",
"663.933 320 CURVE SMOOTH",
"817.933 320 OFFCURVE",
"948.86 416 OFFCURVE",
"971.966 496 CURVE",
"956.979 411 OFFCURVE",
"985.694 347 OFFCURVE",
"1107.694 347 CURVE SMOOTH",
"1243.694 347 OFFCURVE",
"1419.793 478 OFFCURVE",
"1460.171 707 CURVE SMOOTH",
"1526.823 1085 OFFCURVE",
"1273.492 1344 OFFCURVE",
"899.492 1344 CURVE SMOOTH",
"508.492 1344 OFFCURVE",
"122.649 1067 OFFCURVE",
"51.06 661 CURVE SMOOTH",
"-20.705 254 OFFCURVE",
"243.276 -24 OFFCURVE",
"634.276 -24 CURVE SMOOTH"
);
},
{
closed = 1;
nodes = (
"505.336 379 OFFCURVE",
"419.495 499 OFFCURVE",
"446.121 650 CURVE SMOOTH",
"473.099 803 OFFCURVE",
"609.2 917 OFFCURVE",
"769.2 917 CURVE SMOOTH",
"918.2 917 OFFCURVE",
"1019.509 811 OFFCURVE",
"992.531 658 CURVE SMOOTH",
"965.906 507 OFFCURVE",
"846.336 379 OFFCURVE",
"674.336 379 CURVE SMOOTH"
);
}
);
width = 1546;
}
);
leftKerningGroup = at;
rightKerningGroup = at;
unicode = 0040;
},
